<svg width="20" height="20" viewBox="0 0 20 20" fill="none" xmlns="http://www.w3.org/2000/svg">
<path d="M6.72619 4.00417C6.18529 4.00417 5.66184 4.16128 5.20818 4.45802C4.76324 4.76347 4.41435 5.1823 4.20497 5.67977C4.00431 6.18596 3.9431 6.72711 4.05651 7.25948C4.1612 7.79185 4.41429 8.27194 4.79816 8.65595C5.18203 9.03995 5.66174 9.29313 6.19392 9.39786C6.7261 9.51132 7.26706 9.45029 7.77306 9.24956C8.27035 9.04011 8.68924 8.69109 8.99459 8.246C9.29122 7.79217 9.45679 7.26832 9.45679 6.72722C9.45679 6.00285 9.16896 5.31342 8.65422 4.7985C8.13949 4.28359 7.45031 4.00417 6.72619 4.00417ZM6.72619 8.36787C6.40339 8.36787 6.08929 8.27203 5.81883 8.08875C5.54838 7.90547 5.33905 7.65252 5.21691 7.35578C5.09477 7.05033 5.05978 6.72712 5.12085 6.40421C5.18192 6.09002 5.33896 5.80205 5.5658 5.56641C5.80135 5.3395 6.08922 5.18261 6.40329 5.12152C6.72609 5.06043 7.04897 5.09522 7.35432 5.2174C7.65094 5.33958 7.90402 5.54899 8.08723 5.81954C8.27044 6.09009 8.36626 6.40431 8.36626 6.72722C8.36626 7.16359 8.19194 7.57385 7.88659 7.88804C7.57252 8.1935 7.16241 8.36787 6.72619 8.36787ZM13.2694 9.4588C13.8103 9.4588 14.3338 9.29317 14.7874 8.99643C15.2324 8.69098 15.5812 8.27214 15.7906 7.77468C15.9913 7.26849 16.0525 6.72734 15.9391 6.19497C15.8344 5.6626 15.5813 5.18251 15.1974 4.7985C14.8136 4.4145 14.3339 4.16132 13.8017 4.05659C13.2695 3.94313 12.7285 4.00416 12.2225 4.20489C11.7252 4.41434 11.3064 4.76335 11.001 5.20845C10.7044 5.66228 10.5473 6.18613 10.5473 6.72722C10.5473 7.4516 10.8266 8.14103 11.3414 8.65595C11.8561 9.17086 12.5453 9.4588 13.2694 9.4588ZM13.2694 5.0951C13.5922 5.0951 13.9063 5.18242 14.1768 5.3657C14.4472 5.54897 14.6565 5.80193 14.7787 6.09866C14.9008 6.40412 14.9358 6.72733 14.8747 7.05024C14.8137 7.36443 14.6566 7.6524 14.4298 7.88804C14.1942 8.11495 13.9064 8.27184 13.5923 8.33293C13.2695 8.39402 12.9466 8.35923 12.6413 8.23705C12.3447 8.11486 12.0916 7.90546 11.9084 7.63491C11.7252 7.36436 11.6379 7.05014 11.6379 6.72722C11.6379 6.29085 11.8037 5.8806 12.109 5.56641C12.4231 5.26095 12.8332 5.0951 13.2694 5.0951ZM6.72619 10.5497C6.18529 10.5497 5.66184 10.7068 5.20818 11.0036C4.76324 11.309 4.41435 11.7279 4.20497 12.2253C4.00431 12.7315 3.9431 13.2727 4.05651 13.805C4.1612 14.3374 4.41429 14.8175 4.79816 15.2015C5.18203 15.5855 5.66174 15.8387 6.19392 15.9434C6.7261 16.0569 7.26706 15.9958 7.77306 15.7951C8.27035 15.5857 8.68924 15.2366 8.99459 14.7915C9.29122 14.3377 9.45679 13.8139 9.45679 13.2728C9.45679 12.5484 9.16896 11.859 8.65422 11.3441C8.13949 10.8291 7.45031 10.5497 6.72619 10.5497ZM6.72619 14.9134C6.40339 14.9134 6.08929 14.8176 5.81883 14.6343C5.54838 14.451 5.33905 14.1981 5.21691 13.9013C5.09477 13.5959 5.05978 13.2727 5.12085 12.9498C5.18192 12.6356 5.33896 12.3476 5.5658 12.112C5.80135 11.8851 6.08922 11.7282 6.40329 11.6671C6.72609 11.606 7.04897 11.6408 7.35432 11.763C7.65094 11.8851 7.90402 12.0945 8.08723 12.3651C8.27044 12.6356 8.36626 12.9499 8.36626 13.2728C8.36626 13.7091 8.19194 14.1194 7.88659 14.4336C7.57252 14.739 7.16241 14.9134 6.72619 14.9134ZM13.2694 10.5497C12.7285 10.5497 12.205 10.7068 11.7514 11.0036C11.3064 11.309 10.9576 11.7279 10.7482 12.2253C10.5475 12.7315 10.4863 13.2727 10.5997 13.805C10.7044 14.3374 10.9575 14.8175 11.3414 15.2015C11.7252 15.5855 12.2049 15.8387 12.7371 15.9434C13.2693 16.0569 13.8103 15.9958 14.3163 15.7951C14.8136 15.5857 15.2325 15.2366 15.5378 14.7915C15.8344 14.3377 16 13.8139 16 13.2728C16 12.5484 15.7122 11.859 15.1974 11.3441C14.6827 10.8291 13.9935 10.5497 13.2694 10.5497ZM13.2694 14.9134C12.9466 14.9134 12.6325 14.8176 12.362 14.6343C12.0916 14.451 11.8823 14.1981 11.7601 13.9013C11.638 13.5959 11.603 13.2727 11.6641 12.9498C11.7251 12.6356 11.8822 12.3476 12.109 12.112C12.3446 11.8851 12.6324 11.7282 12.9465 11.6671C13.2693 11.606 13.5922 11.6408 13.8975 11.763C14.1942 11.8851 14.4472 12.0945 14.6304 12.3651C14.8137 12.6356 14.9095 12.9499 14.9095 13.2728C14.9095 13.7091 14.7352 14.1194 14.4298 14.4336C14.1157 14.739 13.7056 14.9134 13.2694 14.9134Z" fill="black"/>
</svg>
