<svg width="355" height="75" viewBox="0 0 355 75" fill="none" xmlns="http://www.w3.org/2000/svg">
<g clip-path="url(#clip0_1_96)">
<mask id="mask0_1_96" style="mask-type:luminance" maskUnits="userSpaceOnUse" x="110" y="18" width="245" height="47">
<path d="M355 18.1741H110V64.4353H355V18.1741Z" fill="white"/>
</mask>
<g mask="url(#mask0_1_96)">
<path d="M217.566 54.6061H214.023V49.1365H217.566C219.76 49.1365 221.977 48.5914 223.404 47.0777C224.833 45.5637 225.372 43.2425 225.372 40.9213C225.372 38.6002 224.855 36.2789 223.404 34.7653C221.955 33.2517 219.76 32.7067 217.566 32.7067C215.37 32.7067 213.155 33.2517 211.726 34.7653C210.297 36.2789 209.758 38.6002 209.758 40.9213V63.3867H203.544V27.2568H209.758V29.5576H210.897C211.021 29.4164 211.145 29.2956 211.269 29.1743C212.823 27.7615 215.205 27.2568 217.544 27.2568C221.211 27.2568 224.875 28.1653 227.278 30.6883C229.68 33.211 230.53 37.0866 230.53 40.9416C230.53 44.7969 229.66 48.6521 227.278 51.195C224.897 53.7384 221.211 54.6061 217.566 54.6061Z" fill="#4D6BFE"/>
<path d="M123.005 28.226H126.547V33.6958H123.005C120.81 33.6958 118.594 34.2407 117.165 35.7544C115.736 37.2685 115.198 39.5896 115.198 41.9109C115.198 44.2321 115.716 46.5532 117.165 48.0668C118.615 49.581 120.81 50.1259 123.005 50.1259C125.2 50.1259 127.416 49.581 128.845 48.0668C130.274 46.5532 130.813 44.2321 130.813 41.9109V19.4257H137.026V55.5754H130.813V53.2746H129.674C129.549 53.4157 129.425 53.537 129.301 53.658C127.748 55.0706 125.366 55.5754 123.026 55.5754C119.36 55.5754 115.695 54.6673 113.293 52.1444C110.89 49.6212 110.041 45.7457 110.041 41.8905C110.041 38.0354 110.911 34.1802 113.293 31.6371C115.695 29.1142 119.36 28.226 123.005 28.226Z" fill="#4D6BFE"/>
<path d="M168.194 41.4266V43.6264H151.647V39.2466H162.623C162.374 37.6519 161.794 36.1582 160.759 35.0682C159.268 33.494 156.969 32.929 154.691 32.929C152.413 32.929 150.114 33.494 148.623 35.0682C147.132 36.6426 146.594 39.0447 146.594 41.4266C146.594 43.8079 147.132 46.2301 148.623 47.7845C150.114 49.3384 152.413 49.9241 154.691 49.9241C156.969 49.9241 159.268 49.3587 160.759 47.7845C160.966 47.5622 161.152 47.3201 161.339 47.0778H167.469C166.93 48.9753 166.081 50.691 164.797 52.0231C162.312 54.6267 158.481 55.5755 154.691 55.5755C150.901 55.5755 147.07 54.647 144.585 52.0231C142.1 49.3991 141.188 45.4026 141.188 41.4266C141.188 37.4501 142.079 33.4333 144.585 30.8296C147.091 28.226 150.901 27.2772 154.691 27.2772C158.481 27.2772 162.312 28.2057 164.797 30.8296C167.303 33.4536 168.194 37.4501 168.194 41.4266Z" fill="#4D6BFE"/>
<path d="M199.383 41.4266V43.6264H182.836V39.2466H193.812C193.562 37.6519 192.983 36.1582 191.948 35.0682C190.457 33.494 188.157 32.929 185.88 32.929C183.602 32.929 181.303 33.494 179.812 35.0682C178.321 36.6426 177.782 39.0447 177.782 41.4266C177.782 43.8079 178.321 46.2301 179.812 47.7845C181.303 49.3384 183.602 49.9241 185.88 49.9241C188.157 49.9241 190.457 49.3587 191.948 47.7845C192.155 47.5622 192.341 47.3201 192.527 47.0778H198.658C198.119 48.9753 197.269 50.691 195.985 52.0231C193.5 54.6267 189.67 55.5755 185.88 55.5755C182.09 55.5755 178.258 54.647 175.773 52.0231C173.288 49.3991 172.377 45.4026 172.377 41.4266C172.377 37.4501 173.267 33.4333 175.773 30.8296C178.279 28.226 182.09 27.2772 185.88 27.2772C189.67 27.2772 193.5 28.2057 195.985 30.8296C198.492 33.4536 199.383 37.4501 199.383 41.4266Z" fill="#4D6BFE"/>
<path d="M248.236 55.5755C252.027 55.5755 255.857 55.0304 258.342 53.4765C260.827 51.9221 261.739 49.5607 261.739 47.2191C261.739 44.878 260.847 42.4961 258.342 40.9622C255.857 39.4281 252.027 38.8629 248.236 38.8629C246.62 38.8629 245.129 38.6409 244.073 38.0557C243.017 37.4501 242.624 36.5416 242.624 35.6336C242.624 34.7251 242.997 33.7968 244.073 33.2115C245.129 32.6058 246.765 32.404 248.38 32.404C249.997 32.404 251.632 32.6261 252.689 33.2115C253.745 33.8172 254.138 34.7251 254.138 35.6336H260.454C260.454 33.292 259.647 30.9103 257.39 29.3767C255.132 27.8426 251.673 27.2772 248.236 27.2772C244.797 27.2772 241.34 27.8223 239.083 29.3767C236.825 30.9306 236.017 33.292 236.017 35.6336C236.017 37.9747 236.825 40.3565 239.083 41.8905C241.34 43.4246 244.797 43.9898 248.236 43.9898C250.017 43.9898 251.985 44.2118 253.164 44.7969C254.346 45.3827 254.759 46.3111 254.759 47.2191C254.759 48.1276 254.346 49.0558 253.164 49.6412C251.985 50.2266 250.182 50.4487 248.402 50.4487C246.62 50.4487 244.797 50.2266 243.638 49.6412C242.478 49.0558 242.043 48.1276 242.043 47.2191H234.754C234.754 49.5607 235.644 51.9424 238.151 53.4765C240.656 55.0104 244.446 55.5755 248.236 55.5755Z" fill="#4D6BFE"/>
<path d="M292.926 41.4266V43.6264H276.38V39.2466H287.356C287.108 37.6519 286.527 36.1582 285.493 35.0682C284 33.494 281.703 32.929 279.424 32.929C277.146 32.929 274.847 33.494 273.356 35.0682C271.865 36.6426 271.328 39.0447 271.328 41.4266C271.328 43.8079 271.865 46.2301 273.356 47.7845C274.847 49.3384 277.146 49.9241 279.424 49.9241C281.703 49.9241 284 49.3587 285.493 47.7845C285.699 47.5622 285.886 47.3201 286.072 47.0778H292.202C291.663 48.9753 290.814 50.691 289.531 52.0231C287.046 54.6267 283.214 55.5755 279.424 55.5755C275.635 55.5755 271.803 54.647 269.318 52.0231C266.833 49.3991 265.923 45.4026 265.923 41.4266C265.923 37.4501 266.813 33.4333 269.318 30.8296C271.825 28.226 275.635 27.2772 279.424 27.2772C283.214 27.2772 287.046 28.2057 289.531 30.8296C292.036 33.4536 292.926 37.4501 292.926 41.4266Z" fill="#4D6BFE"/>
<path d="M324.115 41.4266V43.6264H307.569V39.2466H318.545C318.297 37.6519 317.716 36.1582 316.68 35.0682C315.189 33.494 312.892 32.929 310.613 32.929C308.335 32.929 306.036 33.494 304.545 35.0682C303.054 36.6426 302.515 39.0447 302.515 41.4266C302.515 43.8079 303.054 46.2301 304.545 47.7845C306.036 49.3384 308.335 49.9241 310.613 49.9241C312.892 49.9241 315.189 49.3587 316.68 47.7845C316.888 47.5622 317.074 47.3201 317.261 47.0778H323.391C322.852 48.9753 322.003 50.691 320.72 52.0231C318.233 54.6267 314.403 55.5755 310.613 55.5755C306.822 55.5755 302.992 54.647 300.507 52.0231C298.022 49.3991 297.11 45.4026 297.11 41.4266C297.11 37.4501 298 33.4333 300.507 30.8296C303.012 28.226 306.822 27.2772 310.613 27.2772C314.403 27.2772 318.233 28.2057 320.72 30.8296C323.225 33.4536 324.115 37.4501 324.115 41.4266Z" fill="#4D6BFE"/>
<path d="M334.491 18.1741H328.278V55.5753H334.491V18.1741Z" fill="#4D6BFE"/>
<path d="M345.095 40.5783L355.282 55.5755H347.6L337.41 40.5783L347.6 28.5284H355.282L345.095 40.5783Z" fill="#4D6BFE"/>
</g>
<path d="M101.244 6.29462C100.16 5.76557 99.6932 6.77364 99.0595 7.28587C98.8427 7.45101 98.6594 7.66572 98.4759 7.86406C96.8918 9.54905 95.0411 10.6563 92.6233 10.5239C89.0884 10.3256 86.0703 11.4328 83.4024 14.1259C82.8355 10.805 80.9514 8.8221 78.0834 7.55017C76.5829 6.88919 75.0655 6.22822 74.0149 4.79072C73.2814 3.76671 73.0812 2.62671 72.7145 1.50309C72.4809 0.825728 72.2475 0.131546 71.4638 0.0159967C70.6135 -0.115933 70.2799 0.594187 69.9464 1.1892C68.6125 3.61796 68.0957 6.29462 68.1456 9.00406C68.2623 15.1007 70.8468 19.9579 75.9825 23.4111C76.5662 23.8077 76.7162 24.2039 76.5329 24.7825C76.1826 25.9721 75.7657 27.1285 75.399 28.3181C75.1655 29.0782 74.8152 29.2434 73.9983 28.9127C71.1804 27.74 68.7458 26.0049 66.5949 23.9069C62.9433 20.3876 59.6418 16.505 55.5234 13.4649C54.5562 12.7543 53.5891 12.0938 52.5886 11.4656C48.3866 7.40142 53.1389 4.06377 54.2394 3.66753C55.3898 3.25448 54.6396 1.83336 50.9212 1.85017C47.2028 1.86656 43.8013 3.10573 39.4661 4.75795C38.8326 5.00588 38.1654 5.1874 37.4818 5.33615C33.5467 4.59281 29.4615 4.42725 25.1929 4.9067C17.1559 5.79877 10.7366 9.58225 6.01773 16.0424C0.34841 23.8077 -0.985418 32.6301 0.648644 41.833C2.36604 51.5311 7.33489 59.5607 14.9716 65.8393C22.892 72.3486 32.0128 75.5376 42.4174 74.9261C48.7369 74.5627 55.7734 73.7202 63.7103 67.0289C65.711 68.0203 67.8121 68.4165 71.2971 68.7139C73.9816 68.9618 76.5662 68.582 78.5669 68.169C81.7017 67.508 81.485 64.6166 80.3512 64.088C71.1638 59.8254 73.1811 61.5601 71.3471 60.1557C76.0158 54.6541 83.0525 48.9372 85.8036 30.4161C86.0203 28.9459 85.837 28.0205 85.8036 26.8309C85.7869 26.1041 85.9536 25.8234 86.7874 25.7405C89.0884 25.4763 91.3227 24.8485 93.3737 23.725C99.3264 20.4868 101.727 15.1667 102.294 8.78934C102.378 7.81448 102.278 6.80641 101.244 6.29462ZM49.3704 63.6912C40.4665 56.7193 36.1481 54.4225 34.3638 54.5217C32.6964 54.6209 32.9966 56.5209 33.3632 57.7602C33.7468 58.9826 34.2471 59.8254 34.9472 60.8991C35.4308 61.6096 35.7645 62.6668 34.4639 63.4602C31.5959 65.228 26.6102 62.8652 26.3766 62.7497C20.5743 59.346 15.7221 54.8519 12.3037 48.7062C9.0023 42.791 7.08488 36.4469 6.76798 29.6728C6.68466 28.0374 7.16822 27.4587 8.80228 27.1617C10.9533 26.7651 13.1709 26.6822 15.3219 26.9961C24.4094 28.3181 32.146 32.3659 38.6323 38.7763C42.334 42.4276 45.1352 46.7896 48.02 51.0521C51.0879 55.5789 54.3894 59.8914 58.5913 63.427C60.0752 64.6661 61.2591 65.6077 62.3929 66.3019C58.9749 66.6818 53.2722 66.7647 49.3704 63.6912ZM53.639 36.3477C53.639 35.6207 54.2227 35.0426 54.9565 35.0426C55.1231 35.0426 55.2731 35.0752 55.4065 35.1249C55.59 35.1913 55.7568 35.2905 55.8901 35.4388C56.1236 35.6704 56.2569 36.0006 56.2569 36.3477C56.2569 37.0747 55.6734 37.6528 54.9398 37.6528C54.2059 37.6528 53.639 37.0747 53.639 36.3477ZM66.8951 43.1217C66.0447 43.4688 65.1943 43.7658 64.3773 43.799C63.11 43.865 61.7261 43.3527 60.9758 42.725C59.8087 41.7501 58.9749 41.2052 58.6247 39.5033C58.4746 38.7763 58.5578 37.6528 58.6915 37.0087C58.9915 35.6207 58.658 34.7287 57.6743 33.9189C56.8739 33.2579 55.8567 33.0764 54.7395 33.0764C54.3226 33.0764 53.9394 32.8945 53.6557 32.7458C53.1888 32.5146 52.8056 31.9365 53.1722 31.2258C53.2889 30.9948 53.856 30.433 53.9893 30.3338C55.5067 29.4745 57.2574 29.7555 58.8748 30.3998C60.3756 31.0111 61.5094 32.1347 63.1433 33.7207C64.8108 35.637 65.1108 36.1662 66.0613 37.6033C66.8119 38.7268 67.4955 39.8832 67.9622 41.2052C68.2457 42.0313 67.8789 42.7086 66.8951 43.1217Z" fill="#4D6BFE"/>
</g>
<defs>
<clipPath id="clip0_1_96">
<rect width="355" height="75" fill="white"/>
</clipPath>
</defs>
</svg>
