<svg width="252" height="68" viewBox="0 0 252 68" fill="none" xmlns="http://www.w3.org/2000/svg">
<g clip-path="url(#clip0_1_443)">
<path d="M30.6514 67.6628C29.987 68.0854 29.1678 68.108 28.4917 67.7474L1.03388 51.644C0.40888 51.2776 0 50.5878 0 49.8512V18.1517C0 17.3684 0.446848 16.7034 1.10106 16.3195L28.4274 0.295618C29.0458 -0.0671678 29.8709 -0.113885 30.5032 0.25693L57.961 16.3582C58.5867 16.7246 59 17.4122 59 18.1509V49.8147C59.0007 50.5856 58.5955 51.2754 57.9398 51.66L30.6522 67.6635L30.6514 67.6628ZM54.7257 48.6308L54.7601 48.5373L54.7586 19.3984L29.5015 4.58335L4.23994 19.3984V48.6074L29.5007 63.4203L54.7265 48.63L54.7257 48.6308Z" fill="#4859EC"/>
<path d="M31.6087 35.2601L31.6284 37.7018L31.6174 52.011L43.9116 44.7648C44.0328 44.6933 44.1941 44.6327 44.3372 44.5707C44.3263 46.1225 45.3295 47.5007 46.8102 47.9664L33.1062 56.0462C33.0441 56.0827 32.9784 56.0973 32.9149 56.098C33.2865 54.6965 32.7645 53.2103 31.5984 52.3497L31.616 52.0154C31.5086 52.0599 31.4086 52.111 31.3765 52.1986C30.2382 51.4855 28.7932 51.4789 27.6491 52.1826L27.3877 52.0067L27.3994 52.3512C26.2348 53.2118 25.7127 54.6965 26.0837 56.0958C26.0187 56.0958 25.9522 56.0812 25.8902 56.044L12.1854 47.9671C13.6712 47.5014 14.6766 46.1189 14.662 44.5619C14.7956 44.6254 14.9585 44.6889 15.084 44.7634L27.3848 52.0103L27.3687 37.7011L27.3921 35.2579C27.4045 35.2601 27.4695 35.2762 27.4914 35.2886L29.4971 36.4653L31.5685 35.255L31.6087 35.2601Z" fill="#C7CCF9"/>
<path d="M46.7526 20.0531C45.45 20.4874 44.5176 21.6363 44.3606 22.9999C44.2022 23.067 44.0715 23.1422 43.9094 23.24C44.0664 23.3459 44.1905 23.4218 44.338 23.4765C44.3628 24.6759 44.9944 25.781 46.0159 26.4109L45.9998 26.919C46.1736 26.8248 46.3035 26.7504 46.4437 26.6358C47.7076 27.1935 49.1803 26.9643 50.2142 26.0482L50.1967 41.9355C49.0313 40.9165 47.3381 40.7749 46.0195 41.5859L45.9888 41.0311L46.0034 26.9132L33.7706 34.0105L31.7875 35.1368C31.754 35.1558 31.6605 35.1835 31.6298 35.1915L31.6079 32.7681L31.6225 30.4103L31.5868 30.3702L31.6481 30.2928L43.9109 23.2408L31.624 16.0654C31.7642 16.1471 31.191 15.7792 31.34 15.8252C32.6652 15.0179 33.3084 13.4405 32.9258 11.9368C32.9791 11.9426 33.0427 11.9579 33.1003 11.9915L46.754 20.0523L46.7526 20.0531Z" fill="#C7CCF9"/>
<path d="M26.0742 11.9404C25.6916 13.4507 26.3436 15.0332 27.679 15.8354C27.5812 15.9201 27.4724 16.0077 27.3746 16.0654L15.0906 23.2408L27.3519 30.2928L27.4111 30.3695L27.3797 30.4089L27.3921 32.7637L27.3694 35.1871L25.2287 34.0112L12.9973 26.9146L13.0112 41.0581L12.9812 41.5873C11.6553 40.7713 9.95186 40.9187 8.78582 41.9509V26.0496C9.8197 26.9643 11.2917 27.1935 12.5541 26.6365C12.6965 26.7496 12.8191 26.8197 12.9995 26.9183L12.9798 26.4131C14.0056 25.7817 14.6394 24.6722 14.6613 23.4678C14.8139 23.416 14.9278 23.3481 15.0928 23.2422C14.9249 23.1408 14.7978 23.0678 14.6394 23.0013C14.4831 21.6393 13.5529 20.491 12.2525 20.0553C12.265 20.0195 12.3022 19.9721 12.3343 19.9531L25.8967 11.9988C25.9588 11.9623 26.0143 11.9462 26.0742 11.9404Z" fill="#C7CCF9"/>
<path d="M29.4993 16.3413C31.451 16.3413 33.0332 14.7595 33.0332 12.8083C33.0332 10.8571 31.451 9.27536 29.4993 9.27536C27.5476 9.27536 25.9654 10.8571 25.9654 12.8083C25.9654 14.7595 27.5476 16.3413 29.4993 16.3413Z" fill="#6D7AF0"/>
<path d="M47.8712 48.1299C49.8229 48.1299 51.405 46.5481 51.405 44.5969C51.405 42.6457 49.8229 41.064 47.8712 41.064C45.9194 41.064 44.3373 42.6457 44.3373 44.5969C44.3373 46.5481 45.9194 48.1299 47.8712 48.1299Z" fill="#6D7AF0"/>
<path d="M11.1281 48.1299C13.0798 48.1299 14.662 46.5481 14.662 44.5969C14.662 42.6457 13.0798 41.064 11.1281 41.064C9.17641 41.064 7.59423 42.6457 7.59423 44.5969C7.59423 46.5481 9.17641 48.1299 11.1281 48.1299Z" fill="#6D7AF0"/>
<path d="M11.1289 26.9372C13.0806 26.9372 14.6627 25.3555 14.6627 23.4043C14.6627 21.4531 13.0806 19.8713 11.1289 19.8713C9.17713 19.8713 7.59495 21.4531 7.59495 23.4043C7.59495 25.3555 9.17713 26.9372 11.1289 26.9372Z" fill="#6D7AF0"/>
<path d="M47.8712 26.9372C49.8229 26.9372 51.405 25.3555 51.405 23.4043C51.405 21.4531 49.8229 19.8713 47.8712 19.8713C45.9194 19.8713 44.3373 21.4531 44.3373 23.4043C44.3373 25.3555 45.9194 26.9372 47.8712 26.9372Z" fill="#6D7AF0"/>
<path d="M29.4993 58.7251C31.451 58.7251 33.0332 57.1434 33.0332 55.1922C33.0332 53.241 31.451 51.6592 29.4993 51.6592C27.5476 51.6592 25.9654 53.241 25.9654 55.1922C25.9654 57.1434 27.5476 58.7251 29.4993 58.7251Z" fill="#6D7AF0"/>
<path d="M27.3687 35.1879L27.3928 35.2594L27.3694 37.7026C27.3256 37.7164 27.2738 37.7332 27.2139 37.7675L15.0848 44.7641C14.9592 44.6896 14.7964 44.6261 14.6627 44.5626C14.6511 43.348 14.0166 42.2253 12.982 41.5881L13.0119 41.0589L25.2287 34.0112L27.3694 35.1871L27.3687 35.1879Z" fill="#F0F2FD"/>
<path d="M33.7699 34.0119L45.8202 40.9742C45.8837 41.0107 45.9421 41.0253 45.9881 41.0326L46.0188 41.5874C44.9812 42.2253 44.3453 43.3531 44.3365 44.5714C44.1927 44.6334 44.0313 44.694 43.9109 44.7656L31.7824 37.7661C31.7226 37.7318 31.6714 37.715 31.6284 37.7018L31.6087 35.2601L31.6291 35.1923C31.6598 35.1842 31.7532 35.1572 31.7868 35.1375L33.7699 34.0119Z" fill="#F0F2FD"/>
<path d="M29.565 31.544L31.6079 32.7681L31.6298 35.1915L31.6087 35.2601L31.5692 35.2558L29.4978 36.466L27.4921 35.2893C27.4702 35.2762 27.4052 35.2609 27.3928 35.2594L27.3687 35.1879L27.3921 32.7637L29.4591 31.5425H29.5643L29.565 31.544Z" fill="#6D7AF0"/>
<path d="M27.6491 52.1826C27.5637 52.2351 27.4804 52.2913 27.3994 52.3512L27.3877 52.0067L27.6491 52.1826Z" fill="#A0A9F5"/>
<path d="M31.5984 52.3497C31.5261 52.2964 31.4524 52.2461 31.3765 52.1986C31.4086 52.111 31.5086 52.0599 31.616 52.0154L31.5984 52.3497Z" fill="#A0A9F5"/>
<path d="M31.3385 15.8252C31.1903 15.7792 31.7627 16.1471 31.6225 16.0654L31.6203 30.2468L31.6466 30.2936L31.5853 30.3709L29.6679 31.4549C29.6343 31.4739 29.584 31.5228 29.5643 31.5447H29.4591L27.4103 30.3709L27.3512 30.2943L27.3804 30.2483L27.3746 16.0654C27.4724 16.0077 27.5812 15.9201 27.679 15.8354C28.8056 16.5128 30.2155 16.5092 31.3385 15.8252Z" fill="#F0F2FD"/>
<path d="M31.5853 30.3709L31.6211 30.4111L31.6065 32.7688L29.5635 31.544C29.5825 31.5221 29.6336 31.4739 29.6672 31.4542L31.5846 30.3702L31.5853 30.3709Z" fill="#BDC4F8"/>
<path d="M46.4437 26.6358C46.3035 26.7504 46.1736 26.8248 45.9998 26.919L46.0159 26.4109C46.1531 26.4956 46.2962 26.5708 46.4437 26.6358Z" fill="#A0A9F5"/>
<path d="M44.3606 22.9999C44.3424 23.1583 44.3351 23.3174 44.338 23.4765C44.1905 23.4218 44.0664 23.3459 43.9094 23.24C44.0715 23.1422 44.2022 23.067 44.3606 22.9999Z" fill="#A0A9F5"/>
<path d="M29.4591 31.5447L27.3921 32.7652L27.3797 30.4089L27.4103 30.3709L29.4591 31.5447Z" fill="#BDC4F8"/>
<path d="M12.9805 26.4139L13.0002 26.919C12.8199 26.8204 12.6979 26.7504 12.5548 26.6372C12.7016 26.5723 12.844 26.4978 12.9805 26.4139Z" fill="#A0A9F5"/>
<path d="M14.662 23.4685C14.6649 23.3123 14.6576 23.1568 14.6394 23.0013C14.7978 23.0678 14.9249 23.1408 15.0928 23.2422C14.9278 23.3481 14.8139 23.416 14.6613 23.4678L14.662 23.4685Z" fill="#A0A9F5"/>
</g>
<path d="M81.7965 46.0001V20.5455H97.5813V23.8516H85.6371V31.6073H96.4503V34.901H85.6371V46.0001H81.7965Z" fill="white"/>
<path d="M107.493 46.4227C106.284 46.4227 105.19 46.1989 104.212 45.7515C103.234 45.2958 102.46 44.637 101.888 43.7753C101.325 42.9135 101.043 41.8571 101.043 40.6059C101.043 39.5287 101.25 38.6421 101.664 37.9461C102.079 37.2501 102.638 36.699 103.342 36.293C104.046 35.887 104.834 35.5804 105.704 35.3733C106.574 35.1661 107.46 35.0087 108.363 34.901C109.507 34.7684 110.435 34.6607 111.148 34.5778C111.86 34.4867 112.378 34.3417 112.701 34.1428C113.024 33.944 113.186 33.6208 113.186 33.1734V33.0864C113.186 32.0009 112.879 31.1599 112.266 30.5633C111.661 29.9667 110.758 29.6684 109.557 29.6684C108.305 29.6684 107.319 29.946 106.599 30.5011C105.886 31.048 105.393 31.657 105.119 32.3282L101.627 31.5327C102.041 30.3727 102.646 29.4364 103.442 28.7238C104.245 28.0029 105.169 27.4809 106.213 27.1577C107.257 26.8263 108.355 26.6606 109.507 26.6606C110.269 26.6606 111.077 26.7517 111.931 26.934C112.792 27.108 113.596 27.4312 114.342 27.9035C115.096 28.3758 115.713 29.0511 116.194 29.9294C116.674 30.7994 116.915 31.9305 116.915 33.3225V46.0001H113.285V43.39H113.136C112.896 43.8706 112.535 44.3429 112.055 44.8069C111.574 45.2709 110.957 45.6562 110.203 45.9628C109.449 46.2694 108.546 46.4227 107.493 46.4227ZM108.301 43.4397C109.329 43.4397 110.207 43.2367 110.936 42.8307C111.674 42.4247 112.233 41.8944 112.614 41.2398C113.004 40.5769 113.198 39.8684 113.198 39.1144V36.6535C113.066 36.7861 112.809 36.9103 112.428 37.0263C112.055 37.1341 111.628 37.2294 111.148 37.3122C110.667 37.3868 110.199 37.4572 109.743 37.5235C109.287 37.5815 108.906 37.6312 108.6 37.6727C107.879 37.7638 107.22 37.9171 106.623 38.1325C106.035 38.348 105.563 38.6587 105.207 39.0647C104.858 39.4624 104.684 39.9927 104.684 40.6556C104.684 41.5754 105.024 42.2714 105.704 42.7437C106.383 43.2077 107.249 43.4397 108.301 43.4397Z" fill="white"/>
<path d="M129.906 46.3854C128.058 46.3854 126.467 45.9669 125.133 45.13C123.808 44.2849 122.788 43.1207 122.076 41.6375C121.363 40.1543 121.007 38.4557 121.007 36.5416C121.007 34.6027 121.371 32.8916 122.101 31.4084C122.83 29.917 123.857 28.7528 125.183 27.9159C126.509 27.079 128.071 26.6606 129.869 26.6606C131.319 26.6606 132.611 26.9299 133.747 27.4685C134.882 27.9988 135.797 28.7445 136.493 29.7057C137.198 30.6669 137.616 31.7896 137.749 33.0739H134.132C133.933 32.179 133.477 31.4084 132.765 30.7621C132.06 30.1158 131.116 29.7927 129.931 29.7927C128.895 29.7927 127.988 30.0661 127.209 30.613C126.438 31.1516 125.838 31.9222 125.407 32.9248C124.976 33.9191 124.76 35.0957 124.76 36.4546C124.76 37.8467 124.972 39.0481 125.394 40.059C125.817 41.0699 126.413 41.8529 127.184 42.4081C127.963 42.9633 128.879 43.2408 129.931 43.2408C130.635 43.2408 131.273 43.1124 131.845 42.8555C132.425 42.5904 132.91 42.2134 133.299 41.7245C133.697 41.2356 133.974 40.6473 134.132 39.9596H137.749C137.616 41.1942 137.214 42.2962 136.543 43.2657C135.872 44.2352 134.973 44.9975 133.846 45.5526C132.727 46.1078 131.414 46.3854 129.906 46.3854Z" fill="white"/>
<path d="M149.951 46.3854C148.07 46.3854 146.45 45.9835 145.091 45.1798C143.74 44.3677 142.696 43.2284 141.959 41.7618C141.23 40.2869 140.865 38.5593 140.865 36.5789C140.865 34.6234 141.23 32.8999 141.959 31.4084C142.696 29.917 143.724 28.7528 145.041 27.9159C146.367 27.079 147.917 26.6606 149.69 26.6606C150.767 26.6606 151.811 26.8387 152.822 27.195C153.833 27.5513 154.74 28.1106 155.544 28.8729C156.348 29.6352 156.981 30.6254 157.445 31.8435C157.91 33.0532 158.142 34.524 158.142 36.2557V37.5732H142.966V34.7891H154.5C154.5 33.8114 154.301 32.9455 153.903 32.1915C153.506 31.4292 152.946 30.8284 152.225 30.3893C151.513 29.9501 150.676 29.7305 149.715 29.7305C148.671 29.7305 147.759 29.9874 146.98 30.5011C146.21 31.0066 145.613 31.6695 145.191 32.4898C144.776 33.3018 144.569 34.1843 144.569 35.1371V37.3122C144.569 38.5883 144.793 39.6737 145.24 40.5686C145.696 41.4635 146.33 42.1471 147.142 42.6194C147.954 43.0834 148.903 43.3154 149.988 43.3154C150.692 43.3154 151.335 43.216 151.915 43.0171C152.495 42.81 152.996 42.5034 153.419 42.0974C153.841 41.6914 154.164 41.1901 154.388 40.5935L157.905 41.2273C157.624 42.2631 157.118 43.1704 156.389 43.9493C155.668 44.7199 154.761 45.3206 153.667 45.7515C152.582 46.1741 151.343 46.3854 149.951 46.3854Z" fill="white"/>
<path d="M176.446 27.2323C176.314 26.0557 175.767 25.1442 174.806 24.4979C173.844 23.8433 172.635 23.516 171.176 23.516C170.132 23.516 169.229 23.6818 168.467 24.0132C167.705 24.3364 167.112 24.7838 166.69 25.3555C166.275 25.919 166.068 26.5611 166.068 27.282C166.068 27.8869 166.209 28.4089 166.491 28.8481C166.781 29.2872 167.158 29.656 167.622 29.9543C168.094 30.2443 168.599 30.4887 169.138 30.6876C169.677 30.8781 170.195 31.0356 170.692 31.1599L173.177 31.8062C173.99 32.005 174.822 32.2743 175.676 32.6141C176.529 32.9538 177.32 33.4012 178.05 33.9564C178.779 34.5115 179.367 35.1993 179.815 36.0196C180.27 36.8399 180.498 37.8218 180.498 38.9653C180.498 40.407 180.125 41.6872 179.38 42.8058C178.642 43.9244 177.569 44.8069 176.16 45.4532C174.76 46.0995 173.066 46.4227 171.077 46.4227C169.171 46.4227 167.522 46.1202 166.13 45.5153C164.738 44.9105 163.649 44.0529 162.861 42.9425C162.074 41.8239 161.639 40.4982 161.556 38.9653H165.409C165.484 39.885 165.782 40.6515 166.304 41.2646C166.835 41.8695 167.51 42.3211 168.33 42.6194C169.159 42.9094 170.066 43.0544 171.052 43.0544C172.138 43.0544 173.103 42.8845 173.948 42.5448C174.802 42.1968 175.473 41.7162 175.962 41.1031C176.45 40.4816 176.695 39.7566 176.695 38.928C176.695 38.174 176.479 37.5566 176.049 37.0761C175.626 36.5955 175.05 36.1977 174.321 35.8829C173.6 35.568 172.784 35.2904 171.872 35.0501L168.865 34.2298C166.826 33.6747 165.211 32.8585 164.017 31.7813C162.832 30.7041 162.24 29.2789 162.24 27.5057C162.24 26.0391 162.638 24.7589 163.433 23.6652C164.229 22.5714 165.306 21.7221 166.665 21.1173C168.024 20.5041 169.556 20.1975 171.263 20.1975C172.987 20.1975 174.507 20.4999 175.825 21.1048C177.151 21.7097 178.195 22.5424 178.957 23.603C179.719 24.6554 180.117 25.8651 180.15 27.2323H176.446Z" fill="white"/>
<path d="M188.928 46.0001L183.31 26.9092H187.151L190.892 40.929H191.078L194.832 26.9092H198.672L202.401 40.8669H202.588L206.304 26.9092H210.144L204.539 46.0001H200.748L196.87 32.2163H196.584L192.707 46.0001H188.928Z" fill="white"/>
<path d="M219.227 46.4227C218.017 46.4227 216.923 46.1989 215.946 45.7515C214.968 45.2958 214.193 44.637 213.621 43.7753C213.058 42.9135 212.776 41.8571 212.776 40.6059C212.776 39.5287 212.983 38.6421 213.398 37.9461C213.812 37.2501 214.371 36.699 215.076 36.293C215.78 35.887 216.567 35.5804 217.437 35.3733C218.307 35.1661 219.194 35.0087 220.097 34.901C221.24 34.7684 222.168 34.6607 222.881 34.5778C223.594 34.4867 224.111 34.3417 224.435 34.1428C224.758 33.944 224.919 33.6208 224.919 33.1734V33.0864C224.919 32.0009 224.613 31.1599 224 30.5633C223.395 29.9667 222.492 29.6684 221.29 29.6684C220.039 29.6684 219.053 29.946 218.332 30.5011C217.619 31.048 217.126 31.657 216.853 32.3282L213.36 31.5327C213.775 30.3727 214.38 29.4364 215.175 28.7238C215.979 28.0029 216.903 27.4809 217.947 27.1577C218.991 26.8263 220.089 26.6606 221.24 26.6606C222.003 26.6606 222.811 26.7517 223.664 26.934C224.526 27.108 225.329 27.4312 226.075 27.9035C226.829 28.3758 227.447 29.0511 227.927 29.9294C228.408 30.7994 228.648 31.9305 228.648 33.3225V46.0001H225.019V43.39H224.87C224.629 43.8706 224.269 44.3429 223.788 44.8069C223.308 45.2709 222.69 45.6562 221.936 45.9628C221.182 46.2694 220.279 46.4227 219.227 46.4227ZM220.035 43.4397C221.062 43.4397 221.94 43.2367 222.67 42.8307C223.407 42.4247 223.966 41.8944 224.348 41.2398C224.737 40.5769 224.932 39.8684 224.932 39.1144V36.6535C224.799 36.7861 224.542 36.9103 224.161 37.0263C223.788 37.1341 223.362 37.2294 222.881 37.3122C222.4 37.3868 221.932 37.4572 221.476 37.5235C221.021 37.5815 220.64 37.6312 220.333 37.6727C219.612 37.7638 218.953 37.9171 218.357 38.1325C217.769 38.348 217.296 38.6587 216.94 39.0647C216.592 39.4624 216.418 39.9927 216.418 40.6556C216.418 41.5754 216.758 42.2714 217.437 42.7437C218.117 43.2077 218.982 43.4397 220.035 43.4397Z" fill="white"/>
<path d="M233.598 53.1592V26.9092H237.227V30.004H237.538C237.753 29.6062 238.064 29.1464 238.47 28.6244C238.876 28.1023 239.439 27.6466 240.16 27.2572C240.881 26.8594 241.834 26.6606 243.019 26.6606C244.56 26.6606 245.936 27.05 247.145 27.8289C248.355 28.6078 249.304 29.7305 249.992 31.1972C250.688 32.6638 251.036 34.4287 251.036 36.4919C251.036 38.5551 250.692 40.3242 250.004 41.7991C249.316 43.2657 248.372 44.3967 247.17 45.1922C245.969 45.9794 244.597 46.3729 243.056 46.3729C241.896 46.3729 240.948 46.1782 240.21 45.7888C239.481 45.3993 238.909 44.9436 238.495 44.4216C238.081 43.8996 237.762 43.4356 237.538 43.0295H237.314V53.1592H233.598ZM237.24 36.4546C237.24 37.7969 237.434 38.9736 237.824 39.9844C238.213 40.9953 238.777 41.7866 239.514 42.3584C240.251 42.9218 241.155 43.2035 242.224 43.2035C243.334 43.2035 244.262 42.9094 245.008 42.3211C245.753 41.7245 246.317 40.9166 246.698 39.8974C247.087 38.8783 247.282 37.7307 247.282 36.4546C247.282 35.1951 247.092 34.0641 246.71 33.0615C246.338 32.0589 245.774 31.2676 245.02 30.6876C244.274 30.1075 243.342 29.8175 242.224 29.8175C241.146 29.8175 240.235 30.0951 239.489 30.6503C238.752 31.2054 238.192 31.9802 237.811 32.9745C237.43 33.9688 237.24 35.1289 237.24 36.4546Z" fill="white"/>
<defs>
<clipPath id="clip0_1_443">
<rect width="59" height="68" fill="white"/>
</clipPath>
</defs>
</svg>
