<svg width="242" height="54" viewBox="0 0 242 54" fill="none" xmlns="http://www.w3.org/2000/svg">
<path d="M218.925 7.24194V8.46066C217.07 8.46066 215.91 8.65331 215.445 9.0407C215.02 9.38831 215.079 10.006 215.619 10.896L237.719 44.1909C238.494 45.3133 239.112 46.0671 239.577 46.4524C240.079 46.8021 240.737 47.0136 241.549 47.0911V48.3098C240.698 48.2588 239.846 48.2204 238.994 48.1946C237.857 48.1144 236.717 48.0746 235.577 48.0753C233.99 48.0753 232.367 48.1151 230.704 48.1925C229.079 48.2302 227.86 48.27 227.048 48.3077V47.0911C228.905 47.0911 230.105 46.9738 230.646 46.7414C231.186 46.511 231.186 45.9666 230.646 45.1185L208.25 11.3609C207.517 10.2385 206.916 9.48464 206.453 9.09934C205.988 8.71194 205.312 8.49835 204.422 8.46066V7.24194C205.042 7.27964 205.911 7.33827 207.033 7.41575C208.193 7.45553 209.354 7.47438 210.514 7.47438C212.176 7.47438 213.724 7.45344 215.154 7.41575C216.624 7.33827 217.882 7.27964 218.925 7.24194ZM221.245 27.3131L221.363 27.7172C221.44 27.9497 221.518 28.201 221.593 28.4711L221.769 28.8208L215.039 38.5643C213.609 40.6541 212.836 42.3167 212.719 43.5543C212.641 44.7521 213.047 45.642 213.937 46.2221C214.865 46.7644 216.142 47.0722 217.765 47.1497V48.3098C217.128 48.2686 216.49 48.2497 215.851 48.2533C215.118 48.2135 214.365 48.1946 213.59 48.1946C212.837 48.1562 212.082 48.1367 211.328 48.136H209.527C208.522 48.136 207.576 48.1569 206.686 48.1946C205.798 48.1946 205.044 48.2323 204.424 48.3098V47.1497C205.702 46.8775 206.918 46.2598 208.078 45.2944C209.238 44.2893 210.417 42.9345 211.617 41.232L221.245 27.3131ZM239.865 7.24194V8.40203C238.668 8.63237 237.508 9.23335 236.385 10.2008C235.265 11.1661 234.161 12.4246 233.079 13.97L223.739 27.4283L223.509 26.6744L223.335 25.9206L229.772 16.6964C231.165 14.6862 231.977 13.0822 232.21 11.8823C232.482 10.6845 232.229 9.8134 231.456 9.27314C230.721 8.73079 229.542 8.43972 227.917 8.40203V7.24194C228.65 7.27964 229.425 7.31942 230.237 7.35711C231.05 7.35711 231.841 7.37805 232.616 7.41575H234.819C235.864 7.41575 236.81 7.39481 237.663 7.35711C238.55 7.31942 239.285 7.27964 239.865 7.24194ZM202.36 7.24194V8.40203C201.082 8.47951 200.117 8.71194 199.459 9.09724C198.802 9.48464 198.358 10.1233 198.125 11.0133C197.895 11.8634 197.778 13.0822 197.778 14.6673V31.4299C197.778 34.06 197.604 36.399 197.254 38.4491C196.907 40.4991 196.289 42.2602 195.399 43.726C194.432 45.351 193.001 46.666 191.106 47.6732C189.251 48.6386 187.027 49.1223 184.437 49.1223C182.579 49.1223 180.781 48.9087 179.041 48.4836C177.331 48.0745 175.754 47.2363 174.459 46.0483C173.356 45.0766 172.433 43.9184 171.732 42.6266C171.075 41.3891 170.631 39.9002 170.399 38.1601C170.168 36.3802 170.051 34.1961 170.051 31.6058V13.3879C170.051 11.9577 169.934 10.9128 169.703 10.2552C169.627 9.93375 169.469 9.63722 169.246 9.39384C169.022 9.15047 168.74 8.96835 168.426 8.86481C167.768 8.59258 166.782 8.43763 165.467 8.39993V7.24194C166.357 7.27964 167.498 7.31942 168.891 7.35711C171.868 7.43532 174.847 7.43532 177.824 7.35711C179.292 7.31942 180.492 7.27964 181.419 7.24194V8.40203C180.104 8.43972 179.099 8.59468 178.404 8.8669C178.086 8.97435 177.799 9.1568 177.566 9.39882C177.333 9.64084 177.163 9.93532 177.068 10.2573C176.838 10.9148 176.72 11.9598 176.72 13.39V33.4611C176.72 35.4337 176.819 37.2513 177.011 38.914C177.242 40.5766 177.65 42.0257 178.23 43.2632C178.848 44.4631 179.738 45.4096 180.898 46.1069C182.096 46.7644 183.641 47.0911 185.538 47.0911C188.399 47.0911 190.604 46.4545 192.151 45.1772C193.736 43.8621 194.838 42.0843 195.458 39.8416C196.115 37.5591 196.442 34.9688 196.442 32.0686V14.8977C196.442 13.235 196.289 11.9598 195.979 11.0698C195.669 10.1819 195.129 9.54117 194.354 9.15587C193.581 8.73079 192.48 8.47951 191.048 8.40203V7.24194C191.783 7.27964 192.731 7.31942 193.891 7.35711C195.051 7.3969 196.115 7.41575 197.081 7.41575C198.086 7.41575 199.053 7.39481 199.981 7.35711C200.948 7.31942 201.74 7.27964 202.36 7.24194ZM147.848 7.24194V8.40203C146.533 8.43972 145.528 8.59468 144.833 8.8669C144.515 8.97463 144.228 9.15721 143.996 9.39921C143.764 9.64122 143.593 9.93554 143.499 10.2573C143.266 10.9148 143.151 11.9598 143.151 13.39V42.3921C143.151 43.7092 143.248 44.6955 143.44 45.351C143.671 46.0085 144.098 46.4545 144.718 46.6869C145.373 46.8796 146.301 46.9759 147.5 46.9759H151.27C152.934 46.9759 154.327 46.7456 155.447 46.2807C156.575 45.8397 157.572 45.1208 158.347 44.1909C159.122 43.2632 159.721 42.0654 160.146 40.5954C160.571 39.1254 160.9 37.4042 161.13 35.4337H162.466C162.336 37.0545 162.278 38.6804 162.293 40.3065C162.293 41.0792 162.311 42.2204 162.349 43.7281C162.427 45.1981 162.544 46.7246 162.699 48.3098C160.476 48.2283 158.252 48.1899 156.027 48.1946C153.823 48.158 151.619 48.1385 149.414 48.136H145.995C144.602 48.136 143.095 48.1569 141.472 48.1946C139.885 48.1946 138.26 48.2135 136.597 48.2512C134.974 48.2512 133.408 48.2721 131.898 48.3098V47.1497C133.213 47.0722 134.201 46.9194 134.857 46.6869C135.171 46.5834 135.453 46.401 135.677 46.1572C135.901 45.9134 136.058 45.6164 136.134 45.2944C136.364 44.5971 136.482 43.5543 136.482 42.1618V13.39C136.482 11.9598 136.367 10.9148 136.134 10.2573C136.052 9.92917 135.886 9.62819 135.651 9.38428C135.417 9.14036 135.123 8.962 134.798 8.8669C134.143 8.59468 133.175 8.43972 131.9 8.40203V7.24194C132.788 7.27964 133.929 7.31942 135.322 7.35711C138.299 7.43532 141.278 7.43532 144.255 7.35711C145.723 7.31942 146.923 7.27964 147.85 7.24194H147.848ZM128.06 7.24194C127.908 8.74671 127.793 10.2548 127.712 11.765C127.679 12.8864 127.659 14.0082 127.653 15.1301C127.653 16.0201 127.674 16.8702 127.712 17.6848C127.75 18.4952 127.789 19.1925 127.827 19.7704H126.493C126.146 16.9477 125.662 14.7448 125.044 13.1575C124.464 11.5347 123.574 10.3725 122.374 9.67729C121.177 8.94438 119.455 8.57583 117.213 8.57583H114.139C112.901 8.57583 111.955 8.6931 111.297 8.92344C110.677 9.11818 110.252 9.54327 110.02 10.2008C109.789 10.8185 109.672 11.8048 109.672 13.1575V42.0466C109.672 43.4768 109.827 44.5594 110.137 45.2923C110.445 45.9896 111.025 46.4545 111.875 46.6869C112.727 46.9173 113.984 47.0534 115.646 47.0932V48.3098C114.295 48.2234 112.94 48.185 111.586 48.1946C109.923 48.1548 108.202 48.136 106.424 48.136C104.877 48.136 103.388 48.1569 101.958 48.1946C100.565 48.1946 99.3862 48.2323 98.4188 48.3098V47.1497C99.7339 47.0722 100.72 46.9194 101.378 46.6869C101.692 46.5834 101.974 46.401 102.198 46.1572C102.422 45.9134 102.579 45.6164 102.655 45.2944C102.885 44.5971 103.001 43.5543 103.001 42.1618V13.39C103.001 11.9598 102.885 10.9148 102.653 10.2573C102.571 9.92942 102.405 9.6286 102.171 9.38471C101.937 9.14082 101.643 8.96231 101.319 8.8669C100.662 8.59468 99.6941 8.43972 98.4188 8.40203V7.24194C99.9265 7.27964 101.493 7.31942 103.118 7.35711C104.78 7.35711 106.405 7.37805 107.991 7.41575H121.968C124.251 7.37805 126.28 7.31942 128.06 7.24194ZM119.185 27.5434V28.7035H107.932V27.5434H119.185ZM120.404 19.8877C120.272 21.5669 120.194 23.25 120.171 24.9343C120.209 26.0944 120.228 27.1581 120.228 28.1235C120.228 29.0909 120.249 30.1547 120.287 31.3148C120.326 32.4748 120.423 34.1563 120.578 36.3613H119.244C119.097 35.1285 118.864 33.9075 118.547 32.7073C118.237 31.5074 117.677 30.5421 116.865 29.8071C116.053 29.0721 114.834 28.7035 113.211 28.7035V27.5434C114.446 27.5434 115.414 27.2922 116.111 26.7896C116.844 26.287 117.405 25.6295 117.793 24.817C118.18 24.0045 118.45 23.1732 118.605 22.3251C118.783 21.5172 118.937 20.7044 119.068 19.8877H120.404Z" fill="black"/>
<path fill-rule="evenodd" clip-rule="evenodd" d="M0 53.9403L35.628 0L71.1966 53.9403H64.5723L35.625 10.0209L10.2968 48.3721H46.257L49.9325 53.9403H0Z" fill="black"/>
<path fill-rule="evenodd" clip-rule="evenodd" d="M23.9369 42.1958L30.0865 32.9551L36.2391 42.1958H23.9369ZM54.1094 53.9403L37.2951 28.1108H43.7533L60.6209 53.9403H54.1094ZM58.5592 27.2208L64.8779 17.7576L71.1966 27.2208H58.5592Z" fill="black"/>
</svg>
