<svg width="259" height="89" viewBox="0 0 259 89" fill="none" xmlns="http://www.w3.org/2000/svg">
<g clip-path="url(#clip0_1_111)">
<path d="M88.6073 0H0V89H88.6073V0Z" fill="#0A0A0A"/>
<path d="M56.9041 18.7818L20.9801 70.3107H31.7952L67.7193 18.7818H56.9041Z" fill="white"/>
<path d="M150.632 69.1624C147.69 70.1333 144.619 70.6526 141.523 70.7026C136.264 70.7026 131.635 69.6141 127.636 67.4371C123.772 65.3991 120.564 62.2998 118.387 58.5006C116.195 54.6137 115.072 50.2105 115.136 45.7436C115.136 40.2286 116.299 35.4502 118.625 31.4082C120.833 27.4823 124.099 24.262 128.048 22.118C132.042 19.9574 136.516 18.8489 141.052 18.8961C143.76 18.8806 146.458 19.2227 149.077 19.9138C151.436 20.5375 153.709 21.4515 155.844 22.6351L153.612 28.8721C151.833 27.9148 149.946 27.1731 147.993 26.6625C146.009 26.0724 143.955 25.7539 141.886 25.7155C138.289 25.6432 134.729 26.4618 131.521 28.0992C128.585 29.6226 126.167 31.9889 124.575 34.8968C122.891 38.0644 122.049 41.6149 122.131 45.2048C122.071 48.6123 122.914 51.9746 124.575 54.9467C126.187 57.7828 128.588 60.0847 131.483 61.5702C134.638 63.1792 138.138 63.9865 141.675 63.9213C143.41 63.9186 145.141 63.7362 146.839 63.3771C148.306 63.1029 149.721 62.5939 151.027 61.8695V51.8446H140.976V45.3136H157.865V65.7826C156.33 66.9981 153.923 68.1192 150.643 69.146L150.632 69.1624Z" fill="#0A0A0A"/>
<path d="M178.634 43.7843C179.928 42.6201 181.401 41.6736 182.996 40.9815C184.272 40.393 185.643 40.0373 187.044 39.9311L186.762 46.462C184.785 46.3422 182.815 46.7795 181.072 47.7246C179.411 48.6238 178.034 49.9717 177.095 51.616C176.156 53.221 175.662 55.0496 175.665 56.9114V70.1638H169.163V41.123H174.955L175.443 47.9913C176.2 46.3836 177.281 44.9511 178.618 43.7843H178.634Z" fill="#0A0A0A"/>
<path d="M193.708 47.5342C195.07 45.1844 197.05 43.2564 199.43 41.9611C201.966 40.5807 204.814 39.8797 207.699 39.9256C210.561 39.875 213.387 40.5767 215.897 41.9611C218.23 43.2557 220.161 45.1732 221.478 47.5015C222.819 49.8972 223.505 52.6067 223.466 55.3549C223.501 58.113 222.815 60.832 221.478 63.241C220.162 65.5909 218.215 67.522 215.859 68.814C213.315 70.1318 210.497 70.828 207.635 70.8459C204.773 70.8639 201.947 70.2031 199.387 68.9174C197.016 67.6795 195.044 65.7925 193.697 63.475C192.289 61.0024 191.578 58.1918 191.638 55.344C191.61 52.6 192.321 49.8995 193.697 47.5287L193.708 47.5342ZM199.43 60.4654C200.199 61.9612 201.356 63.2209 202.779 64.1118C204.57 65.2012 206.679 65.6424 208.755 65.3623C210.83 65.0821 212.748 64.0974 214.19 62.5716C215.968 60.6265 216.919 58.06 216.839 55.4202C216.914 52.7716 215.964 50.1968 214.19 48.2362C213.349 47.2921 212.315 46.5428 211.157 46.04C210 45.5373 208.748 45.2931 207.487 45.3245C205.805 45.2989 204.154 45.7742 202.741 46.6906C201.338 47.6088 200.195 48.8763 199.425 50.3697C198.622 51.9302 198.203 53.6611 198.203 55.4175C198.203 57.1739 198.622 58.9048 199.425 60.4654H199.43Z" fill="#0A0A0A"/>
<path d="M246.928 52.5466L257.602 43.9204L253.625 40.4209L238.692 52.4759V18.8961H232.201V70.142H238.692V59.2735L242.458 56.1931L251.393 70.142H259L246.928 52.5466Z" fill="#0A0A0A"/>
</g>
<defs>
<clipPath id="clip0_1_111">
<rect width="259" height="89" fill="white"/>
</clipPath>
</defs>
</svg>
