<svg width="246" height="53" viewBox="0 0 246 53" fill="none" xmlns="http://www.w3.org/2000/svg">
<path d="M52.3257 26.1629C52.3257 11.7145 40.5524 -0.0369765 26.0975 8.74342e-05C11.7515 0.0371514 0.0327909 11.7515 8.74342e-05 26.0975C-0.0369765 40.5524 11.7145 52.3257 26.1629 52.3257H43.354C45.7294 52.3257 48.0075 51.3821 49.6871 49.7024C51.3668 48.0228 52.3104 45.7447 52.3104 43.3693V27.035C52.3191 26.745 52.3257 26.455 52.3257 26.1629ZM12.7087 40.6919C8.54442 37.1382 5.9761 31.4478 6.09602 25.6483C6.10474 25.2428 6.12436 24.8373 6.16142 24.4318V24.4056C6.76535 17.4856 11.2348 11.0321 17.4986 8.03424C23.7646 5.03642 31.596 5.60983 37.3606 9.48192C43.1251 13.3562 46.6113 20.3918 46.2036 27.3249C46.1029 28.843 45.8628 30.3487 45.4863 31.8228C45.3424 32.4114 45.1658 33.0197 44.7494 33.4579C44.3351 33.8962 43.6069 34.1011 43.1142 33.7501C42.6433 33.4143 42.5735 32.7559 42.5342 32.1803C42.2072 27.5277 40.9645 22.729 37.8206 19.2842C35.4033 16.6691 32.1064 15.0374 28.5611 14.7014C25.016 14.3949 21.4777 15.3627 18.5822 17.431C16.1861 19.1469 14.3046 21.604 13.3933 24.4078C12.4863 27.2094 12.5778 30.3511 13.7748 33.0459C14.6618 35.0354 16.0991 36.7299 17.9172 37.9296C21.1156 40.0292 25.4935 40.3279 28.8184 38.431C32.1411 36.5342 34.1273 32.418 33.2813 28.6854C32.4332 24.9528 28.6505 22.0422 24.8438 22.4369C24.2639 22.4957 23.431 22.4325 23.4114 21.8482C23.394 21.3969 23.9369 21.1592 24.3816 21.0786C28.2428 20.3853 32.3831 22.3475 34.4979 25.6505C36.6193 28.9536 36.7261 33.3773 34.9972 36.9005C33.2661 40.4216 29.83 42.9943 26.019 43.9231C20.8802 45.1767 16.2276 43.6941 12.713 40.6919H12.7087Z" fill="url(#paint0_linear_1_385)"/>
<path fill-rule="evenodd" clip-rule="evenodd" d="M98.6105 46.0872V30.8585H84.593V46.0872H75.5814V9.09497H84.593V23.5853H98.6105V9.09303H107.622V46.0872H98.6105ZM112.312 31.3372C112.312 28.2461 112.891 25.5756 114.05 23.3256C115.209 21.0775 116.771 19.3392 118.74 18.1105C120.697 16.8836 122.964 16.2434 125.273 16.2655C127.452 16.2655 129.314 16.7054 130.86 17.5833C132.405 18.4612 133.566 19.5504 134.339 20.8508V16.6861H143.351V46.0911H134.339V41.9264C133.529 43.2287 132.353 44.3159 130.808 45.1938C129.26 46.0717 127.401 46.5116 125.221 46.5116C122.831 46.5116 120.663 45.8876 118.713 44.6415C116.764 43.3954 115.209 41.6376 114.05 39.3721C112.891 37.1047 112.312 34.4283 112.312 31.3353V31.3372ZM134.339 31.3895C134.339 29.0349 133.696 27.2345 132.415 25.9864C131.132 24.7403 129.63 24.1163 127.911 24.1163C126.192 24.1163 124.733 24.7326 123.432 25.9612C122.132 27.1899 121.483 28.9806 121.483 31.3353C121.483 33.6899 122.134 35.5 123.432 36.7636C124.731 38.0271 126.225 38.6609 127.911 38.6609C129.597 38.6609 131.134 38.0368 132.417 36.7907C133.698 35.5446 134.339 33.7442 134.339 31.3895ZM154.419 13.624C152.802 13.624 151.5 13.1531 150.517 12.2035C149.535 11.2539 149.043 10.1124 149.043 8.77714C149.043 7.43993 149.535 6.24807 150.517 5.29846C151.502 4.34884 152.802 3.87598 154.419 3.87598C156.035 3.87598 157.281 4.34884 158.266 5.29846C159.25 6.24807 159.742 7.40698 159.742 8.77714C159.742 10.1473 159.25 11.2539 158.266 12.2035C157.281 13.1531 155.998 13.624 154.419 13.624ZM149.884 46.0892V16.6861H158.895V46.0853H149.884V46.0892ZM165.422 46.0892V7.09303H174.434V46.0892H165.422ZM210.017 16.6841V46.0853H201.006V42.0814C200.128 43.345 198.917 44.3818 197.368 45.1899C195.822 45.9981 194.066 46.4012 192.099 46.4012C188.692 46.4012 185.942 45.2965 183.853 43.0814C181.762 40.8682 180.717 37.7926 180.717 33.8605V16.6841H189.676V32.6492C189.676 34.6531 190.194 36.1899 191.231 37.2616C192.267 38.3314 193.628 38.8702 195.316 38.8702C197.002 38.8702 198.457 38.3333 199.479 37.2616C200.498 36.1899 201.008 34.6531 201.008 32.6492V16.6861L210.017 16.6841ZM245.264 31.3895C245.264 34.4806 244.579 37.1589 243.209 39.4244C241.884 41.6499 239.968 43.465 237.674 44.6686C235.355 45.8973 232.754 46.5097 229.876 46.5097C226.996 46.5097 224.413 45.8973 222.13 44.6686C219.869 43.4592 217.989 41.6431 216.703 39.4244C215.366 37.157 214.7 34.4806 214.7 31.3895C214.7 28.2965 215.378 25.5756 216.729 23.3275C218.046 21.1119 219.953 19.3058 222.236 18.1105C224.556 16.8799 227.138 16.2655 229.981 16.2655C232.826 16.2655 235.452 16.8818 237.752 18.1105C240.024 19.3125 241.92 21.1168 243.235 23.3256C244.587 25.5737 245.264 28.2636 245.264 31.3895ZM223.868 31.3895C223.868 33.8488 224.463 35.6841 225.657 36.8954C226.851 38.1066 228.258 38.7132 229.874 38.7132C231.49 38.7132 232.93 38.1066 234.196 36.8954C235.463 35.6841 236.093 33.8488 236.093 31.3895C236.093 28.9283 235.469 27.0485 234.223 25.8547C232.975 24.6628 231.562 24.064 229.979 24.064C228.397 24.064 226.94 24.6628 225.709 25.8547C224.481 27.0504 223.868 28.8934 223.868 31.3895Z" fill="black"/>
<defs>
<linearGradient id="paint0_linear_1_385" x1="1.17523" y1="1.92741" x2="59.9281" y2="58.9143" gradientUnits="userSpaceOnUse">
<stop offset="0.09" stop-color="#FFAB0C"/>
<stop offset="0.31" stop-color="#FF5538"/>
<stop offset="0.46" stop-color="#E9405D"/>
<stop offset="0.75" stop-color="#D266DA"/>
<stop offset="0.89" stop-color="#D584EF"/>
</linearGradient>
</defs>
</svg>
