<svg width="250" height="54" viewBox="0 0 250 54" fill="none" xmlns="http://www.w3.org/2000/svg">
<g clip-path="url(#clip0_1_91)">
<path fill-rule="evenodd" clip-rule="evenodd" d="M183.135 32.0336C181.448 33.7089 179.232 34.5485 176.51 34.5485C173.764 34.5485 171.548 33.7089 169.885 32.0593C168.222 30.4085 167.39 28.251 167.39 25.6102C167.39 22.995 168.222 20.8607 169.909 19.161C171.597 17.4845 173.764 16.6462 176.459 16.6462C179.18 16.6462 181.397 17.4845 183.11 19.161C184.797 20.8607 185.656 23.0182 185.656 25.659C185.656 28.251 184.823 30.3827 183.135 32.0336ZM185.656 17.3315C183.362 14.6649 180.288 13.32 176.408 13.32C172.731 13.32 169.682 14.4875 167.29 16.8249C164.871 19.1855 163.663 22.1053 163.663 25.6102C163.663 29.088 164.871 31.9835 167.29 34.344C169.682 36.7072 172.705 37.8746 176.358 37.8746C180.162 37.899 183.21 36.6056 185.478 34.0393V36.3755C185.478 39.2195 184.647 41.3769 183.009 42.8246C181.372 44.2723 179.205 45.0103 176.51 45.0103C172.48 44.9833 169.33 43.4096 167.064 40.2596H166.761L164.494 42.1907V42.4954C165.779 44.2723 167.466 45.6943 169.583 46.7357C171.673 47.7772 173.991 48.285 176.509 48.285C180.087 48.285 183.084 47.2693 185.503 45.2379C187.895 43.2065 189.106 40.2107 189.106 36.2739V13.9539H185.656V17.3315ZM239.316 13.32C235.513 13.32 232.617 14.6649 230.651 17.3816V13.9539H227.199V39.9562H230.852V24.4672C230.852 22.1053 231.583 20.2012 233.07 18.7547C234.531 17.3057 236.42 16.5947 238.764 16.5947C241.055 16.5947 242.893 17.3057 244.228 18.729C245.565 20.1767 246.244 22.0796 246.244 24.4672V39.9562H249.897V24.0853C249.897 20.9122 248.94 18.3215 247.05 16.317C245.136 14.31 242.566 13.3213 239.315 13.3213L239.316 13.32ZM199.311 24.7205C199.638 22.2583 200.645 20.3027 202.283 18.8293C203.921 17.3816 205.936 16.6462 208.379 16.6462C211.176 16.6462 213.341 17.5346 214.929 19.3115C216.29 20.709 217.12 22.5116 217.423 24.7205H199.311ZM208.379 13.32C204.702 13.32 201.629 14.6405 199.158 17.2556C196.666 19.8707 195.431 23.1467 195.431 27.0566C195.431 31.1966 196.792 34.4713 199.487 36.909C202.182 39.3712 205.381 40.5913 209.059 40.5913C211.202 40.5913 213.318 40.158 215.432 39.2696C217.524 38.4082 219.186 37.1379 220.395 35.487V35.1836L218.179 33.3026H217.876C216.92 34.5485 215.61 35.5372 213.922 36.2237C212.233 36.909 210.571 37.2652 208.958 37.2652C206.415 37.2652 204.198 36.4513 202.333 34.8017C200.445 33.1766 199.412 30.9163 199.21 28.0466H221.026C221.102 27.5644 221.126 27.0322 221.126 26.4472C221.126 22.5617 219.842 19.3629 217.245 16.8249C214.879 14.4875 211.931 13.32 208.379 13.32ZM77.7768 5.95288C77.1225 5.95288 76.5663 6.1946 76.1084 6.65488C75.6694 7.10275 75.4232 7.70699 75.4232 8.3366C75.4232 8.96621 75.6694 9.57044 76.1084 10.0183C76.5676 10.4786 77.1225 10.719 77.7768 10.719C78.4324 10.719 78.9885 10.4786 79.4452 10.0183C79.8755 9.56589 80.1157 8.96336 80.1157 8.3366C80.1157 7.70983 79.8755 7.1073 79.4452 6.65488C79.2292 6.42959 78.9697 6.25121 78.6828 6.13071C78.3959 6.01021 78.0876 5.94884 77.7768 5.95288ZM75.9656 39.9562H79.5676V13.9539H75.9656V39.9562ZM154.162 30.3827C154.162 32.4399 153.282 34.0907 151.542 35.3584C149.779 36.63 147.788 37.2652 145.547 37.2652C143.557 37.2652 141.945 36.8074 140.76 35.8676C139.552 34.9534 138.946 33.7346 138.946 32.211C138.946 30.5615 139.603 29.2153 140.936 28.1739C142.272 27.1582 144.036 26.6503 146.227 26.6503C148.772 26.6503 151.417 27.3613 154.162 28.7833V30.3827ZM146.832 13.3213C145.043 13.3213 143.255 13.6492 141.441 14.31C139.605 14.9953 138.065 15.8593 136.83 16.9252V17.2299L138.444 19.5673H138.745C141.089 17.6105 143.784 16.6462 146.832 16.6462C149.048 16.6462 150.837 17.2299 152.173 18.423C153.508 19.6162 154.163 21.1925 154.163 23.1467V25.407C151.568 24.0853 148.898 23.427 146.177 23.427C142.903 23.427 140.256 24.2126 138.268 25.8133C136.251 27.4127 135.244 29.4943 135.244 32.1107C135.244 34.623 136.176 36.6802 138.017 38.2307C139.853 39.8045 142.247 40.5913 145.244 40.5913C148.848 40.5913 151.82 39.2195 154.162 36.477V39.9562H157.69V23.9336C157.69 17.154 153.86 13.32 146.832 13.32V13.3213ZM119.596 13.3213C115.263 13.3213 111.837 15.3527 110.125 18.7277C108.438 15.1226 105.389 13.32 101.031 13.32C97.3278 13.32 94.4554 14.6649 92.4158 17.3816V13.9539H88.9643V39.9562H92.6174V24.4672C92.6174 22.1053 93.3469 20.2012 94.8087 18.7547C96.2691 17.3057 98.1339 16.5947 100.402 16.5947C102.619 16.5947 104.356 17.3057 105.616 18.7033C106.849 20.124 107.48 22.0539 107.48 24.4672V39.9562H111.208V24.4672C111.208 22.1053 111.938 20.2012 113.399 18.7547C114.86 17.3057 116.724 16.5947 118.992 16.5947C121.184 16.5947 122.921 17.3057 124.18 18.7033C125.415 20.124 126.045 22.0539 126.045 24.4672V39.9562H129.723V24.0853C129.723 20.8607 128.816 18.2713 127.001 16.29C125.188 14.31 122.721 13.32 119.596 13.32V13.3213Z" fill="#2E2F2C"/>
<path fill-rule="evenodd" clip-rule="evenodd" d="M19.9745 26.217C20.1204 26.4015 20.1999 26.6304 20.1999 26.8663C20.1999 27.1022 20.1204 27.3311 19.9745 27.5156C18.3074 29.7823 14.8444 32.4952 10.6696 34.8094C10.4983 32.1716 10.4103 29.529 10.4056 26.8856V26.8316C10.4082 24.255 10.4949 21.6026 10.6658 18.9437C14.8623 21.2709 18.3278 23.976 19.9745 26.217ZM54.4643 23.8372C47.8227 14.8012 29.7653 3.98187 18.0574 0.347156C16.5612 -0.118273 15.2551 -0.0578445 14.1799 0.527156C12.8495 1.24716 12.2334 2.57144 11.949 3.5563C11.8916 3.76973 10.5128 8.88944 9.86608 17.8907L9.8648 17.9216C9.65408 20.8869 9.54772 23.8587 9.54592 26.8316V26.8856C9.54847 29.6422 9.64541 32.4592 9.83546 35.2594C7.7296 36.3729 5.73215 37.2304 4.0472 37.7409C3.5574 37.8977 3.30103 37.818 3.19261 37.7576C3.02679 37.665 2.90052 37.449 2.81761 37.1147C2.80613 37.0762 1.77679 33.2023 1.76914 26.8547C1.77552 20.6216 2.77169 16.785 2.81378 16.6294C2.87756 16.4096 3.00256 16.119 3.23725 15.9904C3.4324 15.885 3.71302 15.8876 4.07271 16.0007C4.86353 16.245 5.74108 16.5742 6.67985 16.9766C6.77987 17.0199 6.88741 17.0429 6.99626 17.044C7.10512 17.0452 7.21313 17.0247 7.31406 16.9836C7.41499 16.9424 7.50684 16.8816 7.58429 16.8044C7.66174 16.7273 7.72327 16.6355 7.76531 16.5343C7.80829 16.4333 7.83087 16.3246 7.83175 16.2147C7.83262 16.1047 7.81177 15.9957 7.77041 15.894C7.7301 15.7926 7.67023 15.7003 7.59425 15.6224C7.51827 15.5444 7.42771 15.4825 7.32781 15.4402C6.33801 15.0159 5.40689 14.6687 4.55995 14.4052C3.76021 14.157 3.05103 14.1956 2.45281 14.5209C1.86608 14.8397 1.44006 15.4106 1.22067 16.1756C1.17603 16.3402 0.121178 20.2603 0.113525 26.8792C0.119903 33.4363 1.1722 37.3809 1.21557 37.5416C1.41327 38.3259 1.8074 38.8916 2.38648 39.2156C2.80358 39.4496 3.52041 39.6592 4.5625 39.3262C9.90051 37.7074 18.1939 32.7382 21.3036 28.5094C21.6862 27.9874 21.8712 27.4346 21.852 26.8856C21.8776 26.3134 21.6939 25.7542 21.3036 25.2244C19.5434 22.8304 15.9056 19.9607 11.5549 17.5333C12.2028 9.02058 13.5293 4.05773 13.5421 4.01144C13.736 3.33901 14.1416 2.44287 14.963 1.99544C15.6339 1.6303 16.5115 1.6123 17.5689 1.94144C29.0306 5.5003 46.676 16.0457 53.1327 24.8297C53.6173 25.4906 53.8367 26.1437 53.8202 26.8959C53.8265 27.6082 53.6084 28.2407 53.1327 28.8862C46.5816 37.8 28.9311 48.33 17.5217 51.7912C16.1569 52.2257 15.3163 52.0072 14.852 51.7462C14.2398 51.4029 13.7998 50.7214 13.5472 49.7173C13.5089 49.5759 12.611 46.1559 11.9452 40.32C11.926 40.1564 11.8593 40.0021 11.7534 39.8765C11.6475 39.751 11.5071 39.6598 11.3499 39.6145C11.1927 39.5691 11.0258 39.5716 10.87 39.6217C10.7143 39.6717 10.5766 39.7671 10.4745 39.8957C10.4065 39.9816 10.3561 40.0803 10.3263 40.1861C10.2965 40.2918 10.2879 40.4025 10.301 40.5116C10.9936 46.593 11.9082 50.0053 11.9464 50.1442C12.3125 51.5983 13.0191 52.6282 14.0472 53.2042C14.5077 53.4639 15.1786 53.7017 16.0842 53.7017C16.6518 53.7017 17.3125 53.6079 18.0714 53.3662C29.6913 49.842 47.7245 39.0484 54.4643 29.88C55.1607 28.9324 55.5102 27.8846 55.4758 26.8612C55.5013 25.8017 55.1607 24.7847 54.4643 23.8372Z" fill="#D52265"/>
</g>
<defs>
<clipPath id="clip0_1_91">
<rect width="250" height="54" fill="white"/>
</clipPath>
</defs>
</svg>
