<svg width="282" height="68" viewBox="0 0 282 68" fill="none" xmlns="http://www.w3.org/2000/svg">
<path d="M15.8601 38.9002C17.347 34.3548 19.3094 29.979 21.7149 25.8456C31.0041 9.7522 44.5568 0.184678 51.9852 4.47175C35.2765 -5.17489 13.4748 1.30113 3.28902 18.9417C2.07336 21.0464 1.05606 23.2595 0.25027 25.5525C-0.508685 27.718 0.51986 30.0477 2.50662 31.1963L15.8601 38.9031V38.9002Z" fill="url(#paint0_radial_1_377)"/>
<path d="M54.4701 28.3188C52.9824 32.8643 51.019 37.2401 48.6124 41.3734C39.3233 57.4667 25.7705 67.0372 18.3421 62.7472C35.0538 72.3968 56.8554 65.9178 67.0412 48.2772C68.2565 46.1734 69.2738 43.9613 70.08 41.6693C70.8389 39.5068 69.8104 37.1742 67.8236 36.0285L54.4701 28.3217V28.3188Z" fill="url(#paint1_radial_1_377)"/>
<path d="M48.6153 41.3763C57.9045 25.2829 59.4165 8.76175 51.9852 4.47175C44.5627 0.184678 31.0099 9.75806 21.7149 25.8456C27.7924 15.3257 38.7372 10.2709 46.1656 14.5579C53.591 18.8479 54.687 30.8506 48.6124 41.3734L48.6153 41.3763Z" fill="url(#paint2_linear_1_377)"/>
<path d="M21.7149 25.8456C12.4258 41.9389 10.9137 58.4601 18.345 62.7472C25.7705 67.0372 39.3233 57.4667 48.6153 41.3734C42.5378 51.8962 31.5931 56.951 24.1647 52.661C16.7392 48.3739 15.6433 36.3684 21.7179 25.8485L21.7149 25.8456Z" fill="url(#paint3_linear_1_377)"/>
<path fill-rule="evenodd" clip-rule="evenodd" d="M273.67 26.263C272.407 20.9087 270.351 19.0356 264.936 18.4542C263.413 18.2741 261.877 18.2411 260.348 18.3558C253.146 18.9395 250.814 21.4924 250.814 28.6518C250.814 32.3323 250.783 36.0127 250.826 39.6932C250.879 44.5599 253.097 47.8982 257.849 48.7538C261.042 49.3258 264.598 49.1641 267.742 48.36C271.781 47.3355 273.574 43.798 273.15 39.3041H262.399V32.4635H281.36C281.36 33.699 281.399 34.9203 281.442 36.1323C281.531 38.7813 281.617 41.3764 281.266 43.9082C280.328 50.7675 274.61 55.9741 266.525 56.9329C262.479 57.4112 258.095 57.0549 254.147 55.9999C246.81 54.0331 242.768 48.0482 242.721 40.4528C242.691 36.0573 242.714 31.6618 242.721 27.264C242.726 17.7955 246.613 12.8538 255.927 10.9878C262.263 9.71716 268.581 9.91173 274.428 13.1046C279.479 15.8685 281.751 20.264 281.542 26.2512H273.684L273.67 26.263ZM233.689 56.5508H226.283V18.7848H204.721V56.4664H197.126V11.8903H233.689V56.5508ZM170.68 49.7548H151.445V11.4589H144.108V56.375H170.68V49.7548ZM184.907 56.5204H177.821V11.4543H184.907V56.5204ZM103.149 56.5204H110.233V35.1477H110.332L129.367 56.3774H138.151L119.115 35.1477H118.822L137.858 11.7215H129.072L110.233 34.9063V11.4543H103.149V56.5204Z" fill="black"/>
<defs>
<radialGradient id="paint0_radial_1_377" cx="0" cy="0" r="1" gradientTransform="matrix(29.6448 -63.3428 67.9646 51.8849 20.5095 66.5164)" gradientUnits="userSpaceOnUse">
<stop offset="0.095" stop-color="#FFF959"/>
<stop offset="0.326" stop-color="#0DF35E"/>
<stop offset="0.64" stop-color="#0BF2F9"/>
<stop offset="1" stop-color="#04A6F0"/>
</radialGradient>
<radialGradient id="paint1_radial_1_377" cx="0" cy="0" r="1" gradientTransform="matrix(-29.6431 63.3454 -67.9608 -51.887 49.8189 0.698619)" gradientUnits="userSpaceOnUse">
<stop offset="0.095" stop-color="#FFF959"/>
<stop offset="0.326" stop-color="#0DF35E"/>
<stop offset="0.64" stop-color="#0BF2F9"/>
<stop offset="1" stop-color="#04A6F0"/>
</radialGradient>
<linearGradient id="paint2_linear_1_377" x1="48.1112" y1="0.629842" x2="59.7095" y2="43.3285" gradientUnits="userSpaceOnUse">
<stop stop-color="#003EFF"/>
<stop offset="1" stop-color="#0BFFE7"/>
</linearGradient>
<linearGradient id="paint3_linear_1_377" x1="24.6804" y1="63.4181" x2="17.4015" y2="39.7909" gradientUnits="userSpaceOnUse">
<stop stop-color="#003EFF"/>
<stop offset="1" stop-color="#0BFFE7"/>
</linearGradient>
</defs>
</svg>
