<svg width="256" height="45" viewBox="0 0 256 45" fill="none" xmlns="http://www.w3.org/2000/svg">
<path d="M2 34.3093C0.895431 34.3093 0 33.4139 0 32.3093V3.58203C0 2.47746 0.89543 1.58203 2 1.58203H3.92862C5.03319 1.58203 5.92862 2.47746 5.92862 3.58203V16.3462C5.92862 16.497 6.0509 16.6193 6.20174 16.6193C6.28191 16.6193 6.35804 16.5841 6.40993 16.523L18.4972 2.28753C18.8772 1.84 19.4346 1.58203 20.0218 1.58203H21.9714C23.6826 1.58203 24.6035 3.59141 23.4864 4.88768L14.6998 15.0832C14.1001 15.7792 14.0516 16.7942 14.5823 17.5442L24.214 31.1539C25.1515 32.4785 24.2042 34.3093 22.5815 34.3093H20.3648C19.7102 34.3093 19.0971 33.989 18.7232 33.4517L11.0423 22.4143C10.2919 21.3361 8.72353 21.2617 7.87451 22.2641L6.4025 24.002C6.09654 24.3632 5.92862 24.8212 5.92862 25.2946V32.3093C5.92862 33.4139 5.03319 34.3093 3.92862 34.3093H2Z" fill="#C4FF00"/>
<path d="M33.9832 1.58203C35.0878 1.58203 35.9832 2.47746 35.9832 3.58203V32.3093C35.9832 33.4139 35.0878 34.3093 33.9832 34.3093H32.1984C31.0938 34.3093 30.1984 33.4139 30.1984 32.3093V3.58203C30.1984 2.47746 31.0938 1.58203 32.1984 1.58203H33.9832Z" fill="#C4FF00"/>
<path d="M43.9318 34.3093C42.8273 34.3093 41.9318 33.4139 41.9318 32.3093V11.7638C41.9318 10.6593 42.8273 9.76385 43.9318 9.76385H45.7166C46.8212 9.76385 47.7166 10.6593 47.7166 11.7638V32.3093C47.7166 33.4139 46.8212 34.3093 45.7166 34.3093H43.9318ZM44.8402 6.28019C43.924 6.28019 43.1357 5.97656 42.4751 5.36932C41.8146 4.75142 41.4844 4.01101 41.4844 3.14808C41.4844 2.2745 41.8146 1.53409 42.4751 0.926845C43.1357 0.308948 43.924 0 44.8402 0C45.767 0 46.5554 0.308948 47.2053 0.926845C47.8658 1.53409 48.196 2.2745 48.196 3.14808C48.196 4.01101 47.8658 4.75142 47.2053 5.36932C46.5554 5.97656 45.767 6.28019 44.8402 6.28019Z" fill="#C4FF00"/>
<path d="M59.45 19.9272V32.3093C59.45 33.4139 58.5546 34.3093 57.45 34.3093H55.6652C54.5606 34.3093 53.6652 33.4139 53.6652 32.3093V11.7638C53.6652 10.6593 54.5606 9.76385 55.6652 9.76385H57.1943C58.2989 9.76385 59.1943 10.6593 59.1943 11.7638V13.7624C59.1943 13.8576 59.2714 13.9347 59.3666 13.9347C59.4364 13.9347 59.4992 13.8924 59.5266 13.8282C60.0936 12.5038 60.9789 11.4474 62.1826 10.6587C63.4291 9.84908 64.9685 9.44425 66.8009 9.44425C68.4948 9.44425 69.9703 9.80646 71.2274 10.5309C72.4951 11.2553 73.4752 12.3047 74.1677 13.679C74.8708 15.0533 75.2171 16.7205 75.2064 18.6808V32.3093C75.2064 33.4139 74.311 34.3093 73.2064 34.3093H71.4216C70.317 34.3093 69.4216 33.4139 69.4216 32.3093V19.5756C69.4216 17.935 68.9955 16.6513 68.1432 15.7244C67.3016 14.7976 66.135 14.3342 64.6436 14.3342C63.6315 14.3342 62.7313 14.5579 61.9429 15.0053C61.1652 15.4421 60.5526 16.076 60.1052 16.907C59.6684 17.7379 59.45 18.7447 59.45 19.9272Z" fill="#C4FF00"/>
<path d="M91.7618 44.0252C89.6844 44.0252 87.8999 43.7429 86.4085 43.1783C84.917 42.6243 83.7185 41.8786 82.8129 40.9411C82.442 40.557 82.1175 40.156 81.8395 39.7379C81.2011 38.778 81.8738 37.5956 82.9942 37.324L84.5749 36.941C85.4871 36.7199 86.4215 37.1823 87.056 37.8741C87.0898 37.911 87.1244 37.9479 87.1595 37.9847C87.607 38.4641 88.2089 38.8583 88.9653 39.1673C89.7323 39.4869 90.6965 39.6467 91.8577 39.6467C93.4983 39.6467 94.8566 39.2472 95.9326 38.4482C97.0086 37.6598 97.5466 36.3601 97.5466 34.549V30.0766C97.5466 29.9784 97.467 29.8988 97.3688 29.8988C97.3015 29.8988 97.2402 29.9369 97.2089 29.9966C96.9126 30.5623 96.4925 31.1422 95.9486 31.7365C95.384 32.3651 94.6329 32.8924 93.6954 33.3185C92.7686 33.7447 91.602 33.9577 90.1958 33.9577C88.3101 33.9577 86.6002 33.5156 85.0661 32.6314C83.5427 31.7365 82.3282 30.4048 81.4227 28.6364C80.5278 26.8572 80.0803 24.6307 80.0803 21.9567C80.0803 19.2614 80.5278 16.9869 81.4227 15.1332C82.3282 13.2688 83.548 11.8572 85.0821 10.8984C86.6162 9.92898 88.3261 9.44425 90.2117 9.44425C91.6499 9.44425 92.8325 9.68928 93.7593 10.1793C94.6968 10.6587 95.4426 11.2393 95.9965 11.9212C96.5164 12.551 96.919 13.1481 97.2044 13.7123C97.2384 13.7795 97.3069 13.8228 97.3823 13.8228C97.4907 13.8228 97.5786 13.7349 97.5786 13.6265V11.7638C97.5786 10.6593 98.474 9.76385 99.5786 9.76385H101.283C102.388 9.76385 103.283 10.6593 103.283 11.7638V34.7088C103.283 36.8075 102.783 38.544 101.781 39.9183C100.78 41.2926 99.411 42.3207 97.6744 43.0025C95.9379 43.6843 93.9671 44.0252 91.7618 44.0252ZM91.8097 29.4194C93.0349 29.4194 94.0789 29.1211 94.9418 28.5245C95.8048 27.9279 96.46 27.0703 96.9074 25.9517C97.3548 24.8331 97.5786 23.4908 97.5786 21.9247C97.5786 20.38 97.3548 19.027 96.9074 17.8658C96.4706 16.7045 95.8208 15.8043 94.9578 15.1651C94.1056 14.5153 93.0562 14.1903 91.8097 14.1903C90.5207 14.1903 89.4447 14.5259 88.5818 15.1971C87.7188 15.8683 87.069 16.7898 86.6322 17.9616C86.1954 19.1229 85.977 20.4439 85.977 21.9247C85.977 23.4268 86.1954 24.7425 86.6322 25.8718C87.0796 26.9904 87.7348 27.864 88.5977 28.4925C89.4713 29.1104 90.542 29.4194 91.8097 29.4194Z" fill="#C4FF00"/>
<path d="M109.468 3.58203C109.468 2.47746 110.363 1.58203 111.468 1.58203H115.381C116.193 1.58203 116.924 2.07266 117.231 2.82379L126.366 25.1191C126.41 25.2264 126.514 25.2965 126.63 25.2965C126.746 25.2965 126.851 25.2264 126.895 25.1191L136.029 2.8238C136.337 2.07266 137.068 1.58203 137.88 1.58203H141.793C142.898 1.58203 143.793 2.47746 143.793 3.58203V32.3093C143.793 33.4139 142.898 34.3093 141.793 34.3093H140.104C139 34.3093 138.104 33.4139 138.104 32.3093V12.0066C138.104 11.9065 138.023 11.8253 137.923 11.8253C137.849 11.8253 137.782 11.8702 137.755 11.9387L129.261 32.9626C128.956 33.7185 128.222 34.2134 127.407 34.2134H125.855C125.039 34.2134 124.305 33.7179 124 32.9612L115.506 11.8908C115.478 11.8223 115.412 11.7773 115.338 11.7773C115.238 11.7773 115.157 11.8585 115.157 11.9586V32.3093C115.157 33.4139 114.261 34.3093 113.157 34.3093H111.468C110.363 34.3093 109.468 33.4139 109.468 32.3093V3.58203Z" fill="#C4FF00"/>
<path d="M160.7 34.7887C158.303 34.7887 156.226 34.2614 154.468 33.2067C152.71 32.152 151.346 30.6765 150.377 28.7802C149.418 26.8839 148.939 24.668 148.939 22.1325C148.939 19.5969 149.418 17.3757 150.377 15.4688C151.346 13.5618 152.71 12.081 154.468 11.0263C156.226 9.97159 158.303 9.44425 160.7 9.44425C163.097 9.44425 165.174 9.97159 166.932 11.0263C168.69 12.081 170.048 13.5618 171.007 15.4688C171.977 17.3757 172.461 19.5969 172.461 22.1325C172.461 24.668 171.977 26.8839 171.007 28.7802C170.048 30.6765 168.69 32.152 166.932 33.2067C165.174 34.2614 163.097 34.7887 160.7 34.7887ZM160.732 30.1545C162.032 30.1545 163.118 29.7976 163.992 29.0838C164.866 28.3594 165.515 27.3899 165.941 26.1754C166.378 24.9609 166.597 23.608 166.597 22.1165C166.597 20.6143 166.378 19.256 165.941 18.0415C165.515 16.8164 164.866 15.8416 163.992 15.1172C163.118 14.3928 162.032 14.0305 160.732 14.0305C159.4 14.0305 158.292 14.3928 157.408 15.1172C156.535 15.8416 155.879 16.8164 155.443 18.0415C155.016 19.256 154.803 20.6143 154.803 22.1165C154.803 23.608 155.016 24.9609 155.443 26.1754C155.879 27.3899 156.535 28.3594 157.408 29.0838C158.292 29.7976 159.4 30.1545 160.732 30.1545Z" fill="#C4FF00"/>
<path d="M187.628 9.76385C188.733 9.76385 189.628 10.6593 189.628 11.7638V12.2383C189.628 13.3429 188.733 14.2383 187.628 14.2383H177.518C176.413 14.2383 175.518 13.3429 175.518 12.2383V11.7638C175.518 10.6593 176.413 9.76385 177.518 9.76385H187.628ZM179.001 5.88317C179.001 4.7786 179.897 3.88317 181.001 3.88317H182.786C183.891 3.88317 184.786 4.7786 184.786 5.88317V26.9265C184.786 27.7042 184.903 28.3008 185.138 28.7163C185.383 29.1211 185.702 29.3981 186.096 29.5472C186.491 29.6964 186.927 29.771 187.407 29.771C187.769 29.771 188.099 29.7443 188.398 29.6911C188.783 29.6247 189.17 29.867 189.252 30.249L189.786 32.7276C189.951 33.4934 189.514 34.2512 188.749 34.4212C188.184 34.549 187.492 34.6236 186.672 34.6449C185.223 34.6875 183.918 34.4691 182.757 33.9897C181.595 33.4996 180.674 32.7433 179.992 31.7205C179.321 30.6978 178.991 29.4194 179.001 27.8853V5.88317Z" fill="#C4FF00"/>
<path d="M196.466 34.3093C195.361 34.3093 194.466 33.4139 194.466 32.3093V11.7638C194.466 10.6593 195.361 9.76385 196.466 9.76385H198.251C199.355 9.76385 200.251 10.6593 200.251 11.7638V32.3093C200.251 33.4139 199.355 34.3093 198.251 34.3093H196.466ZM197.374 6.28019C196.458 6.28019 195.67 5.97656 195.009 5.36932C194.349 4.75142 194.019 4.01101 194.019 3.14808C194.019 2.2745 194.349 1.53409 195.009 0.926845C195.67 0.308948 196.458 0 197.374 0C198.301 0 199.09 0.308948 199.739 0.926845C200.4 1.53409 200.73 2.2745 200.73 3.14808C200.73 4.01101 200.4 4.75142 199.739 5.36932C199.09 5.97656 198.301 6.28019 197.374 6.28019Z" fill="#C4FF00"/>
<path d="M216.906 34.7887C214.509 34.7887 212.432 34.2614 210.674 33.2067C208.916 32.152 207.552 30.6765 206.583 28.7802C205.624 26.8839 205.145 24.668 205.145 22.1325C205.145 19.5969 205.624 17.3757 206.583 15.4688C207.552 13.5618 208.916 12.081 210.674 11.0263C212.432 9.97159 214.509 9.44425 216.906 9.44425C219.303 9.44425 221.381 9.97159 223.138 11.0263C224.896 12.081 226.254 13.5618 227.213 15.4688C228.183 17.3757 228.667 19.5969 228.667 22.1325C228.667 24.668 228.183 26.8839 227.213 28.7802C226.254 30.6765 224.896 32.152 223.138 33.2067C221.381 34.2614 219.303 34.7887 216.906 34.7887ZM216.938 30.1545C218.238 30.1545 219.324 29.7976 220.198 29.0838C221.072 28.3594 221.721 27.3899 222.148 26.1754C222.584 24.9609 222.803 23.608 222.803 22.1165C222.803 20.6143 222.584 19.256 222.148 18.0415C221.721 16.8164 221.072 15.8416 220.198 15.1172C219.324 14.3928 218.238 14.0305 216.938 14.0305C215.606 14.0305 214.498 14.3928 213.614 15.1172C212.741 15.8416 212.085 16.8164 211.649 18.0415C211.222 19.256 211.009 20.6143 211.009 22.1165C211.009 23.608 211.222 24.9609 211.649 26.1754C212.085 27.3899 212.741 28.3594 213.614 29.0838C214.498 29.7976 215.606 30.1545 216.938 30.1545Z" fill="#C4FF00"/>
<path d="M239.362 19.9272V32.3093C239.362 33.4139 238.467 34.3093 237.362 34.3093H235.577C234.473 34.3093 233.577 33.4139 233.577 32.3093V11.7638C233.577 10.6593 234.473 9.76385 235.577 9.76385H237.106C238.211 9.76385 239.106 10.6593 239.106 11.7638V13.7624C239.106 13.8576 239.184 13.9347 239.279 13.9347C239.348 13.9347 239.411 13.8924 239.439 13.8282C240.006 12.5038 240.891 11.4474 242.095 10.6587C243.341 9.84908 244.881 9.44425 246.713 9.44425C248.407 9.44425 249.882 9.80646 251.139 10.5309C252.407 11.2553 253.387 12.3047 254.08 13.679C254.783 15.0533 255.129 16.7205 255.119 18.6808V32.3093C255.119 33.4139 254.223 34.3093 253.119 34.3093H251.334C250.229 34.3093 249.334 33.4139 249.334 32.3093V19.5756C249.334 17.935 248.908 16.6513 248.055 15.7244C247.214 14.7976 246.047 14.3342 244.556 14.3342C243.544 14.3342 242.643 14.5579 241.855 15.0053C241.077 15.4421 240.465 16.076 240.017 16.907C239.581 17.7379 239.362 18.7447 239.362 19.9272Z" fill="#C4FF00"/>
</svg>
