<svg width="25" height="25" viewBox="0 0 25 25" fill="none" xmlns="http://www.w3.org/2000/svg">
<path d="M24.9411 11.9367C24.7301 10.9265 23.8982 10.12 22.8832 9.93326C21.4705 9.67253 20.2142 10.5505 19.8686 11.8057H18.7033C17.0335 11.8057 16.198 9.78653 17.3778 8.60655L18.2085 7.77583C19.3387 8.41493 20.8375 8.16028 21.6536 6.9803C22.2405 6.13139 22.2612 4.97322 21.6973 4.10734C20.7538 2.65934 18.793 2.51019 17.641 3.66228C16.7921 4.51118 16.66 5.79668 17.2238 6.79232L16.3932 7.62302C15.2133 8.803 13.1942 7.96744 13.1942 6.29874V5.13211C14.4493 4.78527 15.3273 3.5313 15.0666 2.11727C14.8798 1.10222 14.0734 0.270293 13.0633 0.0592795C11.3741 -0.294836 9.88494 0.985809 9.88494 2.6145C9.88494 3.81631 10.6974 4.8265 11.8033 5.13211V6.29874C11.8033 7.96744 9.7855 8.80421 8.60439 7.62302L7.77373 6.79232C8.41279 5.66206 8.15814 4.16191 6.97824 3.34574C6.12939 2.75878 4.97132 2.73818 4.10549 3.30089C2.65639 4.24439 2.50844 6.20657 3.66045 7.35744C4.5093 8.20635 5.79349 8.33853 6.79028 7.77461L7.62094 8.60534C8.80205 9.78532 7.96533 11.8045 6.29674 11.8045H5.13139C4.78457 10.5493 3.52949 9.67132 2.11676 9.93205C1.10178 10.12 0.271123 10.9265 0.0589105 11.9355C-0.293968 13.6248 0.986582 15.114 2.61395 15.114C3.81567 15.114 4.8258 14.3015 5.13139 13.1955H6.29674C7.96654 13.1955 8.80205 15.2135 7.62215 16.3947L6.79149 17.2254C5.66131 16.5851 4.16128 16.8409 3.34517 18.0209C2.75825 18.8698 2.73763 20.028 3.30151 20.8939C4.24495 22.3419 6.20579 22.491 7.3578 21.3389C8.20665 20.49 8.33882 19.2045 7.77495 18.2089L8.6056 17.3782C9.7855 16.1982 11.8045 17.0338 11.8045 18.7037V19.8691C10.5495 20.2159 9.67151 21.4711 9.93223 22.8839C10.119 23.899 10.9254 24.7297 11.9355 24.9407C13.6247 25.2948 15.1138 24.0142 15.1138 22.3867C15.1138 21.1849 14.3014 20.1747 13.1954 19.8691V18.7037C13.1954 17.0338 15.2133 16.1982 16.3944 17.3782L17.2251 18.2089C16.586 19.3391 16.8406 20.8381 18.0205 21.6555C18.8694 22.2424 20.0275 22.263 20.8933 21.7003C22.3424 20.7568 22.4903 18.7959 21.3383 17.6438C20.4895 16.7949 19.2041 16.6627 18.2085 17.2266L17.3778 16.3959C16.198 15.2159 17.0335 13.1967 18.7033 13.1967H19.8686C20.173 14.3027 21.1831 15.1152 22.3861 15.1152C24.0134 15.1152 25.294 13.6272 24.9411 11.9367ZM12.5018 15.1553C11.0357 15.1553 9.84856 13.9668 9.84856 12.5018C9.84856 11.0368 11.0369 9.84838 12.5018 9.84838C13.9667 9.84838 15.1551 11.0356 15.1551 12.5018C15.1551 13.968 13.9667 15.1553 12.5018 15.1553Z" fill="url(#paint0_linear_18_5363)"/>
<defs>
<linearGradient id="paint0_linear_18_5363" x1="4.75" y1="-1.25" x2="21.25" y2="28.5" gradientUnits="userSpaceOnUse">
<stop stop-color="#F37F81"/>
<stop offset="1" stop-color="#4D6BFE"/>
</linearGradient>
</defs>
</svg>
