<svg width="244" height="56" viewBox="0 0 244 56" fill="none" xmlns="http://www.w3.org/2000/svg">
<g clip-path="url(#clip0_1_406)">
<path d="M4.6329 13.8964L28.7055 0V55.5949L4.6329 41.6962V13.8964Z" fill="black"/>
<path d="M28.7055 55.5948L4.6329 41.6961L28.7055 27.7974L52.7804 41.6961L28.7055 55.5948Z" fill="url(#paint0_linear_1_406)"/>
<path d="M28.7055 55.5948L4.6329 41.6961L28.7055 27.7974L52.7804 41.6961L28.7055 55.5948Z" fill="url(#paint1_linear_1_406)"/>
<path d="M4.6329 13.8964L28.7055 0V55.5949L4.6329 41.6962V13.8964Z" fill="url(#paint2_linear_1_406)" style="mix-blend-mode:screen"/>
<path d="M28.7055 55.5948L4.6329 41.6961L28.7055 27.7974L52.7804 41.6961L28.7055 55.5948Z" fill="url(#paint3_linear_1_406)" style="mix-blend-mode:overlay"/>
<path d="M4.6329 13.8964L28.7055 0V55.5949L4.6329 41.6962V13.8964Z" fill="url(#paint4_linear_1_406)" style="mix-blend-mode:overlay"/>
</g>
<path fill-rule="evenodd" clip-rule="evenodd" d="M75.6709 12.3542H79.2444V39.1556H93.0289V42.4759H75.6709V12.3542ZM119.532 30.9878C119.532 32.6325 119.321 34.1922 118.894 35.6671C118.498 37.1434 117.844 38.4468 116.938 39.5819C116.058 40.6876 114.895 41.5817 113.448 42.2612C112.002 42.9145 110.245 43.2403 108.174 43.2403C106.104 43.2403 104.344 42.9145 102.899 42.2612C101.451 41.5817 100.275 40.6876 99.3667 39.5819C98.4706 38.4137 97.8065 37.0849 97.41 35.6671C97.0062 34.1403 96.8058 32.567 96.8139 30.9878V12.3542H100.389V30.4782C100.389 31.6982 100.516 32.8734 100.77 34.0085C101.027 35.1435 101.451 36.1504 102.048 37.0291C102.644 37.9094 103.437 38.6167 104.43 39.1556C105.422 39.6668 106.67 39.9216 108.174 39.9216C109.676 39.9216 110.924 39.6668 111.917 39.1556C112.872 38.6506 113.69 37.9208 114.3 37.0291C114.912 36.1116 115.344 35.0867 115.576 34.0085C115.832 32.8734 115.959 31.6967 115.959 30.4782V12.3542H119.532V30.9878ZM126.897 12.3542H132.214L142.425 35.9667H142.51L152.806 12.3542H157.995V42.4743H154.423V17.2034H154.336L143.531 42.4743H141.361L130.555 17.2034H130.471V42.4743H126.895V12.3542H126.897ZM175.277 12.3542H178.639L191.444 42.4743H187.275L184.212 35.0725H169.152L166.047 42.4743H162.004L175.277 12.3542ZM176.894 16.9486H176.809L170.554 31.7538H182.85L176.894 16.9486ZM217.072 12.3542H220.434L233.239 42.4743H229.07L226.007 35.0725H210.946L207.842 42.4743H203.799L217.072 12.3542ZM218.689 16.9486H218.604L212.349 31.7538H224.645L218.689 16.9486ZM237.242 12.3542H240.816V42.4743H237.242V12.3542Z" fill="black"/>
<defs>
<linearGradient id="paint0_linear_1_406" x1="4.6329" y1="41.6961" x2="52.7804" y2="41.6961" gradientUnits="userSpaceOnUse">
<stop stop-color="#0000AA"/>
<stop offset="1" stop-color="#A78DFF"/>
</linearGradient>
<linearGradient id="paint1_linear_1_406" x1="4.6329" y1="41.6961" x2="52.7804" y2="41.6961" gradientUnits="userSpaceOnUse">
<stop stop-color="#0000AA"/>
<stop offset="1" stop-color="#A78DFF"/>
</linearGradient>
<linearGradient id="paint2_linear_1_406" x1="31.8466" y1="52.4492" x2="10.8225" y2="8.67513" gradientUnits="userSpaceOnUse">
<stop stop-color="#004EFF"/>
<stop offset="1" stop-color="#00FFFF"/>
</linearGradient>
<linearGradient id="paint3_linear_1_406" x1="4.6329" y1="41.6961" x2="52.7804" y2="41.6961" gradientUnits="userSpaceOnUse">
<stop stop-color="#0000AA"/>
<stop offset="1" stop-color="#A78DFF"/>
</linearGradient>
<linearGradient id="paint4_linear_1_406" x1="31.8466" y1="52.4492" x2="10.8225" y2="8.67513" gradientUnits="userSpaceOnUse">
<stop stop-color="#004EFF"/>
<stop offset="1" stop-color="#00FFFF"/>
</linearGradient>
<clipPath id="clip0_1_406">
<rect width="55.5949" height="55.5949" fill="white"/>
</clipPath>
</defs>
</svg>
