<svg width="510" height="101" viewBox="0 0 510 101" fill="none" xmlns="http://www.w3.org/2000/svg">
<path d="M83.4248 70.4734C79.5405 55.2255 72.8148 40.5975 63.1321 28.6631C58.9687 23.5326 54.4649 19.2784 49.6213 15.9012C48.4042 15.0537 49.0844 12.973 50.5715 12.9795C50.9516 12.9795 51.3651 13.0813 51.812 13.2845C73.6919 23.202 89.4634 42.132 98.5126 64.2584C99.5159 66.7112 100.401 69.2113 101.164 71.7498C101.64 73.328 100.176 74.7587 98.7128 73.8237C94.945 71.4216 89.9268 71.244 85.2154 71.8403C84.3351 71.951 83.6315 71.2911 83.4248 70.4734ZM86.2825 96.5365C88.3497 98.0946 90.2704 97.9439 92.2342 96.4997C94.446 94.8712 96.7244 93.1984 99.0695 91.4806C101.087 90.0031 103.491 89.4805 105.938 90.1472C106.896 90.4107 108.006 91.0117 109.266 91.9498C111.464 93.5904 113.674 95.2132 115.898 96.8179C116.616 97.3339 117.386 97.5974 118.209 97.6087C119.26 97.6243 119.854 98.1558 119.989 99.2034C120.016 99.3937 119.993 99.5879 119.923 99.7665C119.62 100.548 119.052 100.94 118.219 100.942C116.725 100.949 115.363 100.522 114.134 99.6626C111.754 97.9943 109.406 96.2796 107.092 94.5196C105.248 93.1223 103.221 92.64 101.267 94.0606C98.8166 95.8392 96.3693 97.6217 93.9248 99.408C91.8484 100.924 89.5944 101.354 87.1626 100.698C86.1337 100.419 84.9974 99.8098 83.755 98.8718C81.4722 97.1498 79.3124 95.5683 77.2762 94.1277C75.5158 92.8791 73.7385 92.8868 71.9448 94.151C69.9775 95.5382 67.9136 97.0492 65.7529 98.6841C64.348 99.7474 63.1342 100.419 62.1116 100.698C59.6955 101.361 57.4347 100.932 55.3298 99.4111C53.0752 97.7825 50.8332 96.1363 48.6041 94.4727C46.2937 92.7505 44.4998 92.8308 42.2256 94.4928C39.9533 96.1545 37.6826 97.8185 35.4135 99.4848C33.4286 100.941 31.2011 101.342 28.7317 100.688C27.7047 100.415 26.571 99.8089 25.3305 98.8682C23.1855 97.2423 20.8881 95.566 18.4384 93.8395C17.0481 92.8576 14.9573 93.0955 13.6403 94.0606C11.0926 95.9269 8.53515 97.7798 5.96805 99.619C4.69211 100.533 3.20289 100.968 1.49992 100.926C0.813201 100.91 0.329686 100.481 0.0496078 99.6391C0.00508625 99.5066 -0.00972054 99.3658 0.00624839 99.2269C0.11078 98.1905 0.68078 97.6488 1.71672 97.6019C2.68375 97.5595 3.49961 97.2948 4.1643 96.808C6.66273 94.9786 9.10351 93.1972 11.4864 91.4639C11.5464 91.4192 11.5586 91.3633 11.523 91.2965C10.4421 89.3628 9.35065 87.4352 8.24875 85.5136C7.54187 84.2871 8.16555 82.9336 9.61586 82.8399C43.0765 80.7346 76.5366 78.6205 109.996 76.4974C110.431 76.4686 110.868 76.4664 111.303 76.4908C112.324 76.5478 112.93 77.707 112.647 78.6384C112.554 78.9491 112.276 79.3129 111.813 79.7307C104.358 86.4686 95.5717 91.7957 86.309 96.2518C86.1466 96.3321 86.1379 96.4272 86.2825 96.5365ZM73.9987 74.0147C65.8717 70.8142 57.3004 69.2403 48.2842 69.294C37.641 69.3578 27.3979 72.4401 18.7052 78.1893C16.9748 79.332 15.1241 77.1507 16.4345 75.7269C17.1747 74.9207 17.8382 74.0962 18.4251 73.2543C23.68 65.7067 26.7887 57.1955 27.7513 47.7206C29.3819 31.6484 24.247 16.3268 16.3778 2.36219C16.0544 1.7892 16.3677 0.71034 16.948 0.328348C17.5548 -0.0713075 18.1741 -0.106163 18.8052 0.224725C31.1134 6.69316 42.1023 14.6905 51.772 24.2172C65.1693 37.4146 75.059 53.6309 77.3762 72.4837C77.5143 73.5983 77.0807 74.2752 76.0762 74.514C75.4291 74.6682 74.6655 74.2761 73.9987 74.0147Z" fill="black"/>
<path d="M28.6084 22.4546C33.3664 38.9556 32.1662 56.5388 23.6035 71.425C23.5977 71.4344 23.5952 71.4456 23.5963 71.4566C23.5975 71.4677 23.6023 71.478 23.6099 71.486C23.6176 71.4941 23.6276 71.4993 23.6386 71.501C23.6495 71.5026 23.6607 71.5006 23.6703 71.4952C31.497 67.8476 39.7574 65.997 48.451 65.9436C57.0404 65.8899 65.4074 67.3194 73.5521 70.2322C73.5686 70.2382 73.5863 70.2398 73.6035 70.2368C73.6208 70.2338 73.637 70.2263 73.6504 70.2151C73.6639 70.2039 73.6742 70.1893 73.6804 70.1729C73.6865 70.1564 73.6883 70.1386 73.6855 70.1212C70.4178 49.4428 56.7669 32.0402 41.0588 19.0539C35.2393 14.2406 28.9984 9.88372 22.3365 5.98396C22.1209 5.85655 22.071 5.90554 22.1865 6.13139C24.7918 11.204 26.9324 16.6449 28.6084 22.4546Z" fill="white"/>
<path d="M42.7878 66.2387C44.67 66.0528 46.5598 65.9544 48.451 65.9436C50.6422 65.9299 52.8191 66.0128 54.9812 66.1923L69.647 55.8024C68.7466 53.6025 67.7395 51.4483 66.6294 49.3474L42.7878 66.2387Z" fill="#760987"/>
<path d="M30.928 33.9674C31.2305 36.5731 31.3792 39.1946 31.3733 41.818L50.8013 28.0107C49.2309 26.3997 47.6153 24.8339 45.9563 23.3152L30.928 33.9674Z" fill="#E50304"/>
<path d="M31.3733 41.8081C31.3671 44.6862 31.1641 47.5606 30.7656 50.4107L55.3302 32.9535C53.8764 31.2649 52.3712 29.6218 50.8166 28.0265L31.3733 41.8081Z" fill="#FF8E00"/>
<path d="M30.7742 50.3495C30.3144 53.6456 29.5869 56.901 28.5805 60.086L59.4856 38.1227C58.1572 36.351 56.7695 34.625 55.325 32.9476L30.7742 50.3495Z" fill="#FFEC00"/>
<path d="M28.5964 60.0356C27.3489 64.0031 25.6747 67.8221 23.6035 71.425C23.5977 71.4344 23.5952 71.4456 23.5963 71.4566C23.5975 71.4677 23.6023 71.478 23.6099 71.486C23.6176 71.4941 23.6276 71.4993 23.6386 71.501C23.6495 71.5026 23.6607 71.5006 23.6703 71.4952C23.8417 71.4153 24.013 71.3367 24.1845 71.2587L63.2645 43.5725C62.0755 41.7134 60.8179 39.8995 59.4945 38.1344L28.5964 60.0356Z" fill="#008025"/>
<path d="M24.0896 71.3018C30.0702 68.5692 36.3031 66.8814 42.7878 66.2387L66.6294 49.3474C65.5873 47.3762 64.4652 45.4491 63.2654 43.5706L24.0896 71.3018Z" fill="#004DFF"/>
<path d="M12.497 86.1098C12.4914 86.1115 12.4863 86.1145 12.482 86.1184C12.4777 86.1224 12.4743 86.1273 12.472 86.1327C12.4698 86.1381 12.4688 86.1439 12.469 86.1498C12.4693 86.1556 12.4708 86.1614 12.4735 86.1666L14.5674 89.8423C14.5961 89.8922 14.6393 89.9321 14.6911 89.9566C14.743 89.9811 14.8011 89.989 14.8576 89.9794C16.956 89.6243 18.842 90.0298 20.5159 91.1958C22.7321 92.7372 25.0761 94.4446 27.5481 96.3186C29.4053 97.7259 31.3527 98.2217 33.3266 96.8178C35.2583 95.4441 37.55 93.7701 40.202 91.7956C42.5959 90.0131 44.9769 89.3765 47.851 90.2411C48.6756 90.4888 49.8125 91.1588 51.2619 92.2511C53.2214 93.7237 55.1977 95.1734 57.1904 96.6002C59.3378 98.1378 61.1917 97.9101 63.2588 96.3423C65.5687 94.587 67.9121 92.8767 70.2878 91.2125C73.2554 89.1318 76.8596 89.5541 79.7239 91.7184C80.7394 92.4879 81.7665 93.2418 82.8048 93.98C82.903 94.0516 83.0352 94.0655 83.1493 94.0144C91.3932 90.23 98.953 85.7012 105.828 80.4275C106.12 80.204 106.083 80.1048 105.718 80.1293C74.698 82.0928 43.9018 84.0392 13.3304 85.9692C13.0486 85.9878 12.7694 86.0349 12.497 86.1098ZM86.4859 68.3526C89.8536 68.0174 93.3981 68.2386 96.669 69.2068C96.6854 69.2112 96.7026 69.211 96.7189 69.2064C96.7352 69.2017 96.7499 69.1927 96.7615 69.1803C96.7731 69.168 96.7812 69.1526 96.7848 69.136C96.7885 69.1194 96.7876 69.1021 96.7822 69.0859C90.257 51.292 79.1136 35.1228 63.8056 24.0594C63.5279 23.8606 63.5012 23.891 63.7257 24.15C74.6024 36.7075 82.0145 52.0661 86.2792 68.2084C86.308 68.3158 86.3769 68.3636 86.4859 68.3526Z" fill="white"/>
<path fill-rule="evenodd" clip-rule="evenodd" d="M150.523 72.6424V26.5936H159.405L165.116 46.4651L171.08 26.5936H180.023V72.6479H173.996V51.5141C173.996 49.2839 174.04 46.8116 174.123 44.1001C174.205 41.3886 174.324 38.6744 174.473 35.9601L174.702 32.0909C174.783 30.8644 174.863 29.7066 174.948 28.6121L167.714 52.2071H162.385L155.41 29.1786C155.791 32.2476 156.067 35.6659 156.236 39.4279C156.404 43.1954 156.49 47.2214 156.49 51.5114V72.6451L150.523 72.6424ZM187.953 72.6424V66.9664H200.197V43.6244H189.224V37.9456H206.481V66.9664H217.962V72.6451L187.953 72.6424ZM202.737 31.8296C201.298 31.8296 200.155 31.4611 199.31 30.7269C198.463 29.9899 198.04 28.9916 198.04 27.7294C198.04 26.4259 198.463 25.3946 199.31 24.6384C200.155 23.8821 201.298 23.5026 202.734 23.5026C204.173 23.5026 205.316 23.8821 206.161 24.6384C207.008 25.3946 207.431 26.4259 207.431 27.7294C207.431 28.9916 207.008 29.9899 206.161 30.7269C205.316 31.4611 204.173 31.8296 202.737 31.8296ZM235.915 73.2749C232.406 73.2749 229.614 72.1089 227.541 69.7741C225.47 67.4394 224.432 64.2741 224.432 60.2784V50.3124C224.432 46.3166 225.47 43.1514 227.541 40.8166C229.612 38.4819 232.406 37.3159 235.915 37.3159C238.494 37.3159 240.643 37.9676 242.354 39.2711C243.912 40.4564 244.92 42.0431 245.375 44.0286L245.497 44.6336L245.37 36.5596V26.5909H251.649V72.6451H245.433V65.8939C245.052 68.2066 244.014 70.0161 242.324 71.3196C240.632 72.6231 238.492 73.2749 235.915 73.2749ZM238.072 67.8491C240.314 67.8491 242.089 67.1561 243.401 65.7674C244.713 64.3786 245.37 62.4234 245.37 59.9016V50.6891C245.37 48.1674 244.713 46.2121 243.401 44.8234C242.089 43.4346 240.314 42.7416 238.072 42.7416C235.747 42.7416 233.938 43.3411 232.649 44.5401C231.359 45.7391 230.716 47.6834 230.716 50.3756V60.2151C230.716 62.9101 231.359 64.8544 232.649 66.0506C233.938 67.2496 235.747 67.8491 238.072 67.8491ZM261.23 83.9999V78.3211H269.414C271.908 78.3211 273.843 77.6391 275.218 76.2724C276.593 74.9056 277.281 72.9999 277.281 70.5634V43.6244H260.912V37.9456H283.56V70.6266C283.56 74.7049 282.29 77.9554 279.755 80.3726C277.215 82.7926 273.813 83.9999 269.538 83.9999H261.227H261.23ZM279.882 31.8269C278.443 31.8269 277.3 31.4584 276.455 30.7241C275.61 29.9871 275.185 28.9889 275.185 27.7266C275.185 26.4231 275.61 25.3919 276.455 24.6356C277.3 23.8794 278.443 23.4999 279.879 23.4999C281.32 23.4999 282.461 23.8794 283.306 24.6356C284.153 25.3919 284.576 26.4231 284.576 27.7266C284.576 28.9889 284.153 29.9871 283.306 30.7241C282.461 31.4584 281.318 31.8269 279.882 31.8269ZM311.158 73.1484C306.886 73.1484 303.493 71.9301 300.975 69.4909C298.459 67.0516 297.2 63.6444 297.2 59.2691V51.3216C297.2 46.9491 298.459 43.5391 300.975 41.0999C303.493 38.6606 306.886 37.4424 311.158 37.4424C315.429 37.4424 318.823 38.6606 321.341 41.0999C323.857 43.5391 325.116 46.9464 325.116 51.3216V59.2691C325.116 63.6416 323.857 67.0516 321.341 69.4909C318.823 71.9301 315.432 73.1484 311.158 73.1484ZM311.158 67.6594C313.527 67.6594 315.399 66.9994 316.771 65.6739C318.147 64.3484 318.834 62.4014 318.834 59.8384V50.7524C318.834 48.1866 318.147 46.2424 316.771 44.9169C315.399 43.5941 313.527 42.9314 311.158 42.9314C308.789 42.9314 306.917 43.5914 305.544 44.9169C304.169 46.2424 303.482 48.1894 303.482 50.7524V59.8384C303.482 62.4041 304.169 64.3484 305.544 65.6739C306.917 66.9994 308.789 67.6594 311.158 67.6594ZM347.573 73.2749C343.472 73.2749 340.195 72.0759 337.743 69.6779C335.285 67.2826 334.059 64.0211 334.059 59.9016V37.9456H340.341V59.9016C340.341 62.3409 340.987 64.2631 342.274 65.6739C343.566 67.0819 345.333 67.7859 347.575 67.7859C349.859 67.7859 351.656 67.0819 352.965 65.6739C354.277 64.2631 354.934 62.3409 354.934 59.8989V37.9484H361.213V59.9044C361.213 64.0239 359.976 67.2854 357.502 69.6806C355.028 72.0786 351.72 73.2749 347.573 73.2749ZM371.935 72.6424V37.9484H378.153V44.6364H378.216C378.556 42.3649 379.539 40.5774 381.165 39.2739C382.794 37.9704 384.962 37.3186 387.668 37.3186C391.263 37.3186 394.054 38.4214 396.043 40.6296C398.031 42.8379 399.025 45.9399 399.025 49.9356V52.9634H392.746V49.9989C392.746 45.1616 390.354 42.7444 385.575 42.7444C383.164 42.7444 381.336 43.4374 380.088 44.8261C378.84 46.2149 378.216 48.1894 378.216 50.7551V72.6451L371.935 72.6424ZM407.145 72.6424V37.9484H413.364V44.5759H413.427C413.722 42.3016 414.686 40.5251 416.312 39.2409C417.942 37.9594 420.087 37.3186 422.752 37.3186C426.22 37.3186 428.992 38.4131 431.063 40.5994C433.134 42.7856 434.172 45.7309 434.172 49.4324V72.6479H427.89V50.4416C427.89 47.9171 427.255 45.9811 425.988 44.6391C424.718 43.2916 422.986 42.6179 420.786 42.6179C418.502 42.6179 416.705 43.3219 415.393 44.7299C414.081 46.1406 413.427 48.1069 413.427 50.6286V72.6479H407.145V72.6424ZM457.076 73.2749C452.887 73.2749 449.516 72.0346 446.956 69.5541C444.397 67.0709 443.118 63.6856 443.118 59.3956V51.1951C443.118 46.9051 444.397 43.5199 446.956 41.0366C449.516 38.5561 452.887 37.3159 457.076 37.3159C459.865 37.3159 462.308 37.8741 464.401 38.9879C466.442 40.051 468.137 41.6706 469.289 43.6574C470.448 45.6539 471.031 47.9749 471.031 50.6259V56.8739H449.273V59.8989C449.273 62.4234 449.969 64.4006 451.366 65.8306C452.76 67.2606 454.663 67.9756 457.076 67.9756C459.105 67.9756 460.776 67.5961 462.088 66.8399C463.399 66.0836 464.181 65.0331 464.435 63.6856H470.714C470.291 66.6281 468.833 68.9656 466.337 70.6899C463.841 72.4141 460.754 73.2749 457.076 73.2749ZM449.27 50.6259V52.2676H464.879V50.6259C464.879 47.9776 464.203 45.9371 462.847 44.5071C461.494 43.0771 459.569 42.3621 457.076 42.3621C454.58 42.3621 452.655 43.0771 451.302 44.5071C449.949 45.9371 449.27 47.9776 449.27 50.6259ZM485.624 83.9999L490.699 70.5634L477.694 37.9484H484.354L492.223 58.4496C492.56 59.3324 492.9 60.2784 493.237 61.2876C493.576 62.2969 493.808 63.1824 493.935 63.9386C494.095 63.0434 494.307 62.1582 494.57 61.2876C494.866 60.2784 495.183 59.3351 495.52 58.4496L502.815 37.9456H509.478L492.157 83.9999H485.624Z" fill="black"/>
</svg>
