<svg width="20" height="20" viewBox="0 0 20 20" fill="none" xmlns="http://www.w3.org/2000/svg">
<path d="M18.6187 12.4438C18.5298 12.3545 18.416 12.2942 18.2922 12.2708C18.1684 12.2474 18.0404 12.2619 17.925 12.3125C16.5022 12.9329 14.9255 13.1103 13.4004 12.8216C11.8753 12.5329 10.4725 11.7914 9.37495 10.6938C8.27739 9.59626 7.53591 8.19351 7.24718 6.66841C6.95845 5.14331 7.13584 3.5666 7.75624 2.14379C7.80757 2.02834 7.8227 1.90005 7.79964 1.77582C7.77658 1.6516 7.71641 1.53729 7.62708 1.44795C7.53774 1.35861 7.42342 1.29845 7.2992 1.27539C7.17498 1.25233 7.04669 1.26746 6.93124 1.31879C5.59424 1.90487 4.4205 2.80846 3.51195 3.95109C2.6034 5.09373 1.98749 6.44087 1.71771 7.87555C1.44793 9.31022 1.53244 10.7891 1.96388 12.1837C2.39533 13.5783 3.16068 14.8465 4.19348 15.8782C5.22627 16.9099 6.4953 17.6739 7.89036 18.1039C9.28543 18.5339 10.7644 18.6168 12.1988 18.3455C13.6331 18.0742 14.9796 17.4569 16.1213 16.5471C17.263 15.6374 18.1653 14.4627 18.75 13.125C18.7979 13.0112 18.8109 12.8858 18.7876 12.7645C18.7642 12.6433 18.7055 12.5317 18.6187 12.4438Z" fill="#D8D8D8"/>
</svg>
