<svg width="20" height="20" viewBox="0 0 20 20" fill="none" xmlns="http://www.w3.org/2000/svg">
<path d="M15 4H7C6.736 4 6.48009 4.10409 6.29609 4.29609C6.10409 4.48009 6 4.736 6 5V6H5C4.736 6 4.48009 6.10409 4.29609 6.29609C4.10409 6.48009 4 6.736 4 7V15C4 15.264 4.10409 15.5199 4.29609 15.7039C4.48009 15.8959 4.736 16 5 16H13C13.264 16 13.5199 15.8959 13.7039 15.7039C13.8959 15.5199 14 15.264 14 15V14H15C15.264 14 15.5199 13.8959 15.7039 13.7039C15.8959 13.5199 16 13.264 16 13V5C16 4.736 15.8959 4.48009 15.7039 4.29609C15.5199 4.10409 15.264 4 15 4ZM7 5H15V9.33594L13.96 8.29609C13.768 8.10409 13.512 8 13.248 8C12.984 8 12.7279 8.10409 12.5439 8.29609L7.83203 13H7V5ZM13 15H5V7H6V13C6 13.264 6.10409 13.5199 6.29609 13.7039C6.48009 13.8959 6.736 14 7 14H13V15ZM15 13H9.24805L13.248 9L15 10.752V13ZM9.50391 9C9.79991 9 10.0879 8.91214 10.3359 8.74414C10.5839 8.58414 10.7761 8.35187 10.8881 8.07188C11.0001 7.79988 11.032 7.49581 10.968 7.20781C10.912 6.91981 10.768 6.64784 10.56 6.43984C10.352 6.23184 10.08 6.08803 9.79199 6.03203C9.50399 5.96803 9.19993 6.00011 8.92793 6.11211C8.64793 6.22411 8.41605 6.41606 8.25605 6.66406C8.08805 6.91206 8 7.19991 8 7.50391C8 7.89591 8.16004 8.28016 8.44004 8.56016C8.72004 8.84016 9.10391 9 9.50391 9ZM9.50391 7C9.59991 7 9.69598 7.03189 9.77598 7.08789C9.86398 7.13589 9.92796 7.21611 9.95996 7.31211C9.99996 7.40011 10.008 7.504 9.99199 7.6C9.96799 7.696 9.92005 7.78386 9.85605 7.85586C9.78405 7.91986 9.696 7.96819 9.6 7.99219C9.504 8.00819 9.39991 8.00016 9.31191 7.96016C9.21591 7.92816 9.13609 7.86417 9.08809 7.77617C9.03209 7.69617 9 7.59991 9 7.50391C9 7.36791 9.05595 7.24014 9.14395 7.14414C9.23995 7.05614 9.36791 7 9.50391 7Z" fill="black"/>
</svg>
