<svg width="291" height="58" viewBox="0 0 291 58" fill="none" xmlns="http://www.w3.org/2000/svg">
<path d="M5.51098 4.92643H52.0481V54.1874H5.51098V4.92643Z" fill="white"/>
<path d="M57.9939 8.84905V48.5719C57.9939 55.4186 52.6605 57.7037 46.8678 57.8083C34.4069 58.03 22.2582 58.1285 9.7973 57.716C5.23543 57.562 0 54.8029 0 48.7997L0.0183699 8.6828C0.0183699 1.53941 5.3334 0.197586 9.57686 0.179113L45.7473 0.000541761C51.8828 -0.0302464 58 1.23153 58 8.84289L57.9939 8.84905ZM32.0249 52.5313C41.8283 49.7665 48.466 40.9857 49.9234 31.1828C51.6011 19.9143 42.2937 18.2702 45.7473 9.04609C46.3351 7.4759 45.1349 5.30226 43.4082 5.26531L38.2462 5.15447C37.3461 5.136 35.4234 6.386 35.3131 7.26654C34.9457 10.2776 39.6791 13.5719 35.0192 23.381C30.4451 33.0177 21.3887 39.2493 10.8505 41.2012C8.91554 41.0719 7.07242 42.4081 6.803 44.1322C6.58256 45.5485 7.6174 47.3281 8.87268 48.2455C15.6757 53.2271 23.3666 54.9635 32.0188 52.5251L32.0249 52.5313Z" fill="white"/>
<path d="M57.9939 8.84905V48.5719C57.9939 55.4186 52.6605 57.7037 46.8678 57.8083C34.4069 58.03 22.2582 58.1285 9.7973 57.716C5.23543 57.562 0 54.8029 0 48.7997L0.0183699 8.6828C0.0183699 1.53941 5.3334 0.197586 9.57686 0.179113L45.7473 0.000541761C51.8828 -0.0302464 58 1.23153 58 8.84289L57.9939 8.84905ZM32.0249 52.5313C41.8283 49.7665 48.466 40.9857 49.9234 31.1828C51.6011 19.9143 42.2937 18.2702 45.7473 9.04609C46.3351 7.4759 45.1349 5.30226 43.4082 5.26531L38.2462 5.15447C37.3461 5.136 35.4234 6.386 35.3131 7.26654C34.9457 10.2776 39.6791 13.5719 35.0192 23.381C30.4451 33.0177 21.3887 39.2493 10.8505 41.2012C8.91554 41.0719 7.07242 42.4081 6.803 44.1322C6.58256 45.5485 7.6174 47.3281 8.87268 48.2455C15.6757 53.2271 23.3666 54.9635 32.0188 52.5251L32.0249 52.5313Z" fill="url(#paint0_linear_1_454)"/>
<path d="M11.1567 45.4746C11.671 43.5226 13.4835 46.2936 18.6455 45.2406C22.791 44.3909 26.2935 43.1409 29.545 40.5054C37.3706 34.1631 40.4383 29.6865 41.8222 19.7542C45.9983 20.5732 47.076 24.1569 47.2781 27.8515C47.7312 36.3059 42.6795 44.046 35.9316 47.9007C23.8013 54.8219 10.477 48.0423 11.1567 45.4808V45.4746Z" fill="white"/>
<path d="M11.1567 45.4746C11.671 43.5226 13.4835 46.2936 18.6455 45.2406C22.791 44.3909 26.2935 43.1409 29.545 40.5054C37.3706 34.1631 40.4383 29.6865 41.8222 19.7542C45.9983 20.5732 47.076 24.1569 47.2781 27.8515C47.7312 36.3059 42.6795 44.046 35.9316 47.9007C23.8013 54.8219 10.477 48.0423 11.1567 45.4808V45.4746Z" fill="url(#paint1_linear_1_454)"/>
<path d="M94.3416 16.5454V42H90.8118L77.8732 23.3316H77.6371V42H73.7965V16.5454H77.3512L90.3022 35.2386H90.5383V16.5454H94.3416Z" fill="white"/>
<path d="M105.201 42.4225C103.992 42.4225 102.898 42.1988 101.92 41.7514C100.942 41.2956 100.168 40.6369 99.596 39.7752C99.0325 38.9134 98.7508 37.857 98.7508 36.6058C98.7508 35.5286 98.9579 34.642 99.3722 33.946C99.7865 33.25 100.346 32.6989 101.05 32.2929C101.754 31.8869 102.542 31.5803 103.412 31.3732C104.282 31.166 105.168 31.0086 106.071 30.9009C107.215 30.7683 108.143 30.6606 108.856 30.5777C109.568 30.4866 110.086 30.3416 110.409 30.1427C110.732 29.9438 110.894 29.6207 110.894 29.1733V29.0862C110.894 28.0008 110.587 27.1598 109.974 26.5632C109.369 25.9666 108.466 25.6683 107.265 25.6683C106.013 25.6683 105.027 25.9459 104.307 26.501C103.594 27.0479 103.101 27.6569 102.827 28.3281L99.335 27.5326C99.7493 26.3726 100.354 25.4363 101.15 24.7237C101.953 24.0028 102.877 23.4808 103.921 23.1576C104.965 22.8262 106.063 22.6605 107.215 22.6605C107.977 22.6605 108.785 22.7516 109.639 22.9339C110.5 23.1079 111.304 23.4311 112.05 23.9034C112.804 24.3757 113.421 25.051 113.902 25.9293C114.382 26.7993 114.623 27.9304 114.623 29.3224V42H110.993V39.3899H110.844C110.604 39.8705 110.243 40.3428 109.763 40.8068C109.282 41.2708 108.665 41.6561 107.911 41.9627C107.157 42.2693 106.254 42.4225 105.201 42.4225ZM106.009 39.4396C107.037 39.4396 107.915 39.2366 108.644 38.8306C109.382 38.4246 109.941 37.8943 110.322 37.2397C110.712 36.5768 110.906 35.8683 110.906 35.1143V32.6534C110.774 32.7859 110.517 32.9102 110.136 33.0262C109.763 33.134 109.336 33.2292 108.856 33.3121C108.375 33.3867 107.907 33.4571 107.451 33.5234C106.995 33.5814 106.614 33.6311 106.308 33.6725C105.587 33.7637 104.928 33.917 104.331 34.1324C103.743 34.3478 103.271 34.6586 102.915 35.0646C102.566 35.4623 102.392 35.9926 102.392 36.6555C102.392 37.5752 102.732 38.2713 103.412 38.7436C104.091 39.2076 104.957 39.4396 106.009 39.4396Z" fill="white"/>
<path d="M123.289 30.6647V42H119.572V22.909H123.14V26.0163H123.376C123.815 25.0054 124.503 24.1934 125.439 23.5802C126.384 22.967 127.573 22.6605 129.006 22.6605C130.307 22.6605 131.446 22.9339 132.424 23.4808C133.402 24.0194 134.16 24.8231 134.699 25.892C135.237 26.9609 135.506 28.2825 135.506 29.8568V42H131.79V30.3043C131.79 28.9205 131.43 27.8392 130.709 27.0603C129.988 26.2732 128.998 25.8796 127.738 25.8796C126.877 25.8796 126.11 26.066 125.439 26.4389C124.776 26.8117 124.25 27.3586 123.86 28.0795C123.479 28.7921 123.289 29.6538 123.289 30.6647Z" fill="white"/>
<path d="M148.532 42.3853C146.742 42.3853 145.18 41.9751 143.846 41.1548C142.512 40.3345 141.476 39.1869 140.739 37.712C140.002 36.2371 139.633 34.5136 139.633 32.5415C139.633 30.5612 140.002 28.8294 140.739 27.3462C141.476 25.863 142.512 24.7112 143.846 23.8909C145.18 23.0706 146.742 22.6605 148.532 22.6605C150.322 22.6605 151.884 23.0706 153.218 23.8909C154.552 24.7112 155.587 25.863 156.325 27.3462C157.062 28.8294 157.431 30.5612 157.431 32.5415C157.431 34.5136 157.062 36.2371 156.325 37.712C155.587 39.1869 154.552 40.3345 153.218 41.1548C151.884 41.9751 150.322 42.3853 148.532 42.3853ZM148.544 39.2656C149.704 39.2656 150.666 38.959 151.428 38.3458C152.19 37.7327 152.754 36.9165 153.118 35.8973C153.491 34.8782 153.678 33.7554 153.678 32.5291C153.678 31.311 153.491 30.1924 153.118 29.1733C152.754 28.1458 152.19 27.3213 151.428 26.6999C150.666 26.0784 149.704 25.7677 148.544 25.7677C147.376 25.7677 146.407 26.0784 145.636 26.6999C144.874 27.3213 144.306 28.1458 143.933 29.1733C143.569 30.1924 143.386 31.311 143.386 32.5291C143.386 33.7554 143.569 34.8782 143.933 35.8973C144.306 36.9165 144.874 37.7327 145.636 38.3458C146.407 38.959 147.376 39.2656 148.544 39.2656Z" fill="white"/>
<path d="M171.14 42V16.5454H180.462C182.268 16.5454 183.764 16.8437 184.949 17.4403C186.134 18.0286 187.02 18.8282 187.609 19.8391C188.197 20.8417 188.491 21.9727 188.491 23.2322C188.491 24.2928 188.296 25.1877 187.907 25.9169C187.518 26.6377 186.995 27.2178 186.341 27.6569C185.695 28.0878 184.982 28.4027 184.203 28.6015V28.8501C185.048 28.8915 185.873 29.165 186.676 29.6704C187.489 30.1676 188.16 30.876 188.69 31.7958C189.22 32.7155 189.485 33.8341 189.485 35.1516C189.485 36.4525 189.179 37.6208 188.566 38.6566C187.961 39.684 187.025 40.5002 185.757 41.1051C184.489 41.7017 182.869 42 180.897 42H171.14ZM174.981 38.7063H180.524C182.364 38.7063 183.681 38.35 184.477 37.6374C185.272 36.9248 185.67 36.034 185.67 34.9652C185.67 34.1614 185.467 33.424 185.061 32.7528C184.655 32.0816 184.075 31.5472 183.321 31.1495C182.575 30.7517 181.688 30.5529 180.661 30.5529H174.981V38.7063ZM174.981 27.5575H180.126C180.988 27.5575 181.763 27.3918 182.451 27.0603C183.147 26.7289 183.698 26.2649 184.104 25.6683C184.518 25.0634 184.725 24.3508 184.725 23.5305C184.725 22.4782 184.356 21.5957 183.619 20.8831C182.882 20.1705 181.75 19.8142 180.226 19.8142H174.981V27.5575Z" fill="white"/>
<path d="M199.298 42.4225C198.088 42.4225 196.995 42.1988 196.017 41.7514C195.039 41.2956 194.264 40.6369 193.693 39.7752C193.129 38.9134 192.847 37.857 192.847 36.6058C192.847 35.5286 193.055 34.642 193.469 33.946C193.883 33.25 194.443 32.6989 195.147 32.2929C195.851 31.8869 196.638 31.5803 197.508 31.3732C198.378 31.166 199.265 31.0086 200.168 30.9009C201.312 30.7683 202.24 30.6606 202.952 30.5777C203.665 30.4866 204.183 30.3416 204.506 30.1427C204.829 29.9438 204.991 29.6207 204.991 29.1733V29.0862C204.991 28.0008 204.684 27.1598 204.071 26.5632C203.466 25.9666 202.563 25.6683 201.361 25.6683C200.11 25.6683 199.124 25.9459 198.403 26.501C197.691 27.0479 197.198 27.6569 196.924 28.3281L193.432 27.5326C193.846 26.3726 194.451 25.4363 195.246 24.7237C196.05 24.0028 196.974 23.4808 198.018 23.1576C199.062 22.8262 200.16 22.6605 201.312 22.6605C202.074 22.6605 202.882 22.7516 203.735 22.9339C204.597 23.1079 205.401 23.4311 206.146 23.9034C206.901 24.3757 207.518 25.051 207.998 25.9293C208.479 26.7993 208.719 27.9304 208.719 29.3224V42H205.09V39.3899H204.941C204.701 39.8705 204.34 40.3428 203.86 40.8068C203.379 41.2708 202.762 41.6561 202.008 41.9627C201.254 42.2693 200.35 42.4225 199.298 42.4225ZM200.106 39.4396C201.133 39.4396 202.012 39.2366 202.741 38.8306C203.478 38.4246 204.038 37.8943 204.419 37.2397C204.808 36.5768 205.003 35.8683 205.003 35.1143V32.6534C204.87 32.7859 204.614 32.9102 204.232 33.0262C203.86 33.134 203.433 33.2292 202.952 33.3121C202.472 33.3867 202.003 33.4571 201.548 33.5234C201.092 33.5814 200.711 33.6311 200.404 33.6725C199.683 33.7637 199.025 33.917 198.428 34.1324C197.84 34.3478 197.367 34.6586 197.011 35.0646C196.663 35.4623 196.489 35.9926 196.489 36.6555C196.489 37.5752 196.829 38.2713 197.508 38.7436C198.188 39.2076 199.054 39.4396 200.106 39.4396Z" fill="white"/>
<path d="M217.385 30.6647V42H213.669V22.909H217.236V26.0163H217.472C217.912 25.0054 218.599 24.1934 219.536 23.5802C220.48 22.967 221.669 22.6605 223.103 22.6605C224.404 22.6605 225.543 22.9339 226.521 23.4808C227.498 24.0194 228.257 24.8231 228.795 25.892C229.334 26.9609 229.603 28.2825 229.603 29.8568V42H225.887V30.3043C225.887 28.9205 225.526 27.8392 224.805 27.0603C224.085 26.2732 223.094 25.8796 221.835 25.8796C220.973 25.8796 220.207 26.066 219.536 26.4389C218.873 26.8117 218.347 27.3586 217.957 28.0795C217.576 28.7921 217.385 29.6538 217.385 30.6647Z" fill="white"/>
<path d="M240.143 42.4225C238.933 42.4225 237.839 42.1988 236.862 41.7514C235.884 41.2956 235.109 40.6369 234.537 39.7752C233.974 38.9134 233.692 37.857 233.692 36.6058C233.692 35.5286 233.899 34.642 234.314 33.946C234.728 33.25 235.287 32.6989 235.992 32.2929C236.696 31.8869 237.483 31.5803 238.353 31.3732C239.223 31.166 240.11 31.0086 241.013 30.9009C242.156 30.7683 243.084 30.6606 243.797 30.5777C244.51 30.4866 245.027 30.3416 245.351 30.1427C245.674 29.9438 245.835 29.6207 245.835 29.1733V29.0862C245.835 28.0008 245.529 27.1598 244.916 26.5632C244.311 25.9666 243.408 25.6683 242.206 25.6683C240.955 25.6683 239.969 25.9459 239.248 26.501C238.535 27.0479 238.042 27.6569 237.769 28.3281L234.276 27.5326C234.691 26.3726 235.296 25.4363 236.091 24.7237C236.895 24.0028 237.819 23.4808 238.863 23.1576C239.907 22.8262 241.005 22.6605 242.156 22.6605C242.919 22.6605 243.727 22.7516 244.58 22.9339C245.442 23.1079 246.245 23.4311 246.991 23.9034C247.745 24.3757 248.363 25.051 248.843 25.9293C249.324 26.7993 249.564 27.9304 249.564 29.3224V42H245.935V39.3899H245.786C245.545 39.8705 245.185 40.3428 244.704 40.8068C244.224 41.2708 243.606 41.6561 242.852 41.9627C242.098 42.2693 241.195 42.4225 240.143 42.4225ZM240.951 39.4396C241.978 39.4396 242.857 39.2366 243.586 38.8306C244.323 38.4246 244.882 37.8943 245.264 37.2397C245.653 36.5768 245.848 35.8683 245.848 35.1143V32.6534C245.715 32.7859 245.458 32.9102 245.077 33.0262C244.704 33.134 244.278 33.2292 243.797 33.3121C243.316 33.3867 242.848 33.4571 242.392 33.5234C241.937 33.5814 241.556 33.6311 241.249 33.6725C240.528 33.7637 239.869 33.917 239.273 34.1324C238.685 34.3478 238.212 34.6586 237.856 35.0646C237.508 35.4623 237.334 35.9926 237.334 36.6555C237.334 37.5752 237.674 38.2713 238.353 38.7436C239.033 39.2076 239.898 39.4396 240.951 39.4396Z" fill="white"/>
<path d="M258.23 30.6647V42H254.514V22.909H258.081V26.0163H258.317C258.756 25.0054 259.444 24.1934 260.38 23.5802C261.325 22.967 262.514 22.6605 263.947 22.6605C265.248 22.6605 266.388 22.9339 267.365 23.4808C268.343 24.0194 269.101 24.8231 269.64 25.892C270.179 26.9609 270.448 28.2825 270.448 29.8568V42H266.732V30.3043C266.732 28.9205 266.371 27.8392 265.65 27.0603C264.929 26.2732 263.939 25.8796 262.68 25.8796C261.818 25.8796 261.051 26.066 260.38 26.4389C259.717 26.8117 259.191 27.3586 258.802 28.0795C258.421 28.7921 258.23 29.6538 258.23 30.6647Z" fill="white"/>
<path d="M280.988 42.4225C279.778 42.4225 278.684 42.1988 277.706 41.7514C276.729 41.2956 275.954 40.6369 275.382 39.7752C274.819 38.9134 274.537 37.857 274.537 36.6058C274.537 35.5286 274.744 34.642 275.158 33.946C275.573 33.25 276.132 32.6989 276.836 32.2929C277.541 31.8869 278.328 31.5803 279.198 31.3732C280.068 31.166 280.954 31.0086 281.858 30.9009C283.001 30.7683 283.929 30.6606 284.642 30.5777C285.354 30.4866 285.872 30.3416 286.195 30.1427C286.518 29.9438 286.68 29.6207 286.68 29.1733V29.0862C286.68 28.0008 286.373 27.1598 285.76 26.5632C285.155 25.9666 284.252 25.6683 283.051 25.6683C281.8 25.6683 280.814 25.9459 280.093 26.501C279.38 27.0479 278.887 27.6569 278.614 28.3281L275.121 27.5326C275.535 26.3726 276.14 25.4363 276.936 24.7237C277.739 24.0028 278.663 23.4808 279.707 23.1576C280.751 22.8262 281.849 22.6605 283.001 22.6605C283.763 22.6605 284.571 22.7516 285.425 22.9339C286.286 23.1079 287.09 23.4311 287.836 23.9034C288.59 24.3757 289.207 25.051 289.688 25.9293C290.168 26.7993 290.409 27.9304 290.409 29.3224V42H286.779V39.3899H286.63C286.39 39.8705 286.03 40.3428 285.549 40.8068C285.068 41.2708 284.451 41.6561 283.697 41.9627C282.943 42.2693 282.04 42.4225 280.988 42.4225ZM281.795 39.4396C282.823 39.4396 283.701 39.2366 284.43 38.8306C285.168 38.4246 285.727 37.8943 286.108 37.2397C286.498 36.5768 286.692 35.8683 286.692 35.1143V32.6534C286.56 32.7859 286.303 32.9102 285.922 33.0262C285.549 33.134 285.122 33.2292 284.642 33.3121C284.161 33.3867 283.693 33.4571 283.237 33.5234C282.781 33.5814 282.4 33.6311 282.094 33.6725C281.373 33.7637 280.714 33.917 280.118 34.1324C279.529 34.3478 279.057 34.6586 278.701 35.0646C278.353 35.4623 278.179 35.9926 278.179 36.6555C278.179 37.5752 278.518 38.2713 279.198 38.7436C279.877 39.2076 280.743 39.4396 281.795 39.4396Z" fill="white"/>
<defs>
<linearGradient id="paint0_linear_1_454" x1="29" y1="0" x2="29" y2="57.9997" gradientUnits="userSpaceOnUse">
<stop stop-color="#E1D31E"/>
<stop offset="1" stop-color="#AB9016"/>
</linearGradient>
<linearGradient id="paint1_linear_1_454" x1="29" y1="0" x2="29" y2="57.9997" gradientUnits="userSpaceOnUse">
<stop stop-color="#E1D31E"/>
<stop offset="1" stop-color="#AB9016"/>
</linearGradient>
</defs>
</svg>
