<svg width="20" height="20" viewBox="0 0 20 20" fill="none" xmlns="http://www.w3.org/2000/svg">
<path d="M15.716 6.9578L13.0366 4.27684C12.9444 4.19233 12.837 4.11549 12.7218 4.0694C12.6067 4.0233 12.4837 4 12.3531 4C12.2303 4 12.1075 4.0233 11.9923 4.0694C11.8695 4.11549 11.7697 4.19233 11.6776 4.27684L4.28416 11.6749C4.19203 11.7671 4.12291 11.8744 4.06917 11.9896C4.0231 12.1049 4 12.2278 4 12.3584V15.0397C4 15.2932 4.0999 15.539 4.28416 15.7157C4.46075 15.9 4.70634 16 4.9597 16H15.0403C15.1631 16 15.2861 15.9461 15.3783 15.8616C15.4627 15.7694 15.5164 15.6467 15.5164 15.5161C15.5164 15.3932 15.4627 15.2703 15.3783 15.1781C15.2861 15.0936 15.1631 15.0397 15.0403 15.0397H8.99813L15.716 8.3176C15.8082 8.22541 15.8773 8.12542 15.9233 8.0025C15.9694 7.88726 16 7.76456 16 7.64164C16 7.51104 15.9694 7.38813 15.9233 7.2729C15.8773 7.15766 15.8082 7.04999 15.716 6.9578ZM7.63918 15.0397H4.9597V12.3584L10.2418 7.07296L12.9215 9.7543L7.63918 15.0397ZM13.597 9.07834L10.9175 6.397L12.3531 4.9528L15.0403 7.64164L13.597 9.07834Z" fill="black"/>
</svg>
