<svg width="236" height="56" viewBox="0 0 236 56" fill="none" xmlns="http://www.w3.org/2000/svg">
<path fill-rule="evenodd" clip-rule="evenodd" d="M40.814 55.2098C34.353 55.8249 28.9837 47.9899 24.8443 44.0284C22.7503 59.6457 0 58.1847 0 42.3264V12.9294C0 10.6173 0.590665 8.2575 1.77442 6.27678C3.95794 2.45342 8.18943 -0.0494666 12.4669 0.000741712H40.814C56.1035 0.000741712 57.5608 23.5936 42.4529 25.7149L49.6425 33.1232C57.5148 40.8151 51.5985 55.5387 40.8164 55.2073L40.814 55.2098ZM37.3572 45.8686C41.8162 50.6333 48.9139 43.2728 44.3193 38.6486L31.8959 25.7651H24.9338V32.9851L35.6723 44.1213L37.3572 45.8686ZM7.55277 42.2812C7.4632 48.8886 17.519 48.8886 17.3811 42.2812V12.8842C17.473 9.58049 14.1058 6.98472 11.058 7.97633C10.92 8.02403 10.7845 8.06922 10.6949 8.11692C8.78251 8.87255 7.4632 10.8533 7.50677 12.9771V42.2812H7.55277ZM40.814 17.9803C47.1854 18.0732 47.1854 7.69266 40.814 7.78805H23.934C25.2074 10.5721 24.8902 14.9603 24.9338 17.9803H40.814Z" fill="black"/>
<path fill-rule="evenodd" clip-rule="evenodd" d="M80.629 15.655H86.5092L87.0758 18.836C88.2089 16.3202 90.688 15.0632 93.308 15.0632C94.4854 15.0741 95.6507 15.3124 96.7451 15.7661L95.363 23.127C94.3205 22.4922 93.1343 22.1603 91.9276 22.1659C89.5549 22.1659 87.6063 23.83 87.6063 27.5669V39.4412H80.629V15.655ZM99.1538 30.6009V15.5079H106.236V29.2292C106.236 32.0032 107.759 33.4843 109.991 33.4843C112.257 33.4843 114.205 31.6714 114.205 27.6745V15.5456H121.289V39.3694H115.375L114.595 36.2243C113.462 38.1107 110.698 39.9235 107.264 39.9235C102.624 39.8877 99.1521 36.8536 99.1521 30.6027L99.1538 30.6009ZM124.936 15.655H130.78L131.559 18.8002C132.658 16.912 135.385 15.1009 138.784 15.1009C143.282 15.1009 146.681 18.0955 146.681 24.3482V39.4788H139.706V25.8652C139.706 23.0535 138.325 21.5365 136.023 21.5365C133.898 21.5365 131.949 23.3494 131.949 27.4557V39.5147H124.972L124.937 15.655H124.936ZM148.24 15.5079H155.218L159.362 31.7467L163.045 21.056L161.239 15.5079H168.182L172.68 31.7467L176.68 15.5079H183.695L176.258 39.4788H169.103L166.022 29.9339L162.835 39.4788H155.715L148.24 15.5079ZM184.085 27.4934C184.085 19.3166 189.75 15.1009 194.958 15.1009C198.144 15.1009 200.446 16.4314 201.581 17.8014L202.216 15.655H208.663V39.33H202.537L201.581 36.9989C200.625 38.1824 198.57 39.8859 194.638 39.8859C189.007 39.8859 184.085 35.0766 184.085 27.4934ZM201.828 27.4934C201.828 23.6453 199.456 21.2783 196.444 21.2783C193.399 21.2783 191.062 23.6811 191.062 27.4934C191.062 31.302 193.399 33.7067 196.444 33.7067C199.456 33.7067 201.828 31.3397 201.828 27.4934ZM215.925 49.1332L219.788 38.22L210.612 15.5079H218.121L223.22 30.3409L227.825 15.5079H235.156L223.083 49.1332H215.929H215.925Z" fill="black"/>
</svg>
