<svg width="281" height="51" viewBox="0 0 281 51" fill="none" xmlns="http://www.w3.org/2000/svg">
<g clip-path="url(#clip0_1_415)">
<path d="M55.2197 18.6704C58.7655 32.3125 49.7897 45.5042 37.072 49.7482C32.2758 51.3492 27.215 51.3645 22.3312 50.0802C21.8287 49.9485 21.2235 49.2826 20.9799 48.7559L0.230378 3.9997C-0.216892 3.03603 0.0495666 1.96168 0.489223 1.22319C0.9993 0.364476 1.93381 0 3.05293 0L33.7756 0.0305321C39.8089 0.635449 45.0696 3.1677 49.1388 7.62538C52.0013 10.7606 54.1349 14.4989 55.2197 18.6723V18.6704ZM24.6265 47.609C35.0222 50.0039 44.2664 40.5657 45.6786 30.9423C46.3676 26.3625 45.1819 21.8533 42.0814 18.552C37.9609 14.1669 31.7543 13.6516 26.7258 17.264C30.1784 9.93437 38.7127 7.14641 45.8899 10.3542C47.3821 11.0202 48.6078 12.0067 50.06 12.8578C45.7548 6.50524 36.9141 5.35456 30.5609 9.12527C26.6459 11.4495 23.7092 15.0638 22.137 19.344C20.4051 24.0631 21.5832 29.3928 25.8104 32.3411C29.379 34.4001 33.6195 34.152 36.9198 31.6579C39.9422 29.3738 41.7255 26.1011 42.5573 22.2502C43.8953 25.2653 43.9581 28.391 43.3643 31.4976C42.5896 35.2722 40.7092 38.52 38.1245 41.2946C34.5369 45.1455 29.9214 47.3762 24.6265 47.609Z" fill="url(#paint0_linear_1_415)"/>
<path d="M55.2197 18.6704C58.7655 32.3125 49.7897 45.5042 37.072 49.7482C32.2758 51.3492 27.215 51.3645 22.3312 50.0802C21.8287 49.9485 21.2235 49.2826 20.9799 48.7559L0.230378 3.9997C-0.216892 3.03603 0.0495666 1.96168 0.489223 1.22319C0.9993 0.364476 1.93381 0 3.05293 0L33.7756 0.0305321C39.8089 0.635449 45.0696 3.1677 49.1388 7.62538C52.0013 10.7606 54.1349 14.4989 55.2197 18.6723V18.6704ZM24.6265 47.609C35.0222 50.0039 44.2664 40.5657 45.6786 30.9423C46.3676 26.3625 45.1819 21.8533 42.0814 18.552C37.9609 14.1669 31.7543 13.6516 26.7258 17.264C30.1784 9.93437 38.7127 7.14641 45.8899 10.3542C47.3821 11.0202 48.6078 12.0067 50.06 12.8578C45.7548 6.50524 36.9141 5.35456 30.5609 9.12527C26.6459 11.4495 23.7092 15.0638 22.137 19.344C20.4051 24.0631 21.5832 29.3928 25.8104 32.3411C29.379 34.4001 33.6195 34.152 36.9198 31.6579C39.9422 29.3738 41.7255 26.1011 42.5573 22.2502C43.8953 25.2653 43.9581 28.391 43.3643 31.4976C42.5896 35.2722 40.7092 38.52 38.1245 41.2946C34.5369 45.1455 29.9214 47.3762 24.6265 47.609Z" fill="url(#paint1_linear_1_415)"/>
</g>
<path d="M89.6797 20.2323C89.5471 19.0557 89.0002 18.1442 88.0391 17.4979C87.0779 16.8433 85.8681 16.516 84.4098 16.516C83.3658 16.516 82.4626 16.6818 81.7003 17.0132C80.938 17.3364 80.3455 17.7838 79.9229 18.3555C79.5086 18.919 79.3015 19.5611 79.3015 20.282C79.3015 20.8869 79.4424 21.4089 79.7241 21.8481C80.0141 22.2872 80.3911 22.656 80.8551 22.9543C81.3274 23.2443 81.8329 23.4887 82.3714 23.6876C82.91 23.8781 83.4279 24.0356 83.9251 24.1599L86.4109 24.8062C87.2229 25.005 88.0556 25.2743 88.9091 25.6141C89.7625 25.9538 90.5539 26.4012 91.283 26.9564C92.0122 27.5115 92.6005 28.1993 93.0479 29.0196C93.5037 29.8399 93.7315 30.8218 93.7315 31.9653C93.7315 33.407 93.3587 34.6872 92.6129 35.8058C91.8755 36.9244 90.8024 37.8069 89.3938 38.4532C87.9935 39.0995 86.299 39.4227 84.3104 39.4227C82.4046 39.4227 80.7557 39.1202 79.3636 38.5153C77.9716 37.9105 76.882 37.0529 76.0948 35.9425C75.3076 34.8239 74.8726 33.4982 74.7898 31.9653H78.6428C78.7173 32.885 79.0156 33.6515 79.5376 34.2646C80.0679 34.8695 80.7433 35.3211 81.5636 35.6194C82.3922 35.9094 83.2995 36.0544 84.2855 36.0544C85.371 36.0544 86.3363 35.8845 87.1815 35.5448C88.0349 35.1968 88.7061 34.7162 89.195 34.1031C89.6838 33.4816 89.9283 32.7566 89.9283 31.928C89.9283 31.174 89.7128 30.5566 89.282 30.0761C88.8594 29.5955 88.2835 29.1977 87.5543 28.8829C86.8335 28.568 86.0173 28.2904 85.1058 28.0501L82.098 27.2298C80.0597 26.6747 78.4439 25.8585 77.2507 24.7813C76.0658 23.7041 75.4734 22.2789 75.4734 20.5057C75.4734 19.0391 75.8711 17.7589 76.6665 16.6652C77.462 15.5714 78.5392 14.7221 79.8981 14.1173C81.257 13.5041 82.7899 13.1975 84.4968 13.1975C86.2203 13.1975 87.7408 13.4999 89.0582 14.1048C90.384 14.7097 91.428 15.5424 92.1903 16.603C92.9527 17.6554 93.3504 18.8651 93.3835 20.2323H89.6797Z" fill="white"/>
<path d="M106.251 39.3854C104.37 39.3854 102.75 38.9835 101.391 38.1798C100.04 37.3677 98.9962 36.2284 98.2588 34.7618C97.5296 33.2869 97.165 31.5593 97.165 29.5789C97.165 27.6234 97.5296 25.8999 98.2588 24.4084C98.9962 22.917 100.024 21.7528 101.341 20.9159C102.667 20.079 104.216 19.6606 105.99 19.6606C107.067 19.6606 108.111 19.8387 109.122 20.195C110.133 20.5513 111.04 21.1106 111.844 21.8729C112.647 22.6352 113.281 23.6254 113.745 24.8435C114.209 26.0532 114.441 27.524 114.441 29.2557V30.5732H99.2655V27.7891H110.8C110.8 26.8114 110.601 25.9455 110.203 25.1915C109.805 24.4292 109.246 23.8284 108.525 23.3893C107.813 22.9501 106.976 22.7305 106.014 22.7305C104.97 22.7305 104.059 22.9874 103.28 23.5011C102.509 24.0066 101.913 24.6695 101.49 25.4898C101.076 26.3018 100.869 27.1843 100.869 28.1371V30.3122C100.869 31.5883 101.093 32.6737 101.54 33.5686C101.996 34.4635 102.63 35.1471 103.442 35.6194C104.254 36.0834 105.202 36.3154 106.288 36.3154C106.992 36.3154 107.634 36.216 108.214 36.0171C108.794 35.81 109.296 35.5034 109.718 35.0974C110.141 34.6914 110.464 34.1901 110.688 33.5935L114.205 34.2273C113.923 35.2631 113.418 36.1704 112.689 36.9493C111.968 37.7199 111.061 38.3206 109.967 38.7515C108.881 39.1741 107.643 39.3854 106.251 39.3854Z" fill="white"/>
<path d="M126.793 39.3854C124.912 39.3854 123.292 38.9835 121.933 38.1798C120.582 37.3677 119.538 36.2284 118.801 34.7618C118.072 33.2869 117.707 31.5593 117.707 29.5789C117.707 27.6234 118.072 25.8999 118.801 24.4084C119.538 22.917 120.566 21.7528 121.883 20.9159C123.209 20.079 124.758 19.6606 126.532 19.6606C127.609 19.6606 128.653 19.8387 129.664 20.195C130.675 20.5513 131.582 21.1106 132.386 21.8729C133.189 22.6352 133.823 23.6254 134.287 24.8435C134.751 26.0532 134.983 27.524 134.983 29.2557V30.5732H119.808V27.7891H131.342C131.342 26.8114 131.143 25.9455 130.745 25.1915C130.347 24.4292 129.788 23.8284 129.067 23.3893C128.355 22.9501 127.518 22.7305 126.556 22.7305C125.512 22.7305 124.601 22.9874 123.822 23.5011C123.051 24.0066 122.455 24.6695 122.032 25.4898C121.618 26.3018 121.411 27.1843 121.411 28.1371V30.3122C121.411 31.5883 121.635 32.6737 122.082 33.5686C122.538 34.4635 123.172 35.1471 123.984 35.6194C124.796 36.0834 125.744 36.3154 126.83 36.3154C127.534 36.3154 128.176 36.216 128.756 36.0171C129.336 35.81 129.838 35.5034 130.26 35.0974C130.683 34.6914 131.006 34.1901 131.23 33.5935L134.747 34.2273C134.465 35.2631 133.96 36.1704 133.231 36.9493C132.51 37.7199 131.603 38.3206 130.509 38.7515C129.423 39.1741 128.185 39.3854 126.793 39.3854Z" fill="white"/>
<path d="M146.253 39.3729C144.712 39.3729 143.337 38.9794 142.127 38.1922C140.925 37.3967 139.981 36.2657 139.293 34.7991C138.614 33.3242 138.274 31.5551 138.274 29.4919C138.274 27.4287 138.618 25.6638 139.305 24.1972C140.002 22.7305 140.954 21.6078 142.164 20.8289C143.374 20.05 144.745 19.6606 146.278 19.6606C147.463 19.6606 148.416 19.8594 149.137 20.2572C149.866 20.6466 150.429 21.1023 150.827 21.6244C151.233 22.1464 151.548 22.6062 151.772 23.004H151.995V13.5455H155.712V39.0001H152.082V36.0295H151.772C151.548 36.4356 151.225 36.8996 150.802 37.4216C150.388 37.9436 149.816 38.3993 149.087 38.7888C148.358 39.1782 147.413 39.3729 146.253 39.3729ZM147.074 36.2035C148.142 36.2035 149.046 35.9218 149.783 35.3584C150.529 34.7866 151.092 33.9953 151.473 32.9844C151.863 31.9736 152.058 30.7969 152.058 29.4546C152.058 28.1289 151.867 26.9688 151.486 25.9745C151.105 24.9802 150.545 24.2054 149.808 23.6503C149.071 23.0951 148.159 22.8175 147.074 22.8175C145.955 22.8175 145.023 23.1075 144.277 23.6876C143.531 24.2676 142.968 25.0589 142.587 26.0615C142.214 27.0641 142.027 28.1951 142.027 29.4546C142.027 30.7307 142.218 31.8783 142.599 32.8974C142.98 33.9166 143.544 34.7245 144.29 35.3211C145.044 35.9094 145.972 36.2035 147.074 36.2035Z" fill="white"/>
<path d="M166.572 39.4227C165.362 39.4227 164.268 39.1989 163.29 38.7515C162.313 38.2958 161.538 37.637 160.966 36.7753C160.403 35.9135 160.121 34.8571 160.121 33.6059C160.121 32.5287 160.328 31.6421 160.742 30.9461C161.157 30.2501 161.716 29.699 162.42 29.293C163.125 28.887 163.912 28.5804 164.782 28.3733C165.652 28.1661 166.538 28.0087 167.442 27.901C168.585 27.7684 169.513 27.6607 170.226 27.5778C170.938 27.4867 171.456 27.3417 171.779 27.1428C172.102 26.944 172.264 26.6208 172.264 26.1734V26.0864C172.264 25.0009 171.957 24.1599 171.344 23.5633C170.739 22.9667 169.836 22.6684 168.635 22.6684C167.384 22.6684 166.398 22.946 165.677 23.5011C164.964 24.048 164.471 24.657 164.198 25.3282L160.705 24.5327C161.119 23.3727 161.724 22.4364 162.52 21.7238C163.323 21.0029 164.247 20.4809 165.291 20.1577C166.335 19.8263 167.433 19.6606 168.585 19.6606C169.347 19.6606 170.155 19.7517 171.009 19.934C171.87 20.108 172.674 20.4312 173.42 20.9035C174.174 21.3758 174.791 22.0511 175.272 22.9294C175.752 23.7994 175.993 24.9305 175.993 26.3225V39.0001H172.363V36.39H172.214C171.974 36.8706 171.614 37.3429 171.133 37.8069C170.652 38.2709 170.035 38.6562 169.281 38.9628C168.527 39.2694 167.624 39.4227 166.572 39.4227ZM167.379 36.4397C168.407 36.4397 169.285 36.2367 170.014 35.8307C170.752 35.4247 171.311 34.8944 171.692 34.2398C172.082 33.5769 172.276 32.8684 172.276 32.1144V29.6535C172.144 29.7861 171.887 29.9103 171.506 30.0263C171.133 30.1341 170.706 30.2294 170.226 30.3122C169.745 30.3868 169.277 30.4572 168.821 30.5235C168.365 30.5815 167.984 30.6312 167.678 30.6727C166.957 30.7638 166.298 30.9171 165.702 31.1325C165.113 31.348 164.641 31.6587 164.285 32.0647C163.937 32.4624 163.763 32.9927 163.763 33.6556C163.763 34.5754 164.102 35.2714 164.782 35.7437C165.461 36.2077 166.327 36.4397 167.379 36.4397Z" fill="white"/>
<path d="M184.659 27.6648V39.0001H180.943V19.9092H184.51V23.0164H184.746C185.185 22.0055 185.873 21.1935 186.809 20.5803C187.754 19.9672 188.943 19.6606 190.376 19.6606C191.677 19.6606 192.816 19.934 193.794 20.4809C194.772 21.0195 195.53 21.8232 196.069 22.8921C196.607 23.961 196.877 25.2826 196.877 26.857V39.0001H193.16V27.3044C193.16 25.9206 192.8 24.8393 192.079 24.0604C191.358 23.2733 190.368 22.8797 189.108 22.8797C188.247 22.8797 187.48 23.0661 186.809 23.439C186.146 23.8119 185.62 24.3587 185.231 25.0796C184.849 25.7922 184.659 26.6539 184.659 27.6648Z" fill="white"/>
<path d="M209.902 39.3854C208.054 39.3854 206.463 38.9669 205.129 38.13C203.804 37.2849 202.784 36.1207 202.072 34.6375C201.359 33.1543 201.003 31.4557 201.003 29.5416C201.003 27.6027 201.368 25.8916 202.097 24.4084C202.826 22.917 203.853 21.7528 205.179 20.9159C206.505 20.079 208.067 19.6606 209.865 19.6606C211.315 19.6606 212.607 19.9299 213.743 20.4685C214.878 20.9988 215.793 21.7445 216.489 22.7057C217.194 23.6669 217.612 24.7896 217.745 26.0739H214.128C213.929 25.179 213.473 24.4084 212.761 23.7621C212.056 23.1158 211.112 22.7927 209.927 22.7927C208.891 22.7927 207.984 23.0661 207.205 23.613C206.434 24.1516 205.834 24.9222 205.403 25.9248C204.972 26.9191 204.756 28.0957 204.756 29.4546C204.756 30.8467 204.968 32.0481 205.39 33.059C205.813 34.0699 206.41 34.8529 207.18 35.4081C207.959 35.9633 208.875 36.2408 209.927 36.2408C210.631 36.2408 211.269 36.1124 211.841 35.8555C212.421 35.5904 212.906 35.2134 213.295 34.7245C213.693 34.2356 213.97 33.6473 214.128 32.9596H217.745C217.612 34.1942 217.21 35.2962 216.539 36.2657C215.868 37.2352 214.969 37.9975 213.842 38.5526C212.723 39.1078 211.41 39.3854 209.902 39.3854Z" fill="white"/>
<path d="M229.947 39.3854C228.066 39.3854 226.446 38.9835 225.087 38.1798C223.737 37.3677 222.693 36.2284 221.955 34.7618C221.226 33.2869 220.861 31.5593 220.861 29.5789C220.861 27.6234 221.226 25.8999 221.955 24.4084C222.693 22.917 223.72 21.7528 225.037 20.9159C226.363 20.079 227.913 19.6606 229.686 19.6606C230.763 19.6606 231.807 19.8387 232.818 20.195C233.829 20.5513 234.736 21.1106 235.54 21.8729C236.344 22.6352 236.978 23.6254 237.442 24.8435C237.906 26.0532 238.138 27.524 238.138 29.2557V30.5732H222.962V27.7891H234.496C234.496 26.8114 234.297 25.9455 233.899 25.1915C233.502 24.4292 232.942 23.8284 232.221 23.3893C231.509 22.9501 230.672 22.7305 229.711 22.7305C228.667 22.7305 227.755 22.9874 226.976 23.5011C226.206 24.0066 225.609 24.6695 225.187 25.4898C224.772 26.3018 224.565 27.1843 224.565 28.1371V30.3122C224.565 31.5883 224.789 32.6737 225.236 33.5686C225.692 34.4635 226.326 35.1471 227.138 35.6194C227.95 36.0834 228.899 36.3154 229.984 36.3154C230.689 36.3154 231.331 36.216 231.911 36.0171C232.491 35.81 232.992 35.5034 233.415 35.0974C233.837 34.6914 234.16 34.1901 234.384 33.5935L237.901 34.2273C237.62 35.2631 237.114 36.1704 236.385 36.9493C235.664 37.7199 234.757 38.3206 233.663 38.7515C232.578 39.1741 231.339 39.3854 229.947 39.3854Z" fill="white"/>
<path d="M253.972 39.0001H249.895L259.056 13.5455H263.493L272.653 39.0001H268.576L261.38 18.1691H261.181L253.972 39.0001ZM254.656 29.032H267.88V32.2636H254.656V29.032Z" fill="white"/>
<path d="M280.169 13.5455V39.0001H276.329V13.5455H280.169Z" fill="white"/>
<defs>
<linearGradient id="paint0_linear_1_415" x1="27.9997" y1="0" x2="27.9997" y2="51.0001" gradientUnits="userSpaceOnUse">
<stop stop-color="#397DF7"/>
<stop offset="1" stop-color="#335CF6"/>
</linearGradient>
<linearGradient id="paint1_linear_1_415" x1="55.9998" y1="25.5001" x2="26.5" y2="21" gradientUnits="userSpaceOnUse">
<stop stop-color="#2AA2F0"/>
<stop offset="1" stop-color="#2AA2F0" stop-opacity="0"/>
</linearGradient>
<clipPath id="clip0_1_415">
<rect width="56" height="51" fill="white"/>
</clipPath>
</defs>
</svg>
