<svg width="245" height="99" viewBox="0 0 245 99" fill="none" xmlns="http://www.w3.org/2000/svg">
<g clip-path="url(#clip0_1_38)">
<path d="M80.4499 4.58783e-07H18.546C13.6273 4.58783e-07 8.91005 1.95395 5.432 5.432C1.95395 8.91005 4.58783e-07 13.6273 4.58783e-07 18.546V80.4499C-0.000541321 82.8857 0.478765 85.2978 1.41055 87.5484C2.34233 89.799 3.70833 91.844 5.43054 93.5665C7.15275 95.2891 9.19743 96.6556 11.4478 97.5879C13.6982 98.5202 16.1102 99 18.546 99H80.4499C82.8861 99.0005 85.2985 98.5211 87.5493 97.5891C89.8002 96.657 91.8454 95.2907 93.568 93.568C95.2907 91.8454 96.657 89.8002 97.5891 87.5493C98.5211 85.2985 99.0005 82.8861 99 80.4499V18.546C99 16.1102 98.5202 13.6982 97.5879 11.4478C96.6556 9.19743 95.2891 7.15275 93.5665 5.43054C91.844 3.70833 89.799 2.34233 87.5484 1.41055C85.2978 0.478765 82.8857 -0.000541321 80.4499 4.58783e-07Z" fill="url(#paint0_linear_1_38)"/>
<path d="M40.1198 46.86C40.4545 46.86 40.7756 46.993 41.0123 47.2297C41.249 47.4664 41.382 47.7875 41.382 48.1222C41.382 48.457 41.249 48.7781 41.0123 49.0148C40.7756 49.2515 40.4545 49.3845 40.1198 49.3845C39.785 49.3845 39.4639 49.2515 39.2272 49.0148C38.9905 48.7781 38.8575 48.457 38.8575 48.1222C38.8575 47.7875 38.9905 47.4664 39.2272 47.2297C39.4639 46.993 39.785 46.86 40.1198 46.86Z" fill="url(#paint1_linear_1_38)"/>
<path fill-rule="evenodd" clip-rule="evenodd" d="M34.683 39.4391C34.8191 39.402 34.9511 39.4474 35.079 39.5752C35.6771 40.194 36.2835 40.8045 36.894 41.4191L36.9806 41.4851C37.0219 41.5058 37.0508 41.5222 37.0796 41.5264L39.5876 42.174C39.7609 42.2152 39.8681 42.3101 39.9053 42.4463C39.9424 42.5906 39.897 42.7226 39.7691 42.8505L37.9253 44.6614C37.8991 44.6884 37.8769 44.719 37.8593 44.7521C37.8413 44.7832 37.8274 44.8165 37.818 44.8511L37.1704 47.355C37.1291 47.5282 37.0343 47.6355 36.894 47.6726C36.7538 47.7139 36.6217 47.6644 36.498 47.5365L34.683 45.6968C34.628 45.645 34.5616 45.6068 34.4891 45.5854C33.6559 45.3667 32.8185 45.1523 31.9853 44.9419C31.812 44.9006 31.7048 44.8057 31.6676 44.6614C31.6264 44.5252 31.6759 44.3891 31.8037 44.2654C32.4225 43.6631 33.033 43.0609 33.6476 42.4504C33.6737 42.4248 33.6959 42.3956 33.7136 42.3638C33.7319 42.3314 33.7458 42.2967 33.7549 42.2606L34.4025 39.7567C34.4438 39.5835 34.5386 39.4763 34.683 39.4391Z" fill="url(#paint2_linear_1_38)"/>
<path d="M61.3387 41.1758C61.5109 41.1659 61.6832 41.1913 61.8451 41.2504C62.007 41.3095 62.1552 41.401 62.2805 41.5194C62.4059 41.6378 62.5057 41.7805 62.5739 41.9388C62.6422 42.0971 62.6774 42.2677 62.6774 42.4401C62.6774 42.6124 62.6422 42.783 62.5739 42.9413C62.5057 43.0996 62.4059 43.2423 62.2805 43.3607C62.1552 43.4791 62.007 43.5706 61.8451 43.6297C61.6832 43.6888 61.5109 43.7142 61.3387 43.7044C61.0159 43.6859 60.7124 43.5447 60.4903 43.3096C60.2683 43.0745 60.1446 42.7634 60.1446 42.4401C60.1446 42.1167 60.2683 41.8056 60.4903 41.5705C60.7124 41.3354 61.0159 41.1942 61.3387 41.1758Z" fill="url(#paint3_linear_1_38)"/>
<path fill-rule="evenodd" clip-rule="evenodd" d="M55.9061 33.7714C56.0505 33.7301 56.1825 33.7796 56.3062 33.9034L58.113 35.7514C58.1672 35.8011 58.2321 35.8378 58.3027 35.8586L60.8025 36.5104C60.9757 36.5516 61.0789 36.6465 61.1201 36.7909C61.1572 36.927 61.1119 37.059 60.9799 37.1827L59.136 38.9895C59.0854 39.0438 59.0474 39.1086 59.0246 39.1792L58.377 41.6749C58.3358 41.8481 58.2368 41.9554 58.0965 41.9925C57.9563 42.0296 57.8243 41.9842 57.7005 41.8564C57.1024 41.2376 56.5001 40.623 55.8979 40.0125C55.8714 39.9846 55.8408 39.9609 55.8071 39.9424C55.775 39.9235 55.7402 39.9096 55.704 39.9011L53.2084 39.2494C53.0351 39.2081 52.9279 39.1132 52.8908 38.973C52.8536 38.8327 52.899 38.7007 53.0269 38.577C53.6456 37.9789 54.2561 37.3766 54.8708 36.7744C54.8985 36.7478 54.9222 36.7172 54.9409 36.6836C54.9592 36.6513 54.9731 36.6166 54.9821 36.5805L55.6339 34.0849C55.6751 33.9116 55.77 33.8044 55.9061 33.7714Z" fill="url(#paint4_linear_1_38)"/>
<path fill-rule="evenodd" clip-rule="evenodd" d="M37.3931 13.7899C40.3727 12.5655 43.6161 12.1239 46.8146 12.507C50.9396 12.9773 54.615 14.7345 57.8408 17.7623C57.8836 17.804 57.9364 17.8342 57.9941 17.8501C58.0518 17.8659 58.1126 17.8669 58.1707 17.853C62.3644 16.7697 66.8037 17.1705 70.7355 18.9874L70.9294 19.074L71.4079 19.3133C75.5232 21.398 78.7335 24.9164 80.4334 29.205C81.2955 31.3087 81.7286 33.4991 81.7369 35.7844C81.7987 37.4963 81.6131 39.1793 81.18 40.8334C81.1569 40.917 81.1562 41.0052 81.1779 41.0892C81.1996 41.1732 81.243 41.25 81.3037 41.3119C83.754 43.8116 85.3792 46.794 86.1836 50.2549C87.3757 56.1371 86.1547 61.4336 82.5247 66.1567L81.9638 66.8415C79.5594 69.5924 76.4037 71.5809 72.8846 72.5629C72.8081 72.5853 72.7381 72.6259 72.6807 72.6812C72.6232 72.7365 72.58 72.8049 72.5546 72.8805C71.7668 75.1534 70.9706 77.1004 69.498 79.0433C65.7855 83.9355 60.3364 86.658 54.1901 86.625C49.2937 86.6003 44.9501 84.81 41.1675 81.2542C41.1103 81.1998 41.0395 81.1619 40.9625 81.1444C40.8855 81.127 40.8053 81.1308 40.7302 81.1553C39.1297 81.6709 37.5127 81.7493 35.7679 81.7286C32.9804 81.7058 30.2349 81.0469 27.7406 79.8023C25.1282 78.5071 22.8541 76.62 21.0994 74.2913C20.4724 73.4621 19.8495 72.6784 19.3958 71.7502C18.7706 70.4767 18.2598 69.1501 17.8695 67.7861C17.0456 64.681 17.0272 61.417 17.8159 58.3027C17.84 58.2297 17.8471 58.1521 17.8365 58.0759C17.8227 57.9992 17.7834 57.9295 17.7251 57.8779C15.8181 55.9497 14.3602 53.6242 13.4557 51.0675C12.8564 49.4927 12.5084 47.8334 12.4245 46.1505C12.2742 43.9336 12.4705 41.7069 13.0061 39.5505C14.3962 34.9635 17.0569 31.3624 20.9797 28.7471C21.8542 28.1696 22.6792 27.7159 23.4589 27.39C24.3457 27.0187 25.2326 26.7094 26.1236 26.4495C26.1872 26.4308 26.245 26.3965 26.2919 26.3496C26.3387 26.3028 26.3731 26.2449 26.3917 26.1814C27.0665 23.7508 28.2286 21.4828 29.8072 19.5154C31.8008 16.9857 34.4138 15.0135 37.3931 13.7899ZM40.3755 37.4468C36.8074 34.914 31.9275 36.168 30.1331 40.1528C29.2009 42.2153 29.0194 44.385 29.5845 46.6702L30.03 48.4852L30.8344 51.4222C31.1644 53.0722 31.7914 54.5779 32.7277 55.9432L32.8185 56.0752C33.3135 56.661 33.858 57.1972 34.4437 57.6799C38.7296 61.2026 44.5747 58.8514 45.7421 53.5879L45.8948 52.9279L45.936 52.6804C46.1175 51.4429 46.0597 50.2301 45.771 49.0421C45.2534 46.9441 44.6895 44.8577 44.0797 42.7845C43.4074 40.4992 42.174 38.7214 40.3755 37.4468ZM62.3535 32.3524C59.6888 29.8774 55.5761 29.7825 52.9279 32.274C51.8966 33.2434 51.1748 34.551 50.7705 36.1886C50.3678 37.8503 50.3678 39.5842 50.7705 41.2459L50.8117 41.4109L50.985 41.9719C51.3769 43.2713 51.7399 44.55 52.074 45.8081C52.4246 47.1157 52.701 47.9944 52.9155 48.4399C54.6893 52.173 58.5461 54.8584 62.7412 53.1465C66.6435 51.5542 67.815 46.9301 66.9323 43.1846C66.8001 42.6178 66.6557 42.0539 66.4991 41.4934C65.8804 39.0885 65.4431 37.4674 65.175 36.63C64.6245 34.9821 63.6516 33.5072 62.3535 32.3524Z" fill="url(#paint5_linear_1_38)"/>
</g>
<path d="M143.018 38.8594C142.82 36.9986 141.982 35.5497 140.504 34.5128C139.041 33.4758 137.138 32.9574 134.794 32.9574C133.146 32.9574 131.733 33.2059 130.554 33.7031C129.375 34.2003 128.473 34.875 127.848 35.7273C127.223 36.5795 126.903 37.5525 126.889 38.6463C126.889 39.5554 127.095 40.3437 127.507 41.0113C127.933 41.679 128.509 42.2471 129.233 42.7159C129.957 43.1704 130.76 43.554 131.641 43.8665C132.521 44.179 133.409 44.4417 134.304 44.6548L138.395 45.6775C140.043 46.0611 141.626 46.5795 143.146 47.2329C144.68 47.8863 146.051 48.7102 147.259 49.7045C148.48 50.6988 149.446 51.8991 150.156 53.3054C150.866 54.7116 151.222 56.3594 151.222 58.2486C151.222 60.8054 150.568 63.0568 149.261 65.0028C147.955 66.9346 146.065 68.4474 143.594 69.5412C141.136 70.6207 138.161 71.1605 134.666 71.1605C131.271 71.1605 128.324 70.6349 125.824 69.5838C123.338 68.5327 121.392 66.9986 119.986 64.9815C118.594 62.9645 117.841 60.5071 117.727 57.6094H125.504C125.618 59.1292 126.087 60.3935 126.911 61.402C127.734 62.4105 128.807 63.1633 130.128 63.6605C131.463 64.1577 132.955 64.4062 134.602 64.4062C136.321 64.4062 137.827 64.1506 139.119 63.6392C140.426 63.1136 141.449 62.3892 142.188 61.4659C142.926 60.5284 143.303 59.4346 143.317 58.1846C143.303 57.0483 142.969 56.1108 142.315 55.3721C141.662 54.6193 140.746 53.9943 139.567 53.4971C138.402 52.9858 137.038 52.5312 135.476 52.1335L130.511 50.8551C126.918 49.9318 124.077 48.5327 121.989 46.6577C119.915 44.7685 118.878 42.2613 118.878 39.1363C118.878 36.5653 119.574 34.3139 120.966 32.3821C122.372 30.4503 124.283 28.9517 126.697 27.8863C129.112 26.8068 131.847 26.267 134.901 26.267C137.997 26.267 140.71 26.8068 143.04 27.8863C145.384 28.9517 147.223 30.4361 148.558 32.3395C149.893 34.2287 150.582 36.402 150.625 38.8594H143.018Z" fill="white"/>
<path d="M172.203 71.1392C169.007 71.1392 166.238 70.4361 163.894 69.0298C161.55 67.6236 159.732 65.6562 158.439 63.1278C157.161 60.5994 156.522 57.6449 156.522 54.2642C156.522 50.8835 157.161 47.9219 158.439 45.3792C159.732 42.8366 161.55 40.8622 163.894 39.456C166.238 38.0497 169.007 37.3466 172.203 37.3466C175.4 37.3466 178.169 38.0497 180.513 39.456C182.857 40.8622 184.668 42.8366 185.946 45.3792C187.239 47.9219 187.885 50.8835 187.885 54.2642C187.885 57.6449 187.239 60.5994 185.946 63.1278C184.668 65.6562 182.857 67.6236 180.513 69.0298C178.169 70.4361 175.4 71.1392 172.203 71.1392ZM172.246 64.9602C173.979 64.9602 175.428 64.4844 176.593 63.5327C177.757 62.5667 178.624 61.2741 179.192 59.6548C179.775 58.0355 180.066 56.2315 180.066 54.2429C180.066 52.24 179.775 50.429 179.192 48.8096C178.624 47.1761 177.757 45.8764 176.593 44.9105C175.428 43.9446 173.979 43.4616 172.246 43.4616C170.471 43.4616 168.993 43.9446 167.814 44.9105C166.65 45.8764 165.776 47.1761 165.194 48.8096C164.625 50.429 164.341 52.24 164.341 54.2429C164.341 56.2315 164.625 58.0355 165.194 59.6548C165.776 61.2741 166.65 62.5667 167.814 63.5327C168.993 64.4844 170.471 64.9602 172.246 64.9602Z" fill="white"/>
<path d="M194.432 70.5V37.7727H201.911V43.2273H202.251C202.848 41.3381 203.871 39.8821 205.32 38.8594C206.783 37.8224 208.452 37.304 210.327 37.304C210.753 37.304 211.229 37.3253 211.754 37.3679C212.294 37.3963 212.741 37.446 213.097 37.517V44.6122C212.77 44.4986 212.251 44.3991 211.541 44.3139C210.845 44.2145 210.17 44.1648 209.517 44.1648C208.111 44.1648 206.847 44.4702 205.724 45.0809C204.616 45.6775 203.743 46.5085 203.104 47.5738C202.464 48.6392 202.145 49.8679 202.145 51.2599V70.5H194.432Z" fill="white"/>
<path d="M227.053 71.1605C224.979 71.1605 223.111 70.7912 221.449 70.0525C219.801 69.2997 218.494 68.1917 217.528 66.7287C216.577 65.2656 216.101 63.4616 216.101 61.3167C216.101 59.4702 216.442 57.9432 217.124 56.7358C217.805 55.5284 218.736 54.5625 219.915 53.8381C221.094 53.1136 222.422 52.5667 223.899 52.1974C225.391 51.8139 226.932 51.5369 228.523 51.3665C230.44 51.1676 231.996 50.99 233.189 50.8338C234.382 50.6633 235.249 50.4077 235.788 50.0667C236.342 49.7116 236.619 49.1648 236.619 48.4261V48.2983C236.619 46.6932 236.143 45.4503 235.192 44.5696C234.24 43.6889 232.869 43.2486 231.08 43.2486C229.19 43.2486 227.692 43.6605 226.584 44.4844C225.49 45.3082 224.751 46.2812 224.368 47.4034L217.166 46.3807C217.734 44.392 218.672 42.7301 219.979 41.3949C221.286 40.0454 222.884 39.0369 224.773 38.3693C226.662 37.6875 228.75 37.3466 231.037 37.3466C232.614 37.3466 234.183 37.5312 235.746 37.9006C237.308 38.2699 238.736 38.8807 240.028 39.7329C241.321 40.571 242.358 41.7145 243.139 43.1633C243.935 44.6122 244.332 46.4233 244.332 48.5966V70.5H236.918V66.0042H236.662C236.193 66.9133 235.533 67.7656 234.68 68.5611C233.842 69.3423 232.784 69.9744 231.506 70.4574C230.241 70.9261 228.757 71.1605 227.053 71.1605ZM229.055 65.4929C230.604 65.4929 231.946 65.1875 233.082 64.5767C234.219 63.9517 235.092 63.1278 235.703 62.1051C236.328 61.0824 236.641 59.9673 236.641 58.7599V54.9034C236.399 55.1023 235.987 55.2869 235.405 55.4574C234.837 55.6278 234.197 55.777 233.487 55.9048C232.777 56.0327 232.074 56.1463 231.378 56.2457C230.682 56.3452 230.078 56.4304 229.567 56.5014C228.416 56.6577 227.386 56.9133 226.477 57.2684C225.568 57.6236 224.851 58.1207 224.325 58.7599C223.8 59.3849 223.537 60.1946 223.537 61.1889C223.537 62.6094 224.055 63.6818 225.092 64.4062C226.129 65.1307 227.45 65.4929 229.055 65.4929Z" fill="white"/>
<defs>
<linearGradient id="paint0_linear_1_38" x1="49.5" y1="4.58783e-07" x2="49.5" y2="99" gradientUnits="userSpaceOnUse">
<stop stop-color="#012659"/>
<stop offset="1" stop-color="#0968DA"/>
</linearGradient>
<linearGradient id="paint1_linear_1_38" x1="71.0146" y1="-1352.35" x2="776.309" y2="1562.16" gradientUnits="userSpaceOnUse">
<stop stop-color="white"/>
<stop offset="1" stop-color="#6BB6FE"/>
</linearGradient>
<linearGradient id="paint2_linear_1_38" x1="107.992" y1="-324.217" x2="323.64" y2="566.47" gradientUnits="userSpaceOnUse">
<stop stop-color="white"/>
<stop offset="1" stop-color="#6BB6FE"/>
</linearGradient>
<linearGradient id="paint3_linear_1_38" x1="-761.287" y1="-1125.68" x2="-58.2899" y2="1779.34" gradientUnits="userSpaceOnUse">
<stop stop-color="white"/>
<stop offset="1" stop-color="#6BB6FE"/>
</linearGradient>
<linearGradient id="paint4_linear_1_38" x1="-146.44" y1="-256.65" x2="69.5848" y2="635.339" gradientUnits="userSpaceOnUse">
<stop stop-color="white"/>
<stop offset="1" stop-color="#6BB6FE"/>
</linearGradient>
<linearGradient id="paint5_linear_1_38" x1="40.6684" y1="12.375" x2="58.6534" y2="86.6951" gradientUnits="userSpaceOnUse">
<stop stop-color="white"/>
<stop offset="1" stop-color="#6BB6FE"/>
</linearGradient>
<clipPath id="clip0_1_38">
<rect width="99" height="99" fill="white"/>
</clipPath>
</defs>
</svg>
