<svg width="20" height="20" viewBox="0 0 20 20" fill="none" xmlns="http://www.w3.org/2000/svg">
<path d="M9.99998 15C12.7614 15 15 12.7614 15 9.99998C15 7.23857 12.7614 5 9.99998 5C7.23857 5 5 7.23857 5 9.99998C5 12.7614 7.23857 15 9.99998 15Z" fill="#5A5A5A"/>
<path d="M10 3.57146C10.3945 3.57146 10.7143 3.25164 10.7143 2.85717V0.714292C10.7143 0.31982 10.3945 0 10 0C9.60556 0 9.28574 0.31982 9.28574 0.714292V2.85717C9.28574 3.25164 9.6055 3.57146 10 3.57146ZM4.44408 5.45405C4.72782 5.72809 5.18002 5.72025 5.45405 5.43651C5.72137 5.15974 5.72137 4.72085 5.45405 4.44408L3.939 2.92902C3.65526 2.65499 3.20306 2.66283 2.92902 2.94656C2.66171 3.2234 2.66171 3.66223 2.92902 3.939L4.44408 5.45405ZM3.57146 10C3.57146 9.60556 3.25164 9.28574 2.85717 9.28574H0.714292C0.31982 9.28574 0 9.6055 0 10C0 10.3946 0.31982 10.7143 0.714292 10.7143H2.85717C3.25164 10.7143 3.57146 10.3945 3.57146 10ZM4.44408 14.5459L2.92902 16.061C2.65499 16.3447 2.66283 16.7969 2.94657 17.071C3.22334 17.3383 3.66223 17.3383 3.939 17.071L5.45405 15.5559C5.72809 15.2722 5.72025 14.82 5.43651 14.5459C5.15968 14.2786 4.72085 14.2786 4.44408 14.5459ZM10 16.4286C9.60556 16.4286 9.28574 16.7484 9.28574 17.1429V19.2858C9.28574 19.6802 9.60556 20.0001 10 20.0001C10.3945 20.0001 10.7143 19.6802 10.7143 19.2858V17.1429C10.7143 16.7484 10.3945 16.4286 10 16.4286ZM15.5559 14.5459C15.2722 14.2719 14.82 14.2798 14.5459 14.5635C14.2786 14.8403 14.2786 15.2791 14.5459 15.5559L16.061 17.071C16.3447 17.345 16.7969 17.3372 17.071 17.0534C17.3383 16.7767 17.3383 16.3378 17.071 16.061L15.5559 14.5459ZM19.2857 9.28574H17.1428C16.7484 9.28574 16.4285 9.60556 16.4285 10C16.4285 10.3945 16.7484 10.7143 17.1428 10.7143H19.2857C19.6802 10.7143 20 10.3945 20 10C20 9.60556 19.6802 9.28574 19.2857 9.28574ZM15.5559 5.45405L17.071 3.939C17.3547 3.66496 17.3626 3.21276 17.0885 2.92902C16.8145 2.64528 16.3623 2.63738 16.0785 2.91148C16.0726 2.9172 16.0667 2.92311 16.061 2.92902L14.5459 4.44408C14.2719 4.72782 14.2798 5.18002 14.5635 5.45405C14.8403 5.72143 15.2792 5.72143 15.5559 5.45405Z" fill="#5A5A5A"/>
</svg>
