<svg width="19" height="18" viewBox="0 0 19 18" fill="none" xmlns="http://www.w3.org/2000/svg">
<path d="M1.5538 8.90541L5.37755 10.1356L14.4566 4.87735C14.5884 4.80141 14.7232 4.97073 14.6098 5.06973L7.73652 11.0632L7.4812 14.4185C7.47703 14.4747 7.491 14.5308 7.52124 14.5793C7.55149 14.6278 7.59659 14.6664 7.65056 14.6901C7.70453 14.7138 7.76482 14.7214 7.82343 14.7118C7.88205 14.7023 7.93622 14.6761 7.97877 14.6367L10.0949 12.6652L13.9638 15.4394C14.3806 15.7387 14.9844 15.5277 15.0966 15.044L17.7905 3.45648C17.9443 2.79554 17.2603 2.23754 16.5935 2.47941L1.5348 7.94241C1.06217 8.11398 1.07523 8.75129 1.5538 8.90541Z" fill="#4D6BFE"/>
</svg>
