<svg width="12" height="12" viewBox="0 0 12 12" fill="none" xmlns="http://www.w3.org/2000/svg">
<path d="M8.80097 0L10.1996 1.3993L8.32105 3.27797C7.68246 3.91715 6.83694 4.24061 5.99973 4.2395C5.16307 4.24061 4.31698 3.91715 3.6784 3.27797L1.7998 1.3993L3.19849 0L5.07707 1.87868C5.3345 2.13501 5.6624 2.25985 5.99917 2.26096C6.33594 2.25985 6.66383 2.13557 6.92126 1.87868L8.79986 0H8.80097ZM12 8.80081L10.1214 6.92214C9.8651 6.66469 9.74081 6.33679 9.7397 6C9.74081 5.66266 9.8651 5.33475 10.1214 5.07786L12 3.19919L10.6013 1.79989L8.72273 3.67857C8.08359 4.31718 7.76014 5.16331 7.76125 6C7.76014 6.83669 8.08359 7.68282 8.72273 8.32088L10.6013 10.1996L12 8.80081ZM3.19905 12L5.07763 10.1213C5.33506 9.86443 5.6624 9.74015 5.99973 9.73904C6.3365 9.74015 6.66438 9.86443 6.92182 10.1213L8.80041 12L10.1996 10.6007L8.32105 8.72203C7.68246 8.08286 6.83694 7.75939 5.99973 7.76049C5.16307 7.75939 4.31698 8.08286 3.6784 8.72203L1.7998 10.6007L3.19905 12ZM0 3.19919L1.87859 5.07786C2.13492 5.33531 2.25919 5.66321 2.2603 6C2.25919 6.33679 2.13492 6.66469 1.87859 6.92214L0 8.80081L1.39923 10.2001L3.27782 8.32144C3.91697 7.68282 4.24043 6.83725 4.23932 6.00056C4.24043 5.16386 3.91697 4.31774 3.27782 3.67912L1.39923 1.80044L0 3.19919Z" fill="#A5A5A5"/>
</svg>
