<svg width="452" height="85" viewBox="0 0 452 85" fill="none" xmlns="http://www.w3.org/2000/svg">
<path d="M65.9919 38.5575C61.0192 32.5524 54.3768 28.1287 46.5518 26.9181C43.7772 26.4878 41.2337 26.6801 38.5598 27.3964C31.0802 29.4034 26.8966 36.1705 27.3198 43.8508C27.5577 48.1441 29.3006 49.8101 29.5774 51.0344C29.6026 51.1512 28.9575 51.1901 28.8226 51.1008C21.5237 46.3682 15.8854 38.4659 15.2289 29.5041C14.0075 12.7659 27.2969 -0.637914 44.1112 0.0234662C60.1066 0.655096 74.3522 10.125 81.1181 24.6593C89.6271 42.94 83.7006 65.2095 67.6823 76.7093C67.2248 77.0388 66.9297 77.0205 66.7925 76.9931C66.6095 76.9542 66.5981 76.2974 66.7742 76.0593C75.1596 64.7953 75.1116 49.5721 65.9919 38.5575Z" fill="#4384EC"/>
<path d="M56.7465 34.1795C59.4982 36.2484 62.0554 38.2485 64.0134 40.9513C66.4677 44.3383 68.7093 48.6727 69.2354 52.8218C69.6425 56.0463 69.6746 59.3463 69.2766 62.5846C68.7848 66.5963 67.0235 70.2259 64.7682 73.574C60.253 80.2794 52.7253 84.1882 44.7425 84.8862C42.693 85.0647 40.9524 85.0212 39.0585 84.861C17.8067 83.0714 1.3493 65.9281 0.0683842 44.6609C-0.766496 30.7925 6.10926 16.4596 17.0748 8.46808C17.4705 8.17973 17.825 8.19804 17.9486 8.29645C18.1018 8.42003 18.1887 8.98987 18.0583 9.17524C15.556 12.7476 13.4768 16.7891 12.6945 21.1625C12.3125 23.2999 11.9717 25.4122 12.0015 27.5955C12.1204 36.4703 16.2811 44.5351 22.832 50.3479C26.3728 53.4923 30.2476 55.893 34.7788 57.2386C39.1888 58.5454 43.7384 58.7399 48.098 57.0075C54.5941 54.426 58.247 47.7756 57.7575 40.8483C57.5722 38.2119 56.5155 36.1042 55.3535 33.7836C55.7606 33.7607 56.3462 33.8798 56.7465 34.1795Z" fill="#4384EC"/>
<path d="M139.537 33.7988C139.182 32.6483 138.692 31.6184 138.067 30.7093C137.456 29.786 136.717 28.9977 135.851 28.3443C134.998 27.6909 134.018 27.2008 132.91 26.8741C131.802 26.5332 130.595 26.3628 129.288 26.3628C126.944 26.3628 124.856 26.9522 123.024 28.1312C121.192 29.3102 119.75 31.0431 118.699 33.3301C117.662 35.6028 117.143 38.3727 117.143 41.6397C117.143 44.9352 117.662 47.7264 118.699 50.0133C119.736 52.3002 121.177 54.0403 123.024 55.2335C124.87 56.4125 127.015 57.002 129.459 57.002C131.674 57.002 133.592 56.5758 135.211 55.7235C136.845 54.8713 138.102 53.6639 138.983 52.1014C139.863 50.5247 140.304 48.6781 140.304 46.5616L142.094 46.8386H130.247V40.6596H147.953V45.9011C147.953 49.6369 147.157 52.8684 145.567 55.5957C143.976 58.323 141.788 60.4253 139.004 61.9025C136.22 63.3656 133.024 64.0971 129.416 64.0971C125.396 64.0971 121.866 63.1951 118.826 61.3912C115.801 59.573 113.436 56.9949 111.731 53.6568C110.041 50.3045 109.196 46.3272 109.196 41.725C109.196 38.2022 109.693 35.0559 110.687 32.286C111.696 29.5162 113.102 27.1653 114.906 25.2335C116.71 23.2875 118.826 21.8102 121.255 20.8017C123.684 19.7789 126.326 19.2676 129.182 19.2676C131.596 19.2676 133.848 19.6227 135.936 20.3329C138.024 21.0289 139.878 22.0233 141.497 23.3159C143.13 24.6085 144.473 26.1426 145.524 27.9181C146.575 29.6937 147.264 31.6539 147.591 33.7988H139.537Z" fill="white"/>
<path d="M169.531 64.1397C166.335 64.1397 163.565 63.4366 161.222 62.0304C158.878 60.6241 157.06 58.6568 155.767 56.1284C154.489 53.6 153.85 50.6454 153.85 47.2647C153.85 43.8841 154.489 40.9224 155.767 38.3798C157.06 35.8372 158.878 33.8627 161.222 32.4565C163.565 31.0503 166.335 30.3471 169.531 30.3471C172.727 30.3471 175.497 31.0503 177.841 32.4565C180.185 33.8627 181.996 35.8372 183.274 38.3798C184.567 40.9224 185.213 43.8841 185.213 47.2647C185.213 50.6454 184.567 53.6 183.274 56.1284C181.996 58.6568 180.185 60.6241 177.841 62.0304C175.497 63.4366 172.727 64.1397 169.531 64.1397ZM169.574 57.9608C171.307 57.9608 172.756 57.4849 173.921 56.5332C175.085 55.5673 175.952 54.2747 176.52 52.6554C177.102 51.036 177.394 49.2321 177.394 47.2434C177.394 45.2406 177.102 43.4295 176.52 41.8102C175.952 40.1767 175.085 38.877 173.921 37.911C172.756 36.9451 171.307 36.4622 169.574 36.4622C167.798 36.4622 166.321 36.9451 165.142 37.911C163.977 38.877 163.104 40.1767 162.521 41.8102C161.953 43.4295 161.669 45.2406 161.669 47.2434C161.669 49.2321 161.953 51.036 162.521 52.6554C163.104 54.2747 163.977 55.5673 165.142 56.5332C166.321 57.4849 167.798 57.9608 169.574 57.9608Z" fill="white"/>
<path d="M206.035 64.1397C202.839 64.1397 200.069 63.4366 197.726 62.0304C195.382 60.6241 193.564 58.6568 192.271 56.1284C190.993 53.6 190.353 50.6454 190.353 47.2647C190.353 43.8841 190.993 40.9224 192.271 38.3798C193.564 35.8372 195.382 33.8627 197.726 32.4565C200.069 31.0503 202.839 30.3471 206.035 30.3471C209.231 30.3471 212.001 31.0503 214.345 32.4565C216.689 33.8627 218.5 35.8372 219.778 38.3798C221.071 40.9224 221.717 43.8841 221.717 47.2647C221.717 50.6454 221.071 53.6 219.778 56.1284C218.5 58.6568 216.689 60.6241 214.345 62.0304C212.001 63.4366 209.231 64.1397 206.035 64.1397ZM206.078 57.9608C207.811 57.9608 209.26 57.4849 210.424 56.5332C211.589 55.5673 212.456 54.2747 213.024 52.6554C213.606 51.036 213.897 49.2321 213.897 47.2434C213.897 45.2406 213.606 43.4295 213.024 41.8102C212.456 40.1767 211.589 38.877 210.424 37.911C209.26 36.9451 207.811 36.4622 206.078 36.4622C204.302 36.4622 202.825 36.9451 201.646 37.911C200.481 38.877 199.608 40.1767 199.025 41.8102C198.457 43.4295 198.173 45.2406 198.173 47.2434C198.173 49.2321 198.457 51.036 199.025 52.6554C199.608 54.2747 200.481 55.5673 201.646 56.5332C202.825 57.4849 204.302 57.9608 206.078 57.9608Z" fill="white"/>
<path d="M242.497 76.4551C239.727 76.4551 237.347 76.0787 235.359 75.3258C233.37 74.5872 231.772 73.5929 230.565 72.3429C229.357 71.0929 228.519 69.7079 228.051 68.188L234.997 66.5048C235.309 67.144 235.764 67.7761 236.36 68.4011C236.957 69.0403 237.759 69.5659 238.768 69.9778C239.791 70.4039 241.076 70.617 242.624 70.617C244.812 70.617 246.623 70.0843 248.058 69.019C249.492 67.9679 250.21 66.2349 250.21 63.8201V57.6199H249.826C249.428 58.4153 248.846 59.2321 248.079 60.0701C247.326 60.9082 246.325 61.6113 245.075 62.1795C243.839 62.7477 242.283 63.0318 240.408 63.0318C237.894 63.0318 235.614 62.4423 233.569 61.2633C231.538 60.0701 229.918 58.2946 228.711 55.9366C227.518 53.5645 226.921 50.5957 226.921 47.0304C226.921 43.4366 227.518 40.4039 228.711 37.9324C229.918 35.4466 231.545 33.5645 233.59 32.286C235.636 30.9934 237.916 30.3471 240.43 30.3471C242.347 30.3471 243.924 30.6738 245.16 31.3272C246.41 31.9664 247.404 32.7406 248.143 33.6497C248.881 34.5446 249.443 35.3897 249.826 36.1852H250.252V30.7733H257.859V64.0332C257.859 66.8315 257.191 69.1468 255.856 70.9792C254.521 72.8116 252.695 74.1824 250.38 75.0914C248.065 76.0005 245.437 76.4551 242.497 76.4551ZM242.56 56.9806C244.194 56.9806 245.586 56.5829 246.737 55.7875C247.887 54.992 248.761 53.8485 249.357 52.3571C249.954 50.8656 250.252 49.0758 250.252 46.9878C250.252 44.9281 249.954 43.1241 249.357 41.5758C248.775 40.0275 247.908 38.8272 246.758 37.975C245.622 37.1085 244.222 36.6752 242.56 36.6752C240.842 36.6752 239.407 37.1227 238.257 38.0176C237.106 38.9125 236.239 40.1412 235.657 41.7037C235.075 43.252 234.783 45.0133 234.783 46.9878C234.783 48.9906 235.075 50.7449 235.657 52.2505C236.254 53.742 237.127 54.9068 238.278 55.7449C239.443 56.5687 240.87 56.9806 242.56 56.9806Z" fill="white"/>
<path d="M273.477 19.8642V63.5005H265.764V19.8642H273.477Z" fill="white"/>
<path d="M295.897 64.1397C292.616 64.1397 289.782 63.4579 287.395 62.0943C285.023 60.7164 283.198 58.7704 281.92 56.2562C280.641 53.7278 280.002 50.752 280.002 47.3287C280.002 43.9622 280.641 41.0076 281.92 38.465C283.212 35.9082 285.016 33.9196 287.331 32.4991C289.647 31.0645 292.367 30.3471 295.492 30.3471C297.509 30.3471 299.412 30.6738 301.202 31.3272C303.006 31.9664 304.597 32.9608 305.975 34.3102C307.367 35.6596 308.461 37.3784 309.256 39.4664C310.052 41.5403 310.449 44.0119 310.449 46.8812V49.2463H283.624V44.0474H303.056C303.042 42.5701 302.722 41.2562 302.097 40.1056C301.472 38.9409 300.598 38.0247 299.476 37.3571C298.368 36.6895 297.076 36.3556 295.598 36.3556C294.022 36.3556 292.637 36.7392 291.444 37.5062C290.25 38.2591 289.32 39.2534 288.652 40.4892C287.999 41.7108 287.665 43.0531 287.651 44.5162V49.0545C287.651 50.9579 287.999 52.5914 288.695 53.9551C289.391 55.3045 290.364 56.3414 291.614 57.0659C292.864 57.7761 294.327 58.1312 296.003 58.1312C297.125 58.1312 298.141 57.975 299.05 57.6625C299.959 57.3358 300.748 56.8599 301.415 56.2349C302.083 55.6099 302.587 54.8358 302.928 53.9125L310.13 54.7221C309.675 56.6255 308.809 58.2875 307.53 59.7079C306.266 61.1142 304.647 62.2079 302.672 62.9892C300.698 63.7562 298.439 64.1397 295.897 64.1397Z" fill="white"/>
<path d="M338.036 19.8642L349.393 54.2108H349.84L361.176 19.8642H369.869L354.485 63.5005H344.727L329.364 19.8642H338.036Z" fill="white"/>
<path d="M375.616 63.5005V19.8642H403.997V26.4906H383.521V38.3372H402.527V44.9636H383.521V56.8741H404.167V63.5005H375.616Z" fill="white"/>
<path d="M451.053 41.6824C451.053 46.3841 450.172 50.411 448.411 53.7633C446.664 57.1014 444.277 59.6582 441.252 61.4338C438.241 63.2093 434.824 64.0971 431.003 64.0971C427.182 64.0971 423.759 63.2093 420.733 61.4338C417.722 59.644 415.336 57.0801 413.574 53.742C411.827 50.3897 410.954 46.3699 410.954 41.6824C410.954 36.9806 411.827 32.9608 413.574 29.6227C415.336 26.2704 417.722 23.7065 420.733 21.9309C423.759 20.1554 427.182 19.2676 431.003 19.2676C434.824 19.2676 438.241 20.1554 441.252 21.9309C444.277 23.7065 446.664 26.2704 448.411 29.6227C450.172 32.9608 451.053 36.9806 451.053 41.6824ZM443.106 41.6824C443.106 38.3727 442.587 35.5815 441.55 33.3088C440.527 31.0218 439.107 29.296 437.289 28.1312C435.471 26.9522 433.375 26.3628 431.003 26.3628C428.631 26.3628 426.536 26.9522 424.718 28.1312C422.9 29.296 421.472 31.0218 420.435 33.3088C419.412 35.5815 418.901 38.3727 418.901 41.6824C418.901 44.992 419.412 47.7903 420.435 50.0772C421.472 52.35 422.9 54.0758 424.718 55.2548C426.536 56.4196 428.631 57.002 431.003 57.002C433.375 57.002 435.471 56.4196 437.289 55.2548C439.107 54.0758 440.527 52.35 441.55 50.0772C442.587 47.7903 443.106 44.992 443.106 41.6824Z" fill="white"/>
</svg>
